<?xml version="1.0" encoding="UTF-8"?>
<svg id="Calque_1" data-name="Calque 1" xmlns="http://www.w3.org/2000/svg" viewBox="0 0 80 80">
  <defs>
    <style>
      .cls-1 {
        fill: #f2eae5;
      }

      .cls-2 {
        fill: #eca568;
      }

      .cls-3 {
        fill: #eba87f;
      }

      .cls-4 {
        fill: #eaa97f;
      }

      .cls-5 {
        fill: #eaa980;
      }

      .cls-6 {
        fill: #eaa77d;
      }

      .cls-7 {
        fill: #eaa87f;
      }

      .cls-8 {
        fill: #fff;
      }

      .cls-9 {
        fill: #fffefe;
      }

      .cls-10 {
        fill: #f1eeed;
      }

      .cls-11 {
        fill: #6d3710;
      }

      .cls-12 {
        fill: #ab5317;
      }

      .cls-13 {
        fill: #ab5318;
      }

      .cls-14 {
        fill: #e17a26;
      }

      .cls-15 {
        fill: #151516;
      }

      .cls-16 {
        fill: #884c4f;
      }

      .cls-17 {
        fill: #5c262d;
      }

      .cls-18 {
        fill: #5c252c;
      }

      .cls-19 {
        fill: #5c252d;
      }
    </style>
  </defs>
  <path class="cls-14" d="M45.64,53.89l-1.65-3.15c-.37-1.17-.85-2.3-1.19-3.48-.17-.58-.49-.68-1.02-.49-1.07,.38-2.18,.54-3.31,.66-.6,.07-1.2,.02-1.8-.07-.61-.08-.82,.11-.73,.7,.12,.77,.14,1.55,.06,2.32-.04,.38,.17,.6,.38,.86,.18,1.25-.27,2.37-.75,3.48-.6,1.39-1.48,2.62-2.3,3.89-.64,.99-1.3,1.97-1.83,3.03-.64,1.26-1.17,2.55-1.26,3.98-.05,.05-.09,.1-.14,.15-.1,.68-.1,1.36,0,2.04,.02,1.58,.16,3.13,.76,4.62-.9,.41-1.8,.36-2.71,.04-.56-.34-.65-1.15-1.34-1.36-1.1-1.17-1.45-2.53-1.08-4.09,.08-1.56,.36-3.11,.33-4.68-.06-2.89-.88-5.52-2.44-7.95-1.16-1.81-2.32-3.61-3.09-5.64-.72-1.89-.88-3.85-.79-5.84,.01-.5,.04-1,.15-1.48,.11-.47,0-.81-.38-1.12-1.95-1.62-2.37-3.65-1.61-6,.35-.85,1-1.48,1.7-2.01,.48-.36,.56,.18,.55,.53-.04,1.09,.18,2.12,.64,3.1,.19,.41,.4,.81,.82,1.08,1.35-1.51,3.09-2.38,5.05-2.66,1.92-.27,3.83,.08,5.69,.63,2.67,.79,5.32,1.62,8.04,2.23,3.74,.83,6.84-.15,9.38-3.01,.69-.77,1.31-1.57,1.6-2.58,.27-.95,.03-1.47-.88-1.82-1-.39-2.01-.2-3.02-.07-.86,.11-1.7,.38-2.59,.36-.21-.29,.03-.47,.17-.65,.36-.45,.65-.95,.9-1.47,1.16-2.33-.1-4.89-2.67-5.44-.32-.07-.65-.06-.95-.22-.13-.07-.26-.16-.2-.35,.59-1.36,1.67-2.3,2.83-3.11,1.95-1.35,4.02-2.46,6.38-2.94,.15-.25,.36-.29,.6-.14,.58,.12,1.13-.16,1.75-.04,.7,.14,1.28,.4,1.83,.82,1.02,.78,1.01,.77,1.78-.34,.44-.64,.85-1.31,1.45-1.82,.21-.18,.4-.39,.71-.35,.94-.78,2.11-.98,3.25-1.25,.59-.14,1.21-.18,1.81-.28,.42-.07,.49,.13,.37,.47-.05,.14-.11,.3-.22,.38-.7,.55-.69,1.32-.68,2.1,.02,2.74-1.03,3.93-3.75,4.27-.24,.37-.11,.78-.1,1.17,.07,3.02-.87,5.62-3.17,7.65-.23,.2-.3,.45-.3,.74-.08,4.64-2.12,8.38-5.33,11.58-.39,.38-.59,.78-.56,1.33,.08,1.31-.23,2.6-.15,3.9,.02,.38,.01,.75,.23,1.09,.36,1.09,.35,2.25,.51,3.38,.13,.93,.49,1.83,.41,2.79,.14,1.41,.77,2.65,1.51,3.81,.42,.66,.51,1.21,.23,1.93-.74,1.91-1.27,3.89-1.42,5.94-.18,2.49-.37,4.98,0,7.46,0,.05,0,.14-.02,.14-.85,.12-1.7,.34-2.5-.21-.52-1.56-.77-3.19-.75-4.8,.01-1.44,.06-2.91,.33-4.34,.21-1.13,.38-2.27,.51-3.42,.1-.84-.57-1.3-1.04-1.84-.57-.18-.8-.74-1.15-1.14-.76-.89-1.53-1.78-1.89-2.93Z"/>
  <path class="cls-5" d="M50.79,47.15c-.31-.03-.3-.26-.32-.5-.1-1.73,.24-3.45,.15-5.17-.01-.24,.15-.33,.29-.47,2.43-2.47,4.52-5.15,5.19-8.67,.18-.95,.32-1.92,.37-2.88,.03-.55,.15-.9,.6-1.3,1.51-1.33,2.39-3.04,2.74-5.03,.16-.9,.13-1.79,.15-2.69,0-.28-.11-.63,.31-.74,.45,2.5,1,4.99,1.07,7.54,.06,.54,.06,1.09,0,1.63-.38,5.25-2.45,9.79-5.76,13.81-.27,.33-.52,.67-.78,1-.3,.63-.83,1.07-1.35,1.49-.86,.7-1.6,1.57-2.68,1.98Z"/>
  <path class="cls-12" d="M45.64,53.89c.9,1.44,1.94,2.78,3.03,4.07-.98,1.56-1.55,3.31-2.25,5-.78,1.88-1.31,3.83-1.66,5.84-.07,.39-.02,.8-.03,1.2-.15,.3,0,.63-.11,.93,0,.25,0,.51,0,.76,.1,.25-.04,.53,.11,.77,0,.19,0,.37,.01,.56-.56,.36-1.11,.37-1.67,0-.37-1.33-.66-2.67-.87-4.03-.2-1.33-.23-2.68-.17-4.02,.09-1.92,.66-3.73,1.36-5.5,.69-1.73,1.51-3.41,2-5.22,.04-.13,.15-.24,.22-.36Z"/>
  <path class="cls-5" d="M42.16,21.93c.2,.27,.5,.29,.8,.32,2.35,.17,4.81,3.11,3.21,5.82-.4,.68-.92,1.29-1.27,2-.9,.11-1.79-.1-2.68-.17-1.64-.14-2.47-1.32-3.2-2.62-.31-.55-.47-1.19-.91-1.67,.01-.26,.19-.41,.39-.5,.77-.33,1.28-.91,1.61-1.66,.05-.12,.16-.19,.24-.28,.54-.5,1.39-.56,1.81-1.24Z"/>
  <path class="cls-16" d="M59.5,14.01c-.96,.64-1.57,1.58-2.17,2.53-.7,1.1-1.09,1.1-1.76-.02,.06-.15,.12-.31,.19-.46,.01-.34,.22-.56,.49-.74,.45-.68,1.12-1.16,1.64-1.78,.11-.32,.33-.56,.57-.79,.26-.29,.06-.49-.13-.69-.51-.53-1.02-1.06-1.68-1.43-.2-.11-.37-.25-.43-.48-.04-.13-.21-.22-.09-.39,.12-.16,.28-.2,.46-.15,.37,.11,.74,.22,1.11,.35,.21,.08,.45,.19,.61-.02,.13-.16-.01-.36-.07-.55-.29-.94-1.09-1.26-1.88-1.61-.31-.12-.72-.03-.9-.43-.29-.21-.59-.42-.88-.63-.15-.11-.26-.24-.2-.44,.15-.7,.61-1.01,1.28-.87,.56,.12,1.11,.29,1.55,.65,.45,.36,.72,.18,.99-.19,.2-.28,.38-.57,.59-.84,.33-.44,.82-.55,1.26-.36,.41,.19,.48,.67,.33,1.11-.09,.28-.17,.6-.36,.79-1.05,1.06-.48,2.2-.21,3.33,.1,.45,.35,.13,.46,.06,.31-.19,.51-.55,.9-.63,.32-.07,.67-.15,.89,.17,.19,.28,.2,.57,.03,.9-.3,.57-.78,.97-1.24,1.39-.61,.57-1.1,1.2-1.41,1.98-.04,.11-.03,.18,.07,.25Z"/>
  <path class="cls-5" d="M36.31,51.34c-.46-.2-.61-.45-.51-1.02,.13-.72,.09-1.49-.07-2.24-.17-.82,.06-1.08,.84-.95,1.86,.32,3.63-.07,5.37-.64,.6-.2,.83-.1,1,.51,.29,1.03,.6,2.06,1.07,3.04,.12,.25,.13,.48-.03,.7-1.07,.2-2.02,.8-3.11,.96-.32,.05-.64,.05-.96,.12-.29,.07-.59,.07-.88,0l-.91-.03c-.67,.14-1.26-.07-1.81-.45Z"/>
  <path class="cls-12" d="M36.31,51.34c.6,.15,1.21,.3,1.81,.45,.06,1.84,.05,3.67-.93,5.33-.71,1.2-1.62,2.26-2.54,3.3-1.37,1.57-2.73,3.15-3.94,4.85-.1,.14-.12,.5-.47,.34-.37-1.2,.27-2.19,.69-3.21,.85-2.04,2.2-3.8,3.37-5.66,1.05-1.67,1.89-3.4,2-5.41Z"/>
  <path class="cls-12" d="M50.79,47.15c1.42-1.07,2.75-2.24,4.03-3.47,.35,3.42-.7,6.46-2.57,9.27-.1,.15-.15,.39-.42,.36-.48-1.14-.53-2.37-.74-3.56-.15-.86-.2-1.73-.3-2.59Z"/>
  <path class="cls-5" d="M17.91,34.3c.27,.18,.09,.39,.04,.6-.56,2.22,.07,4.02,1.89,5.4,.19,.15,.37,.28,.33,.53-.11,.7-.07,1.43-.42,2.08-.05-.06-.11-.11-.16-.17-.23-.16-.52,0-.76-.12-1.51-.43-2.17-1.51-2.62-2.97-.66-2.16,.34-3.72,1.49-5.31,.03-.04,.14-.03,.21-.05Z"/>
  <path class="cls-16" d="M51.98,15.73c-.2,.05-.4,.1-.6,.14-.62-.95-.62-.94-1.64-.52-.43,.18-.85,.41-1.34,.4-.26,0-.46-.09-.55-.31-.1-.25,.09-.43,.26-.55,.24-.17,.52-.3,.79-.42,.27-.12,.54-.21,.82-.32-.48-.74-1.06-.96-1.84-.85-1,.15-1.98,.55-3.01,.22-.26-.08-.54-.09-.57-.47-.02-.38,.25-.45,.49-.56,.63-.28,1.28-.53,1.98-.51,.45,.01,.61-.13,.39-.55-.13-.26-.19-.57,.04-.73,.26-.17,.59-.12,.91,.02,.78,.33,1.2,1.03,1.7,1.62,.19,.22,.39,.44,.56,.68,.27,.27,.55,.3,.82,0,.58-.15,.7-.02,.81,.91,.1,.26-.02,.56,.11,.82-.28,.29-.07,.65-.13,.96Z"/>
  <path class="cls-13" d="M25.75,67.01c-.08,1.48,.32,2.83,1.08,4.09-.06,.6-.13,1.2-.19,1.8-.69,.34-1.38,.36-2.07-.02,0-.13,0-.26,0-.39,.13-.25,0-.53,.1-.79,.05-1.57,.32-3.09,.94-4.53,.03-.06,.09-.1,.14-.15Z"/>
  <path class="cls-11" d="M40.36,23.16c-.22,.94-.71,1.66-1.65,2.02-.22,.08-.39,.28-.59,.42-.59-.53-1.23-1.02-1.23-1.93,0-.61,.32-.9,.89-.98,.91-.12,1.75,.16,2.58,.47Z"/>
  <path class="cls-18" d="M28.17,72.47c.9-.01,1.81-.03,2.71-.04,.31,.44,.7,.81,.95,1.3,.19,.37,.17,.51-.24,.52-.7,0-1.41,.04-2.11-.01-.74-.05-1.45-1.05-1.31-1.77Z"/>
  <path class="cls-17" d="M49.63,72.37c.84,.15,1.68,.07,2.52,.07,.43,.48,.84,.97,.89,1.65-.24,.16-.49,.09-.75,.05-.49-.02-1.01-.12-1.48-.04-.92,.17-1.07-.45-1.22-1.07-.05-.21,.02-.44,.04-.66Z"/>
  <path class="cls-18" d="M24.57,72.88c.69,0,1.38,.01,2.07,.02,.05,.16,.04,.33,.12,.49,.47,1.01,.46,1.01-.63,1.01-.12,0-.25,0-.37,0-.34-.03-.95,.11-.98-.07-.07-.46-.31-.86-.36-1.32,0-.04,.1-.09,.15-.13Z"/>
  <path class="cls-19" d="M43.09,73.03c.56,0,1.11,0,1.67,0,.5,.29,.29,.89,.72,1.38-.79,0-1.42,.01-2.05,0-.21,0-.59,.15-.58-.24,0-.38-.38-.88,.24-1.14Z"/>
  <path class="cls-8" d="M51.2,13.04c-.07,.2-.14,.39-.21,.61-.32-.11-.48-.34-.61-.61,.27,0,.55,0,.82,0Z"/>
  <path class="cls-8" d="M56.23,15.32c-.16,.25-.32,.49-.49,.74-.34-.58-.05-.74,.49-.74Z"/>
  <path class="cls-9" d="M30.11,67.81c-.18-.68-.22-1.36,0-2.04,0,.68,0,1.36,0,2.04Z"/>
  <path class="cls-8" d="M58.44,12.74c.03,.42-.34,.55-.57,.79-.04-.43-.03-.82,.57-.79Z"/>
  <path class="cls-8" d="M55.45,7.33c.3,.14,.6,.29,.9,.43-.41,.1-.91,.35-.9-.43Z"/>
  <path class="cls-9" d="M61.36,28.86c0-.54,0-1.09,0-1.63,.19,.54,.19,1.09,0,1.63Z"/>
  <path class="cls-9" d="M39.03,51.82c.29,0,.59,0,.88,0-.29,.19-.59,.19-.88,0Z"/>
  <path class="cls-9" d="M44.63,70.93c0-.31-.11-.64,.11-.93-.02,.31,.11,.64-.11,.93Z"/>
  <path class="cls-8" d="M54.37,6.26c.07,.15,.13,.29,.2,.44-.15,0-.32,0-.38-.17-.05-.14,.07-.21,.18-.27Z"/>
  <path class="cls-9" d="M18.83,42.62c.26,.02,.53-.1,.76,.12-.26-.03-.53,.09-.76-.12Z"/>
  <path class="cls-8" d="M52.12,14.77c-.14-.26-.13-.54-.11-.82,.22,.25,.09,.54,.11,.82Z"/>
  <path class="cls-9" d="M24.66,71.7c.03,.27,.05,.54-.1,.79,.01-.27-.1-.55,.1-.79Z"/>
  <path class="cls-9" d="M44.74,72.47c-.21-.23-.11-.51-.11-.77,.2,.23,.09,.51,.11,.77Z"/>
  <path class="cls-9" d="M52.29,74.14c.25-.02,.5-.03,.75-.05-.23,.26-.49,.21-.75,.05Z"/>
  <path class="cls-5" d="M61.37,18.16c-.61-.03-1.41-.42-2.26-.63-.27-.07-.22-.31-.14-.5,.6-1.47,1.51-2.65,3.09-3.16,.93-.3,1.14-.11,.95,.81-.06,.29,.02,.54,.13,.8,.24,.53,.2,1.09,.1,1.63-.13,.69-.76,1.07-1.88,1.05Z"/>
  <path class="cls-5" d="M50.64,23.47c-1.15,.55-2.35,.8-3.63,.74-.43-.02-.61-.11-.5-.63,.3-1.46,.79-2.84,1.59-4.09,.27-.43,.62-.86,1.19-.97,.13,.25-.02,.44-.14,.63-.93,1.58-.33,3.74,1.38,4.23,.04,.01,.07,.06,.1,.11Z"/>
  <path class="cls-10" d="M50.64,23.47c-1.35,.08-2.33-1.75-2.08-3.26,.11-.63,.42-1.17,.74-1.71,.37-.34,.81-.5,1.32-.51,.49-.12,.86,.09,1.21,.42,.68,.63,1.17,2.56,.56,3.25-.43-.18-.33-.63-.48-.95-.22-.46-.45-.87-1.03-.8-.55,.07-.79,.5-.89,.98-.23,1.04,.09,1.86,1.01,2.43-.11,.05-.23,.09-.34,.14Z"/>
  <path class="cls-5" d="M52.28,21.66c.57-1.58-.21-3.3-1.67-3.67,1.11-.44,2.26-.28,3.4-.25,.61,.01,.83,.54,.58,1.25-.52,1.5-1.35,2.78-2.65,3.72-.13-.43-.07-.8,.34-1.06Z"/>
  <path class="cls-15" d="M52.28,21.66c-.11,.35-.22,.7-.34,1.06-.28,.27-.54,.58-.97,.61-.81-.1-1.14-.67-1.25-1.37-.13-.82-.05-1.62,.71-2.14,.49-.33,.95-.19,1.33,.24,.4,.46,.47,1.03,.52,1.6Z"/>
  <path class="cls-5" d="M24.57,36.1c.41,.02,.89-.09,.89,.58,0,.67-.76,1.41-1.48,1.38-.43-.02-.79-.17-.79-.7,0-.7,.6-1.26,1.37-1.26Z"/>
  <path class="cls-4" d="M26.66,38.93c.02,.49-.53,.97-1.14,.93-.32-.02-.65-.13-.68-.56-.03-.45,.61-1.1,1.09-1.05,.39,.04,.74,.19,.72,.69Z"/>
  <path class="cls-5" d="M28.07,35.5c.44-.03,.57,.24,.55,.65-.03,.47-.67,1.02-1.2,1.01-.38,0-.52-.25-.51-.58,0-.51,.63-1.09,1.17-1.07Z"/>
  <path class="cls-5" d="M22.29,40.79c.49-.04,.73,.28,.72,.68-.02,.52-.39,.89-.91,.95-.44,.05-.63-.34-.64-.68-.02-.52,.24-.9,.83-.94Z"/>
  <path class="cls-5" d="M35.22,39.27c.44-.03,.62,.23,.63,.63,.01,.45-.16,.83-.64,.85-.52,.02-.63-.47-.66-.85-.03-.37,.21-.66,.67-.64Z"/>
  <path class="cls-5" d="M43.41,38.08c.3,0,.47-.01,.65,0,.23,.02,.38,.14,.37,.38,0,.2-.13,.32-.32,.35-.17,.03-.35,.08-.52,.06-.34-.04-.87,.11-.91-.39-.04-.59,.54-.32,.73-.4Z"/>
  <path class="cls-7" d="M38.08,38.07c-.1,.47-.48,.64-.87,.72-.29,.06-.5-.15-.44-.45,.08-.43,.35-.7,.82-.72,.32-.01,.42,.2,.49,.45Z"/>
  <path class="cls-7" d="M30.75,37.53c.02,.33-.22,.51-.58,.53-.37,.02-.61-.19-.63-.57-.02-.45,.37-.5,.66-.56,.35-.07,.54,.17,.55,.6Z"/>
  <path class="cls-7" d="M39.44,38.99c-.27-.04-.67,.03-.6-.23,.13-.5,.6-.67,1.1-.7,.24-.01,.53,.06,.48,.32-.1,.57-.62,.52-.98,.61Z"/>
  <path class="cls-4" d="M27.12,42.32c.02,.33-.11,.58-.54,.58-.32,0-.53-.12-.52-.47,.02-.4,.25-.66,.63-.7,.37-.04,.42,.26,.42,.6Z"/>
  <path class="cls-3" d="M31.91,35.63c.04,.44-.17,.56-.39,.59-.25,.03-.44-.16-.45-.39-.01-.25,.18-.41,.42-.44,.27-.04,.41,.13,.42,.24Z"/>
  <path class="cls-6" d="M40.99,39.07c0-.23,.13-.41,.33-.44,.23-.04,.36,.15,.39,.37,.03,.26-.18,.36-.37,.39-.19,.03-.32-.11-.35-.31Z"/>
  <path class="cls-2" d="M28.54,72.21c.31-.27,.49-.22,.7-.18-.18,.18-.36,.23-.7,.18Z"/>
  <path class="cls-1" d="M51.11,21.14c.04-.33,.19-.57,.54-.76,.04,.46-.22,.63-.54,.76Z"/>
</svg>