<?xml version="1.0" encoding="UTF-8"?>
<svg id="Calque_1" data-name="Calque 1" xmlns="http://www.w3.org/2000/svg" viewBox="0 0 80 80">
  <defs>
    <style>
      .cls-1 {
        fill: #060707;
      }

      .cls-2 {
        fill: #fcfcfc;
      }

      .cls-3 {
        fill: #fff;
      }

      .cls-4 {
        fill: #7e7380;
      }

      .cls-5 {
        fill: #817784;
      }

      .cls-6 {
        fill: #857e7b;
      }

      .cls-7 {
        fill: #b6b2b4;
      }

      .cls-8 {
        fill: #cfb4b2;
      }

      .cls-9 {
        fill: #dec8c2;
      }

      .cls-10 {
        fill: #c7c4c6;
      }

      .cls-11 {
        fill: #6e6173;
      }

      .cls-12 {
        fill: #6d6072;
      }

      .cls-13 {
        fill: #645969;
      }

      .cls-14 {
        fill: #4c3b52;
      }
    </style>
  </defs>
  <path class="cls-13" d="M20.9,15.91c0-.17,0-.34,0-.52,.22-.54-.02-1.11,.16-1.65,.16-2.18,.34-4.35,.48-6.53,.05-.72,.21-.99,1.03-.74,1.43,.44,2.76,1.07,3.99,1.88,2.19,1.44,4.61,2.49,6.73,4.05,.76,.55,1.39,1.23,1.92,2.01,.3,.45,.6,.71,1.02-.03,.6-1.05,1.38-1.42,2.82-1.66-.3-.52-.89-.46-1.31-.72-.27-.16-.66-.23-.63-.69,.03-.37,.33-.43,.59-.58,1.93-1.04,3.77-.81,5.71,.74,.54,.06,.3-.26,.24-.49,0-.26-.02-.53-.01-.79,0-.6,.31-.63,.71-.33,.74,.56,1.17,1.3,1.34,2.23,.09,.48,.12,1.08,.81,1.17,.59,.08,1.04,.02,1.5-.57,2.03-2.64,4.85-4.3,7.69-5.91,1.45-.82,2.89-1.67,4.34-2.52,.72-.42,1.19-.44,1.44,.55,.86,3.51,1.47,7.04,1.33,10.66-.09,2.14-.87,4.09-1.77,6-.41,.87-.81,1.74-1.27,2.59-.98,1.81,.49,4.46,2.54,4.51,.44,.01,.98-.22,1.2,.24,.25,.52-.3,.82-.61,1.17-.09,.1-.16,.22-.3,.42,.65-.15,1.41-.55,1.71-.04,.28,.47-.32,1.08-.66,1.55-.31,.41-.75,.72-.87,1.27,.55,.1,1.29-.41,1.52,.23,.2,.56-.51,.9-.95,1.2-.58,.39-1.24,.66-1.81,1.06-.24,.17-.96,.19-.45,.9,.16,.23-.38,.55-.68,.76-2.68,1.83-5.7,2.9-8.75,3.88-.24,.08-.48,.17-.8,.28,2.53,1.68,4.12,3.96,4.63,6.84,.37,2.04,.54,4.14,.55,6.22,0,4,.8,7.88,1.64,11.75,.15,.67,.5,1.13,1.26,1.34,.9,.25,1.64,.86,2.25,1.58,.98,1.16,.55,2.52-.84,3.13-.96,.42-1.95,.37-2.94,.48-.59,.08-1.19,.09-1.78,0-1.17-.02-2.16-.36-2.72-1.49-.27-.53-.78-.45-1.17-.35-1.03,.28-2.06,.22-3.09,.16-.42-.02-.76,.03-.84,.5-.29,1.71-1.63,2-3,2.26-.9,.18-1.8,.13-2.7,.03-2.1-.09-2.6-.37-3.37-2.12-.62,.67-1.41,.94-2.27,1-.97,.11-1.94,.11-2.92,0-1.12-.05-2.16-.36-3.12-.95-.19-.11-.46-.21-.52-.38-.49-1.36-1.64-1.15-2.69-1.19-1.85-.07-3.62-.42-5.36-1.09-1.33-.52-2.42-1.4-3.44-2.27-4.91-4.22-6.85-10.28-4.38-16.52,.92-2.33,2.79-4.1,4.86-5.61,1.19-.87,2.53-1.42,3.77-2.18,.44-.27,.7-.65,1.06-.95,.27-.23,.55-.3,.82-.15,.32,.18,.07,.45,.02,.69-.41,2.21-1.58,4.04-2.89,5.79-1.24,1.66-2.17,3.43-2.12,5.58-.18,.48-.15,.96,0,1.44,.09,3.46,2.55,7.33,5.65,8.86,.02-.96,.27-1.87,.48-2.76-.51-.17-.63,.38-1.06,.33-.26-1.16,.41-2.05,.77-3.04,.13-.36,1.1-.91-.05-1.34-.22-.08,.06-.54,.21-.76,.66-.94,1.25-1.9,2.31-2.54,2.81-1.69,4.71-4.22,6.11-7.14,.6-1.25,1.65-2.13,2.48-3.2,0-.52-.31-.23-.52-.21-.78,0-1.55,0-2.33,0-.45-.21-.95,0-1.41-.15-1.11-.17-2.15-.33-3.02-1.29-.42-.47-1.44-.43-2.2-.54-.63-.09-1.21-.12-1.07-1,.05-.29-.25-.3-.4-.44-.6-.55-1.17-1.15-1.75-1.73-.29-.29-.61-.63-.49-1.03,.12-.44,.66-.21,1.01-.38-.46-.66-.9-1.3-1.36-1.94-.41-.57-.14-.67,.42-.71,.61-.04,1.13,.49,1.75,.15-.15-.13-.33-.29-.51-.44q-1.19-1.02,.17-1.8c1.15-.66,1.52-2.85,.72-4.1-.93-1.44-2-2.77-2.79-4.31-.98-1.89-1.47-3.85-1.56-5.95-.17-.54,.06-1.11-.16-1.65Z"/>
  <path class="cls-2" d="M33.5,72.82h2.92c-.97,.3-1.94,.3-2.92,0Z"/>
  <path class="cls-2" d="M42.06,73.94c.9,0,1.8-.02,2.7-.03-.9,.36-1.79,.32-2.7,.03Z"/>
  <path class="cls-2" d="M55.58,72.83c.59,0,1.19,0,1.78,0-.59,.27-1.19,.28-1.78,0Z"/>
  <path class="cls-2" d="M20.9,15.91c.25,.53,.18,1.09,.16,1.65-.35-.52-.13-1.1-.16-1.65Z"/>
  <path class="cls-2" d="M21.06,13.74c.01,.56,.1,1.12-.16,1.65,.03-.55-.2-1.13,.16-1.65Z"/>
  <path class="cls-2" d="M32.15,43.08c.48-.02,.96-.09,1.41,.15-.47-.02-.97,.17-1.41-.15Z"/>
  <path class="cls-2" d="M19.5,55.03c-.28-.48-.26-.96,0-1.44,0,.48,0,.96,0,1.44Z"/>
  <path class="cls-2" d="M35.89,43.23c.28-.17,.59-.38,.87-.1,.09,.08-.14,.29-.35,.31-.17-.07-.35-.14-.52-.21Z"/>
  <path class="cls-2" d="M43.65,10.99c.25,.25,.26,.53,.12,.83-.12-.11-.24-.23-.36-.34,.2-.11,.22-.3,.24-.49Z"/>
  <path class="cls-12" d="M60.76,4.95c.72,1.35,.76,2.86,1,4.31,.31,1.94,.41,3.89,.4,5.87-.02,2.66-1.18,4.9-2.22,7.2-.32,.71-.73,1.39-1.13,2.07-.29,.49-.35,.94-.13,1.49,.77,1.92,1.53,3.21,3.96,3.24-.38,.88-1.24,1.15-1.89,1.67-.23,.19-.68,.37-.46,.77,.18,.32,.52,.13,.81,.05,.66-.19,1.33-.34,2.2-.56-.42,.88-1.04,1.26-1.48,1.79-.22,.26-.72,.44-.47,.9,.21,.4,.66,.27,1.02,.26,.21,0,.42-.09,.86-.19-1.08,1.03-2.3,1.38-3.35,2.01-.41,.25-1.38,.3-.49,1.18,.29,.29-.21,.39-.4,.5-2.52,1.52-5.24,2.54-8.08,3.25-.85,.21-1.65,.49-2.41,.88-2.86,1.44-5.79,1.6-8.8,.58-1.24-.42-2.46,0-3.68,.04-1.47,.05-2.93,.64-4.42,.1-.13-.05-.25-.15-.37-.22,.35-1.26,.31-1.38-.9-1.78-.68-.23-.55-.66-.42-1.14,.14-.35,.46-.48,.78-.59,2.13-.72,4.25-1.46,6.4-2.12,.21-.07,.44-.12,.66-.14,.25-.02,.57-.09,.66,.24,.07,.25-.19,.39-.37,.5-1.23,.79-2.52,1.47-3.77,2.23-.32,.19-.67,.34-.95,.6,1.6-.91,3.23-1.77,4.77-2.78,.87-.57,1.58-.59,2.24,.25,.09,.07,.16,.15,.24,.23,.81,.84,1.63,1.65,2.6,2.31,.83,.56,1.66,.63,2.53,.13,1.32-.76,2.46-1.72,3.18-3.09,.39-.74,.9-.92,1.66-.64,.81,.3,1.64,.53,2.5,.78,.07,0,.04,.02-.07-.04-.42-.24-1.3-.15-1.13-.78,.15-.55,.92-.21,1.42-.14,1.15,.15,2.28,.41,3.41,.62-1.76-.37-3.54-.7-5.32-.98-.3-.05-.59-.11-.88-.2-.26-.09-.55-.24-.53-.51,.02-.4,.4-.38,.69-.39,1.39-.05,2.76,.2,4.15,.15,1.12-.05,2.24,0,3.36-.04-2.34-.07-4.67,.01-7.01-.12-.51-.03-1.16,.09-1.14-.7,0-.68,.59-.7,1.07-.71,.73,0,1.41-.18,2.04-.55,.2-.12,.4-.23,.61-.33,3.15-1.53,3.71-4.56,2.66-7.68-1.02-3.04-3.46-4.45-6.42-4.96-1.6-.28-2.67,.86-3.4,2.15-1.07,1.86-1.26,3.9-.94,5.99,.11,.7,.31,1.39,.43,2.09,.14,.77-.17,1.17-.99,1.02-.92-.16-1.79-.03-2.64,.32-.73,.3-1.1-.03-1.09-.76,.03-2.23-.82-4.26-1.51-6.31-1.22-3.65-4.76-4.56-7.69-2.06-3.72,3.17-3.55,8.87,.35,11.84,.6,.46,1.41,.52,1.96,1.07,.04,.11,.03,.21-.03,.31-1.03,.53-2.11,.1-3.11,.19,.2,0,.46-.01,.68,.14,.17,.18,.33,.37,.11,.62-1.53,.44-3.1,.57-4.69,.58-.3-.08-.53-.27-.71-.52-.29-.39-.24-.69,.26-.84,.18-.05,.36-.09,.54-.14,1.14-.33,1.2-.52,.38-1.36-.95-.97-1.24-1.19-.37-2.56,.91-1.44,.72-3-.24-4.45-.74-1.12-1.59-2.18-1.81-3.57,.17-.58,.73-.42,1.12-.57,.67-.26,1.28-.44,1.48-1.33,.19-.84,1.78-1.69,2.62-1.6,.29,.03,.61,.19,.81-.16,.21-.35,.04-.67-.15-.94-.82-1.17-1.72-2.27-2.61-3.38-1.58-1.96-3.28-3.8-5.09-5.54-.27-.26-.54-.52-.69-.88-.13-.56-.47-1.11-.03-1.68,1.1-.21,1.86,.58,2.67,1.04,1.98,1.12,3.92,2.3,5.91,3.41,1.35,.75,2.46,1.79,3.36,3.07,.83,1.17,2.12,1.5,3.52,1.01,.27,.68-.11,1.32-.12,1.97,0,.46-.21,1.03,.32,1.33,.53,.31,.9-.1,1.34-.55,.18,.62,.1,1.27,.73,1.48,.59,.19,1.1-.12,1.59-.36,1.23-.6,2.42-1.26,2.32-2.93,1.07-.92,2.35-1.45,3.67-1.85,1-.3,1.7-.85,2.21-1.75,.85-1.49,2.08-2.65,3.46-3.63,1.68-1.19,3.3-2.47,5.03-3.59,.25-.16,.46-.41,.8-.32,.42,.5-.03,.83-.26,1.15-.72,1-1.57,1.91-2.45,2.78-1.39,1.37-2.65,2.86-3.7,4.51-.68,1.07-.66,1.18,.42,1.77,.57,.32,.88,.76,1.01,1.4,.21,1.01,1.72,2.02,3.11,2.11,.98,.07,1.39-.32,1.97-1.64,1.04-2.39,1.02-4.9,.8-7.41-.09-1.05-.13-2.09-.14-3.14,0-.58-.06-1.12-.42-1.6-.01-.48,.21-.75,.71-.75Z"/>
  <path class="cls-12" d="M36.19,52.95c-.82-.2-.91-.14-.64,.66,.63,1.84,1.28,3.67,1.62,5.59,.62,3.52,1.2,7.04,2.22,10.48,.17,.56-.31,.88-.38,1.38-.42-1.64-1.38-2.65-3.06-2.9-.66-.1-.65-.37-.29-.89,1.87-2.72,.78-6.83-.72-8.86-.87-1.17-3.02-1.73-4.63-1.26-.53,.16-1.06,.36-1.58,.55-.25-.89,.18-1.6,.68-2.25,.41-.53,.9-1.01,1.44-1.41,1.05-.79,1.75-1.83,2.26-3.02,.94-2.19,2.19-4.17,3.99-5.77,.38-.34,.71-.81,1.34-.63,.43,.18,.74,.32,.23,.83-.39,.39-1.23,.72-.95,1.35,.27,.62,1.09,.22,1.66,.3,.57,.08,1.24,.04,.74,.96-.19,.35-.53,.78-.18,1.13,.34,.34,.84,.18,1.27,.03,.28-.1,.57-.17,.92-.27,.14,.52-.24,.85-.38,1.24-.1,.29-.25,.58,0,.84,.2,.21,.53,.2,.74,.09,.7-.36,.98-.26,.93,.6-.04,.65,.33,.68,.78,.33,.09-.07,.15-.17,.25-.23,.42-.25,.5-1.09,.97-.95,.6,.18,.79,.94,1.05,1.51,.18,.41,.29,.85,.44,1.27,.24,.69,.67,.75,1.2,.32,.77-.63,1.82-2.81,1.89-3.98,.42,.09,.77,.82,1.19,.37,.72-.78,.19-1.78,.3-2.69,.37-.23,.69,.17,1.05,.12,.33-.05,.72,.05,.89-.32,.14-.31-.05-.67-.27-.8-1.16-.67-.73-1.26,.12-1.89,1.14,1.45,1.7,3.16,1.82,4.99,.2,2.91,.2,5.83,.5,8.73,.29,2.89,.79,5.76,1.69,8.55,.16,.48,.4,.73,.88,.89,1.1,.36,1.99,1.05,2.68,1.97,.57,.75,.31,1.45-.53,1.55-.28-.05-.45-.25-.62-.45-.96-1.09-2.19-1.5-3.61-1.5-1.67,0-2.26-.35-2.29-1.96-.03-1.36-.59-2.4-1.15-3.54-1.13-2.3-2-4.69-1.48-7.34,.02-.12-.04-.21-.11-.3,.14-.48,.32-.95,.42-1.44,.07-.35,.12-.75-.43-.81-1.66,2.61-3.54,5.07-5.46,7.5-.28,.35-.44,.9-1.06,.84-.5-2.22-.63-4.48-.33-6.73,.1-.74-.06-1.5,.24-2.21,.06-.14-.03-.31-.19-.35-.25-.07-.35,.12-.37,.3-.1,.74-.22,1.47-.26,2.21-.17,4.18,.11,8.32,1.18,12.55-1.19-.31-2.2,0-3.23,.09-.61-.09-.55-.64-.65-1.03-.51-1.91-1.01-3.83-1.5-5.75-.71-2.81-1.87-5.43-3.11-8.03-.08-.17-.21-.31-.14-.52Z"/>
  <path class="cls-12" d="M22.67,43.7c.28-.04,.42-.46,.86-.29-.42,1.79-1.55,3.19-2.6,4.61-2.76,3.72-2.82,8.94-.08,12.65,1,1.35,2.06,2.64,3.51,3.54,.39,.24,.76,.48,1.24,.45,.56-.25,.38-.84,.58-1.26,1.15-2.32,2.6-4.36,5.12-5.38,.57-.23,1.13-.35,1.73-.14,1.07,.14,1.63,.95,2.01,1.79,1.19,2.68,1.6,5.36-.33,7.93-.27,.36-.54,.59-1.05,.7-.99,.22-1.78,.78-1.73,1.99-.87,.07-1.25-.58-1.62-1.17-.33-.52-.71-.8-1.35-.81-5.44-.05-9.12-3.05-12.06-7.26-.24-.34-.45-.7-.63-1.06-.91-1.76-1.5-3.54-1.07-5.6,.86-4.09,2.81-7.46,6.13-10.02,.41-.31,.82-.64,1.37-.69Z"/>
  <path class="cls-4" d="M50.95,49.69c-.14-.05-.23-.05-.27-.09-.35-.37-.66-1.1-1.12-.95-.6,.19,.12,.84-.07,1.29-.06,.13,0,.38-.08,.43-1.26,.65-.84,2.24-1.81,3.18-.45-.88-.64-1.82-1.16-2.62-.78-1.18-1-1.2-1.92-.11-.07,.08-.18,.12-.37,.24,.11-1.64-.76-1.13-1.58-.67,0-.22-.02-.33,0-.43,.16-.54,.79-1.12,.29-1.6-.47-.44-1.13,.05-1.69,.22-.17,.05-.34,.13-.51,.19-.04-.1-.1-.18-.08-.22q.83-1.89-1.28-1.9c-.29,0-.58,0-.89,0,.07-.52,.41-.73,.69-.93,.59-.42,1.12-.77,.2-1.39-.22-.15-.16-.41,0-.6,.38-.45,.84-.76,1.47-.63,.76,.17,1.51,.37,2.31,.41,2.12,.1,4.08-.49,5.91-1.46,1.02-.54,1.63-.14,2.21,.58,.28,.35,.45,.78,.74,1.12,.47,.58,.62,1.08-.08,1.6-.34,.26-.45,.64-.06,.95,.65,.53,.51,.8-.26,.8-.79,0-.71,.53-.64,1.01,.08,.51,.32,1,.08,1.61Z"/>
  <path class="cls-14" d="M22.67,43.7c-4.24,2.85-6.7,6.82-7.38,11.86-.19,1.37,.35,2.67,.97,3.86,2.21,4.25,5.59,7.12,10.21,8.49,.85,.25,1.71,.12,2.56,.12,.61,0,1.07,.06,1.35,.71,.3,.7,.87,1.2,1.54,1.56,.1,.37-.24,.9,.4,1.12,.18-2.11,.76-2.67,2.76-2.7,.08,.21-.02,.37-.17,.47-.96,.64-1.11,1.76-1.62,2.68-1.52,.2-2.71-.44-3.46-1.66-.32-.52-.66-.54-1.04-.52-1.5,.08-2.97-.16-4.42-.4-5.38-.9-10.88-7.66-10.76-13.3,.08-3.92,1.44-6.97,4.34-9.51,1.25-1.1,2.55-2.06,4.05-2.76,.21-.1,.44-.36,.68-.02Z"/>
  <path class="cls-14" d="M59.63,5.85c-2.28,1.75-4.74,3.27-6.92,5.15-.83,.71-1.55,1.51-2.07,2.47-.49,.91-1.14,1.55-2.18,1.78-1.41,.3-2.57,1.21-3.92,1.65-.86,.32-.87,1.43-1.69,1.82-.35,.17-.66,.47-1.04,.65-.3,.14-.63,.35-.94,.1-.28-.22-.13-.54-.04-.83,.1-.28,.22-.61-.14-.79-.36-.18-.63,.04-.9,.28-.21,.18-.37,.58-.71,.42-.32-.15-.16-.54-.17-.82,0-.48,.03-.97,.08-1.45,.08-.85-.23-1.13-1.02-.82-.44,.17-.83,.41-1.16-.13-.3-.5,.18-.8,.41-1.05,.6-.65,1.45-.88,2.32-1,.25-.03,.57,.07,.66-.27,.1-.35-.17-.57-.41-.73-.5-.33-.96-.71-1.57-.86,1.49-1.04,3.65-.84,4.71,.44,.34,.41,.59,1.15,1.25,.86,.74-.32,.15-.98,.14-1.5,0-.15,.02-.29,.03-.53,1.07,1.19,.94,2.53,.77,3.86-.04,.33-.26,.76,.22,.8,.35,.03,.35-.43,.32-.72-.1-.91,.46-1.09,1.1-.85,.81,.31,1.17-.04,1.66-.62,1.85-2.2,4.13-3.89,6.64-5.27,1.74-.95,3.44-1.97,5.15-2.97,.21-.12,.38-.25,.56,.02-.3,.15-.54,.37-.69,.67-.09,.18-.32,.1-.44,.23Z"/>
  <path class="cls-14" d="M25.6,23.43c.37,1.32,1.16,2.41,1.9,3.53,1.13,1.74,1.16,3.64-.08,5.31-.39,.52-.28,.75,.11,1.07,.11,.1,.24,.2,.31,.32,.32,.51,1.27,.71,.99,1.44-.27,.69-1.14,.55-1.77,.71-.11,.03-.22,.03-.34,.04-.08,.42,.39,.52,.47,.83-.26,.37-.69,.43-1.06,.58-.11,.02-.2-.02-.28-.09-.76-.46-1.22-1.2-1.75-1.87-.12-.15-.29-.33-.13-.48,.1-.1,.35-.1,.52-.08,.18,.01,.36,.14,.54,.15,.49,0,1.13-.03,1.29-.45,.17-.45-.41-.72-.8-.9-.9-.41-1.15-.71-.15-1.45,1.4-1.04,1.58-3.18,.58-4.65-1.26-1.85-2.68-3.61-3.45-5.75-.42-1.16-.59-2.36-.74-3.59-.45-3.53,.31-6.98,.48-10.47,.04-.85,.34-.53,.68-.2,.07,.6,.15,1.2,.22,1.8-.26,2.62-.16,5.24-.09,7.86,.04,1.73,.89,3.23,1.89,4.61,.39,.53,.7,1.05,.68,1.73Z"/>
  <path class="cls-14" d="M51.07,56.33c.52,1.08,.12,2.26,.41,3.39,.5,1.97,1.1,3.87,2.31,5.53,.23,.32,.34,.63,.25,1.04-.08,.36-.06,.75-.02,1.12,.18,1.44,.57,1.77,2.01,1.76,1.84-.01,3.39,.51,4.3,2.25-.03,.46-.42,.53-.73,.56-1.58,.17-3.14,.61-4.75,.13-.75-.22-1.21-.62-1.44-1.38-.42-1.37-1.14-2.66-1.01-4.17,0-.03,0-.08-.03-.11-1.74-1.88-1.85-4.29-2.22-6.63-.11-.7,.35-1.17,.46-1.78,.1-.58,.46-1.1,.45-1.72Z"/>
  <path class="cls-14" d="M49.64,60.64c.29,1.61,.49,3.08,1.08,4.44,.22,.5-.23,.76-.42,1.09-.44,.78-.17,1.18,.6,1.41,.78,.23,1.59,1.52,1.44,2.28-.07,.38-.39,.46-.68,.48-1.69,.13-3.49,.84-4.83-.96-.42-.56-1.55-.66-1.48-1.47,.05-.63,.66-1.23,1.06-1.81,1.17-1.69,2.12-3.51,3.22-5.46Z"/>
  <path class="cls-14" d="M38.44,44.6c-2.37,1.45-3.78,3.69-4.9,6.12-.64,1.38-1.33,2.64-2.59,3.58-1.13,.83-2,1.91-2.21,3.38-1.05,.81-1.8,2.02-3.36,2.42,.24-1.23,.88-2.14,1.6-3.01,.43-.53,.58-.96-.42-1.1,.8-.93,1.56-1.77,2.53-2.33,2.42-1.41,3.8-3.67,5.02-6.04,1-1.94,2.54-3.4,4.06-4.89,.36-.35,.74-.28,.99-.04,.32,.31-.11,.53-.3,.7-.38,.34-.45,.76-.43,1.22Z"/>
  <path class="cls-14" d="M44.54,62.42c2.01-2.31,3.76-4.81,5.54-7.29,.29-.4,.53-.81,.98-1.05-.84,4.69-3.03,8.75-5.93,12.75-.31-1.63-.68-2.99-.59-4.42Z"/>
  <path class="cls-14" d="M36.19,52.95c1.74,2.7,2.81,5.68,3.61,8.77,.57,2.19,1.19,4.37,1.78,6.55-1.65,1.16-1.63,1.15-2.15-.72-1.01-3.67-1.29-7.49-2.34-11.15-.27-.93-.62-1.84-.92-2.76-.07-.22-.32-.47,0-.69Z"/>
  <path class="cls-12" d="M43.18,68.95c1.52-.5,3.27,.28,3.9,1.74,.36,.84-.02,1.8-.95,2.04-1.55,.41-3.15,.52-4.76,.5-1.01-1.63,.06-4.16,1.8-4.28Z"/>
  <path class="cls-12" d="M33.28,71.88c-.06-1.43,.73-2.37,1.79-3.15,1.16-.11,2.15,.25,2.84,1.21,.62,.87,.38,1.83-.62,2.03-1.32,.26-2.69,.74-4.01-.09Z"/>
  <path class="cls-14" d="M25.83,37.17c.08,0,.17,0,.25,0,.59-.08,1.19-.09,1.78-.06,1.33,.27,1.5,.45,1.44,1.52-.12,.78,.67,.14,.81,.52-.07,.57-.13,1.01,.76,.99,.98-.03,1.12,.82,.36,1.98-.13-.09-.61,.1-.39-.2,.67-.9,.05-.91-.56-.9-.9,.01-1.78-.06-2.65-.33,.16-.23,.4-.1,.59-.13,.23-.03,.49-.05,.47-.36-.02-.29-.28-.3-.51-.32-1.46-.13-2.75-.58-3.61-1.95,.57-.14,1.11,.45,1.54,0,.27-.27-.23-.48-.3-.76Z"/>
  <path class="cls-14" d="M33.02,57.9c-2.59,.3-4.32,1.85-5.65,3.95-.48,.75-.95,1.51-1.23,2.38-.06,.21-.08,.66-.55,.44,.45-1.14,.16-2.43,.86-3.55,1.19-1.91,2.75-3.22,4.99-3.62,.56-.1,1.09,.11,1.58,.39Z"/>
  <path class="cls-14" d="M43.18,68.95c-1.58,.73-2.14,2.07-1.8,4.28-.73-.05-1.49-.23-1.74-.95-.28-.82,.04-1.58,.71-2.2,.81-.75,1.55-1.6,2.84-1.13Z"/>
  <path class="cls-10" d="M27.82,37.36c-.58-.03-1.2,.24-1.74-.2,.27-.38,.69-.42,1.09-.48,1.65-.15,3.3-.3,4.95-.44,.69-.43,1.46-.3,2.29-.28-.88-.2-1.71,.26-2.51-.11-.54-.12-1.14,.11-1.66-.17,0-.11,0-.21,0-.32h4.12c1.27-.21,2.55-.08,3.66-.07-1.09-.19-2.38,.15-3.64-.15-2.81-.48-5.27-3.78-5.3-7.26-.02-3.25,2.37-6.44,5.26-7.25,2.47-.68,4.94,.88,5.82,3.7,.36,1.14,.63,2.31,1.02,3.44,.39,1.12,.37,2.28,.4,3.56,1.29-.57,2.52-.86,3.86-.51,.64,.17,.43-.42,.34-.75-.42-1.52-.69-3.07-.55-4.66,.14-1.63,.54-3.19,1.62-4.47,1.04-1.24,2.29-1.8,3.98-1.34,4.6,1.26,7.16,5.25,6.04,9.62-.43,1.68-1.54,2.77-3.13,3.41-.07-.09-.1-.19-.09-.31,.2-.62,.73-.94,1.19-1.33,1.65-1.87,1.21-4.75-.27-6.24-1.63-1.64-4.23-1.77-6.03-.3-1.57,1.28-2.24,2.92-1.8,4.88,.43,1.91,1.66,3.14,3.61,3.58,.57,.13,1.11,.06,1.66-.05,.42-.09,.86-.35,1.28,.01-.55,.52-1.24,.59-1.96,.69-.41,.05-1.17-.35-1.16,.42,0,.84,.81,.44,1.24,.45,2.14,.05,4.27,.04,6.41,.05,.26,0,.53,0,.79,.03,.23,.02,.49,.1,.48,.37,0,.32-.31,.27-.51,.26-2.17-.04-4.35,.11-6.52-.12-.65-.07-1.3-.01-1.97,.08,2.51,.76,5.17,.94,7.65,1.84-1.99,.23-3.85-.57-5.95-.68,.78,.6,1.76,.47,2.46,1.19-.93,.4-1.59-.21-2.31-.34-.76-.14-1.54-.7-2.24-.59-.66,.11-.82,1.14-1.29,1.7-.67,.78-1.45,1.4-2.3,1.96-1.22,.81-2.37,.74-3.49-.23-.85-.73-1.7-1.45-2.4-2.33,.25-.24,.51-.08,.73,0,1.01,.37,1.9,.02,2.57-.64,.74-.73,1.28-.65,2.01-.04,.67,.56,1.48,.91,2.4,.53-1.22,.29-3.01-.51-3.51-1.6-.28-.62-.17-1.17,.42-1.57,.49-.34,1.01-.67,1.33-1.19,.36-.58,.18-1.04-.48-.97-.93,.1-1.87,.04-2.79,.28-.63,.17-.85,.46-.31,1,.37,.37,.75,.73,1.15,1.08,.7,.62,.75,1.51,.1,2.18-.79,.82-1.72,1.32-2.91,.94-.23-.07-.49-.26-.72,.02-.82-.98-1.58-.53-2.43,0-1.48,.94-3.02,1.8-4.55,2.67-.18,.11-.46,.43-.66,.05-.17-.32,.15-.45,.37-.58,1.77-1.04,3.53-2.08,5.27-3.23-2.75,.77-5.49,1.55-8.14,2.59-.28,.07-.55,.16-.83,.19-.71,.1-.62-.22-.3-.63,1.9-1.16,4.06-1.51,6.23-2.11-2.48,.6-4.93,.82-7.4,.76Z"/>
  <path class="cls-3" d="M53.31,32.88c-1.79,.52-3.49,.61-5.1-.61-1.54-1.17-2.24-3.37-1.63-5.55,.51-1.8,2.47-3.32,4.23-3.54,3.81-.48,6.6,3.49,4.86,7.2-.19,.41-.39,.82-.91,.91-.1-.17-.13-.36-.09-.54,.12-.6,.03-.85-.72-.82-1.16,.05-1.52-.49-1.6-2.03-1.25,.36-1.98,1.32-1.84,2.42,.15,1.13,1.26,2.01,2.48,1.96,.26,0,.52-.09,.75,.1,0,.08,0,.17,0,.25-.15,.08-.29,.17-.44,.25Z"/>
  <path class="cls-13" d="M25.6,23.43c-.59-1.29-1.61-2.31-2.16-3.63-.45-1.08-.79-2.16-.77-3.35,.02-2.02,0-4.04,.01-6.06,0-.44-.08-.92,.44-1.17,2.36,1.99,4.33,4.33,6.28,6.7,.73,.89,1.43,1.82,2.12,2.74,.29,.39,.55,.82,.27,1.35-.32,.61-.83,.37-1.28,.24-.51-.14-.86-.17-1.2,.39-.36,.6-.97,.99-1.29,1.72-.39,.89-1.55,.84-2.43,1.06Z"/>
  <path class="cls-13" d="M59.63,5.85c.1-.18,.26-.22,.44-.23,.61,.04,.68,.46,.69,.95,.06,2.28,.15,4.55,.22,6.83,.06,1.79-.41,3.47-1.14,5.08-.56,1.24-1.2,1.47-2.52,1.23-.93-.17-1.91-.56-2.34-1.19-.73-1.07-1-2.43-2.47-2.94-.25-.09,.11-.89,.37-1.29,1.09-1.7,2.35-3.27,3.79-4.69,1.04-1.02,2.04-2.08,2.86-3.29,.09-.14,.32-.25,.1-.46Z"/>
  <path class="cls-7" d="M34.4,35.14h3.78c0,.07,0,.15,0,.22-1.27,0-2.54,0-3.81,0,.03-.07,.03-.15,.02-.22Z"/>
  <path class="cls-5" d="M31.91,35.85h2.7s0,.07,0,.11c-.83,.09-1.66,.19-2.48,.28-.07-.13-.14-.26-.22-.39Z"/>
  <path class="cls-11" d="M27.82,37.36c1.72-.21,3.44-.5,5.16-.61,.85-.06,1.67-.43,2.81-.14-2.42,.75-4.62,1.42-6.82,2.1,.61-1.31-.51-1.13-1.16-1.35Z"/>
  <path class="cls-3" d="M37.27,34.21c-.55,.71-1.38,.68-2.12,.66-2.15-.06-4.1-1.83-4.55-4-.45-2.17,.76-4.57,2.83-5.62,1.97-1,4.25-.58,5.73,1.06,1.18,1.31,1.49,4.46,.58,5.95-.18,.3-.39,.55-.76,.61-.07-.13-.12-.28-.1-.43,.11-.64,.12-1.02-.8-.93-1.01,.1-1.33-.42-1.58-1.98-1.08,.29-1.71,.98-1.79,1.97-.07,.85,.53,1.78,1.43,2.23,.36,.18,.81,.17,1.11,.48Z"/>
  <path class="cls-1" d="M53.76,32.38c-1.13,.41-2.14,.25-2.92-.71-.69-.86-.82-1.82-.32-2.83,.22-.44,.53-.82,1-1.01,.66-.27,1.31-.72,1.17,.67-.12,1.16,.85,1.51,2.12,.85,.44,.66,.1,1.3-.04,1.94-.34,.36-.67,.73-1.01,1.09Z"/>
  <path class="cls-1" d="M37.27,34.21c-2.19-.18-3.38-1.85-2.58-3.66,.22-.49,.54-.88,1.04-1.13,.99-.49,1.12-.42,1.16,.64,.05,1.19,.88,1.53,2.15,.86,.44,.66,.11,1.3-.04,1.94-.4,.67-1.06,1.01-1.72,1.34Z"/>
  <path class="cls-6" d="M40.25,37.63c.05-.64,.45-.34,.72-.23,1.07,.43,1.89-.05,2.63-.74,.76-.72,.7-1.38-.09-2.06-.51-.44-1-.91-1.47-1.39-.36-.36-.26-.68,.2-.86,1.25-.48,2.56-.5,3.86-.45,.81,.03,.84,.61,.47,1.21-.38,.62-.95,1.06-1.56,1.44-.65,.41-.58,.9-.22,1.43,.81,1.19,2.13,1.6,3.53,1.11,.16-.05,.27-.09,.38,.05-1.05,.9-1.92,.92-3.27-.06-.66-.48-1.08-.61-1.75,.07-.96,.97-2.2,.96-3.44,.46,0,0,.01,.01,.01,.01Z"/>
  <path class="cls-9" d="M23.32,10.37c3.01,2.88,5.75,5.84,8.02,9.23-.54,.34-.9-.02-1.27-.07-.43-.05-.77-.01-.97,.35-.27,.48-.6,.81-1.17,.93-.27,.05-.62,.34-.46,.66,.36,.71-.15,.82-.59,1.03-.56,.27-.96,.1-1.33-.38-1.35-1.76-2.35-3.61-2.25-5.94,.08-1.94,.02-3.88,.02-5.82Z"/>
  <path class="cls-9" d="M60.03,6.79c.09,3.17,.71,6.17,.03,9.18-.15,.69-.46,1.34-.66,2.01-.3,1.02-.99,1.3-1.97,1.17-1.05-.14-2.38-1.32-2.53-2.32-.09-.66-.57-1.03-1.07-1.19-.93-.3-.71-.76-.31-1.3,.67-.9,1.27-1.87,2.03-2.68,1.48-1.56,2.98-3.12,4.48-4.87Z"/>
  <path class="cls-8" d="M45.33,32.2c.36,.09,.79-.15,.95,.27,.15,.38-.23,.59-.45,.83-.17,.19-.37,.37-.56,.55-.77,.7-2.59,.18-2.88-.81-.13-.45,.27-.4,.47-.44,.84-.16,1.68-.27,2.48-.4Z"/>
</svg>