<?xml version="1.0" encoding="UTF-8"?>
<svg id="Calque_1" data-name="Calque 1" xmlns="http://www.w3.org/2000/svg" viewBox="0 0 80 80">
  <defs>
    <style>
      .cls-1 {
        fill: #f9efed;
      }

      .cls-2 {
        fill: #020202;
      }

      .cls-3 {
        fill: #ecceb8;
      }

      .cls-4 {
        fill: #f3c2bd;
      }

      .cls-5 {
        fill: #fff;
      }

      .cls-6 {
        fill: #ee9184;
      }

      .cls-7 {
        fill: #fefefe;
      }

      .cls-8 {
        fill: #e5e4e5;
      }

      .cls-9 {
        fill: #e4e3e4;
      }

      .cls-10 {
        fill: #fdfdfd;
      }

      .cls-11 {
        fill: #7f372a;
      }

      .cls-12 {
        fill: #a12018;
      }

      .cls-13 {
        fill: #9d3d29;
      }

      .cls-14 {
        fill: #907e6f;
      }

      .cls-15 {
        fill: #d8a379;
      }

      .cls-16 {
        fill: #d09b71;
      }

      .cls-17 {
        fill: #d19b6f;
      }

      .cls-18 {
        fill: #d19b70;
      }

      .cls-19 {
        fill: #cfcece;
      }

      .cls-20 {
        fill: #e03420;
      }

      .cls-21 {
        fill: #dddbdc;
      }

      .cls-22 {
        fill: #d39c72;
      }

      .cls-23 {
        fill: #d29b70;
      }

      .cls-24 {
        fill: #c78048;
      }

      .cls-25 {
        fill: #d19a6f;
      }

      .cls-26 {
        fill: #dcaa7f;
      }

      .cls-27 {
        fill: #dca97e;
      }

      .cls-28 {
        fill: #e0b896;
      }

      .cls-29 {
        fill: #e0d4cb;
      }

      .cls-30 {
        fill: #c67f47;
      }

      .cls-31 {
        fill: #c67f48;
      }

      .cls-32 {
        fill: #c8834c;
      }

      .cls-33 {
        fill: #090603;
      }

      .cls-34 {
        fill: #191410;
      }

      .cls-35 {
        fill: #0a0706;
      }

      .cls-36 {
        fill: #0a0704;
      }

      .cls-37 {
        fill: #5d372a;
      }
    </style>
  </defs>
  <path class="cls-26" d="M41.09,10.77c.54-.58,1.02-1.23,1.63-1.71,1.34-1.07,2.86-.93,4.38-.41,.31,.11,.62,.22,.93,.34,1.09,1.27,2.13,2.56,2.73,4.08-.07-.47-.37-.9-.64-1.34-.3-.47-.6-.94-.93-1.38-.15-.2-.41-.4-.25-.68,.17-.31,.51-.28,.8-.22,1.34,.28,2.21,1.15,2.79,2.34,.37,.78,.56,1.62,.64,2.47,.22,2.19,.99,4.16,2.2,5.99,.78,1.17,1.5,2.39,2.29,3.55,.23,.34,.44,.69,.59,1.07,.59,1.49,.23,2.42-1.21,3.07-2.49,1.13-5.47,.49-7.18-1.54-1.12-1.72-2.01-3.53-2.41-5.55-.18-.9-.18-1.83-.51-2.7-.14-.51-.13-1.03-.1-1.54,.09-1.55-.53-2.81-1.51-3.94-.21-.25-.43-.6-.81-.46-.3,.11-.31,.48-.38,.76-.38,1.82,.82,4.4,2.48,5.31,.13,.07,.26,.15,.36,.26,.49,1.95,.67,3.97,1.64,5.8,.39,.74,1.04,1.36,1.15,2.24-.08,.59-.01,1.18,0,1.77,.11,3.8-.39,7.39-3.5,10.12-1.57,1.38-3.45,1.98-5.4,2.46-2.09,.52-4.22,.83-6.3,1.38-1.23,.32-2.25,.93-2.9,2.07-.76,.52-1.4,1.17-1.99,1.87-.4-.13-.7,.21-1.07,.22-.53-.62-.23-1.24,.02-1.85,.31-.74,.78-1.41,.97-2.21,.07-.55,.21-1.08,.28-1.63,.13-.98,1.03-1.4,1.56-2.09,.09-.12,.39-.13,.17-.39-.05-.06-.11-.15-.16-.14-.29,.07,0,.25-.07,.38-.44,.84-1.18,1.4-1.88,2-2.45,1.53-5.01,2.22-7.83,1.06-.78-.4-1.52-.79-2.49-.75-1.09,.04-1.9-1.01-1.98-2.23,.23-.17,.49-.1,.75-.09,2.01,.14,2.89-.43,3.59-2.33,.08-.21,.12-.43,.21-.63,.71-.76,1.53-1.4,2.23-2.17,.94-1.04,1.59-2.23,1.97-3.58,.13-.46,.1-.88-.18-1.27-.22-.58-.07-1.19-.2-1.78-.02-.1-.02-.21-.02-.31,.06-.35,.1-.69-.05-1.03-.29-1.05-.92-1.75-2.03-1.97-.48-.09-.88-.39-1.22-.74-.02,.15-.07-.08-.06-.02,.01,1.14-.6,1.07-1.37,.78,.2,.53,.06,1.03-.52,1.19-.7,.2-1.21-.13-1.44-.85,.1-.71,0-1.47,.43-2.11,.93-.83,1.91-1.58,3.21-1.89-.58-.47-1.18-.18-1.73-.23-.71-.46-1.34-1.02-2.04-1.5-.87-.6-.33-1.29-.03-1.95,.61-.25,.96,.24,1.35,.51,.67,.48,1.14,.44,1.66-.24,.85-1.1,1.75-2.16,2.67-3.21,3.36-2,7.03-2.98,10.88-3.29,1.63-.13,3.24,.28,4.81,.77,.32,.1,.63,.49,1.01,.11Z"/>
  <path class="cls-26" d="M39.96,73.44c-.15-.03-.3-.07-.46-.1,.32-1.47,.81-2.88,1.46-4.24,1.08-.07,2.25,.08,2.95-1.05,.36-.39,0-.68-.16-.99-1.08-2.25-1.33-4.53-.21-6.84,1.16-2.4,3.99-4.18,7.03-2.34,.89,.54,1.67,1.21,2.5,1.84,.23,.17,.41,.45,.76,.36,.59-.3,.24-.62-.03-.85-1.01-.87-2-1.76-3.24-2.31-2.86-1.29-5.84-.23-7.71,2.68-.22,.34-.23,1.1-1.01,.77-.25-1.09,.04-2.19-.06-2.99-.05,3.04-.41,6.35-.91,9.65-.32,2.12-1.32,3.93-2.81,5.46-1.22,1.26-3.84,1.1-4.73-.35-.08,.64-.44,.88-1,.8-.58-.08-1.08-.3-1.26-.93-.13-.47-.15-.95-.19-1.43,0-.12,.03-.24,.08-.35,.47-.76,1.15-1.23,1.99-1.52,1.76-.6,2.1-1.21,2.27-3.08,.32-3.57,0-7.09-.48-10.61-.21-.08-.3-.41-.6-.26-.18,.51-.15,1.05-.08,1.54,.51,3.17-.21,6.34-.01,9.51,.06,.98-.2,1.58-1.3,1.79-1.25,.24-2.24,.93-2.68,2.23-.07,.21-.19,.4-.41,.5-.6-.14-.26-.78-.58-1.08-.33,.01-.43,.36-.68,.5-.53,.31-1.03,.34-1.28-.29-.2-.51-.46-.61-.99-.59-.72,.03-.98-.47-.76-1.22,.35-1.17,1.67-2.17,3.01-2.25,.26-.02,.52-.04,.77,0,.76,.1,1.21-.18,1.28-.97,.77-1.87,1.13-3.83,1.19-5.84,.06-1.96,.34-3.91,.25-5.88-.02-.33-.01-.74,.33-.88,.37-.15,.56,.25,.81,.45,.29,.22,.39,.76,.92,.6-.04-1.04-.63-1.84-1.43-1.9-.42-.06-.74-.26-.96-.62-.15-.42-.17-.83,.08-1.23,.25-.23,.56-.18,.85-.13,6.29,1.07,11.59-1.19,16.44-4.93,.09-.07,.19-.11,.3-.15,.34,.03,.5,.29,.68,.52,1.69,2.25,3.78,4.08,6.1,5.64,5.59,3.75,7.91,9.13,7.88,15.68,0,1.15-.47,2.17-1.55,2.63-1.13,.48-2.16,.06-3.05-.77-.85-.8-1.46-1.76-2.09-3.01-.04,.98,.29,1.68,.21,2.41-.15,1.41-.22,2.86-1.78,3.57-1.62,.74-3.15,.61-4.65-.36-.95-.62-1.5-1.63-2.44-2.42-.04,.58,.28,.92,.46,1.3,.6,1.22,.52,2.39-.34,3.44-.93,1.13-2.15,1.7-3.63,1.55-.78-.08-1.03-.76-1.36-1.44-.53,.62-.9,1.54-1.93,1.08-.72-.32-.83-.93-.55-1.72-.68,.38-.69,1.13-1.23,1.43Z"/>
  <path class="cls-30" d="M39.96,73.44c.17-.74,.52-1.39,1.1-1.88,.15-.13,.34-.19,.51-.08,.22,.14,.1,.33,0,.48-.4,.65-.56,1.29,.33,1.61,.82,.3,1.07-.43,1.37-.97,.12-.22,.26-.44,.39-.65,.11,.04,.22,.06,.23,.1,.19,.74,.17,1.6,1.17,1.81,1.07,.22,2.9-.65,3.56-1.68,.64-1,.64-2.02,.08-3.05-.14-.26-.3-.51-.45-.76-.21-.35-.32-.74,.05-.99,.44-.3,.5,.22,.7,.43,.74,.77,1.34,1.66,2.24,2.29,1.95,1.37,5.1,.65,5.65-1.33,.35-1.25,.21-2.49,.02-3.73-.05-.31-.33-.73,.13-.85,.41-.11,.46,.4,.59,.68,.52,1.09,1.21,2.04,2.13,2.82,.73,.63,1.61,.83,2.49,.5,.88-.32,1.29-1.19,1.34-2.02,.26-5.38-1.4-10.1-5.25-13.89-1.49-1.47-3.39-2.5-5-3.86-1.53-1.28-3.06-2.6-4-4.43-.14-.26-.15-.45,.22-.45,2.72,3.31,6.45,5.45,9.55,8.31,2.81,2.59,4.25,5.88,5.18,9.49,.55,2.11,.65,4.2-.05,6.29-.06,.14,.03,.3-.02,.43-.27,.76-.31,1.4,.54,1.88,.9,.52,1.76,.73,2.7,.13,.79-.51,1.3-1.31,1.98-1.92,.99-.09,.63,.51,.38,.87-1.36,1.97-3.01,3.53-5.55,3.79-.37,.09-.73,.12-1.1-.02-1.54-.57-2.96-.43-4.51,.25-1.99,.87-4.12,.85-6.12-.13-.55-.27-.79,.02-1.14,.31-2.48,2.1-5.31,2.89-8.51,2.2-1.24-.27-2.17-.99-2.94-1.97Z"/>
  <path class="cls-30" d="M31.48,44.37c.31-1.35,1.42-1.84,2.54-2.21,2.21-.74,4.53-1.04,6.8-1.53,3.14-.68,5.84-2.05,7.36-5.01,1.2-2.34,1.58-4.91,1.25-7.54-.07-.53-.13-1.03,.14-1.52,.13-.12,.2-.36,.45-.23,1.73,1.87,3.87,2.13,6.21,1.57,2.11-.5,2.59-1.73,1.42-3.6-.92-1.47-1.85-2.95-2.82-4.39-1.37-2.03-1.8-4.33-2.14-6.69-.28-1.93-1.8-3.7-3.68-3.52,.93,1.15,1.77,2.31,2.22,3.7,.07,.21,.21,.44-.07,.57-.2,.1-.36-.08-.43-.26-.61-1.57-1.48-2.97-2.63-4.2-.1-.11-.05-.35-.07-.53,3.55-.19,5.14,2.03,5.46,5.21,.27,2.7,1.45,4.88,2.87,7.03,.89,1.35,1.97,2.59,2.41,4.2,.32,1.17-.14,2.26-1.27,2.69-1.49,.57-3.01,.97-4.64,.52-.73-.2-1.02-.15-.9,.89,.41,3.64-.53,7.01-2.58,10.06-.23,.34-.46,.66-.53,1.07-.47,.41-1.05,.65-1.56,1-3.85,1.72-7.77,3.19-12.07,3.07-1.24-.03-2.5-.12-3.73-.34Z"/>
  <path class="cls-30" d="M18.8,16.08c-.56,1.22-.06,1.97,1.08,2.44,.44,.18,.61,.62,.91,.94-.17,.9-.91,1.45-1.32,2.2-.33,.71-.09,1.53-.45,2.24-.17,.44,.28,.53,.46,.72,.4,.42,.63,.87,.53,1.46-.47,.92-.46,1.98-.89,2.91-.08,.09-.18,.1-.29,.05-.43-.54-.15-1.21-.31-1.79-.1-1.18-.1-2.37,0-3.55,.01-1.43,.37-2.77,1.21-3.93,.28-.38,.08-.42-.2-.62-1.47-1.08-1.45-1.09-2.09,.59-.96,2.55-2.68,4.56-4.82,6.16-1.6,1.2-4.92,1.14-6.62-.38-.59-.53-.78-1.15-.16-1.82,1.91-.52,2.91-2.09,3.96-3.55,1.41-1.96,2.47-4.14,3.65-6.25,.54-.96,1.31-1.71,2.17-2.35,.33-.25,.78-.44,1.08,.02,.29,.45-.15,.67-.44,.86-1.25,.8-1.9,2.06-2.55,3.31-1.03,1.98-2.14,3.91-3.44,5.72-.63,.88-1.27,1.74-2.18,2.36-.17,.12-.43,.24-.35,.5,.07,.24,.33,.28,.55,.33,1.27,.29,2.43,0,3.49-.73,1.93-1.34,3.16-3.22,4.06-5.33,1.23-2.91,1.97-6,3.26-8.89,.19-.43,.28-.94,.82-1.13,1.42-.24,2.64,.48,3.51,1.3,1.85,1.74,3.61,1.75,5.86,.85,2.05-.82,4.31-1.13,6.57-1.09,1.83,.04,3.54,.51,5.22,1.16,.15,.3,.43,.76-.27,.47-1.52-.63-3.1-.96-4.72-1.07-1.7-.12-3.35,.36-5,.67-2.39,.45-4.51,1.57-6.69,2.55-.87-.23-1.29-1.06-2.02-1.51-1.39-.85-1.98-.71-2.68,.78-.51,1.08-.64,2.27-.9,3.42Z"/>
  <path class="cls-26" d="M19.92,8.54c-1.27,2.56-2.11,5.29-3,7.99-.7,2.13-1.62,4.14-3.07,5.86-1.24,1.48-2.68,2.66-4.78,2.63-.74-.01-1.36-.24-2-.74,3.21-2.32,4.78-5.78,6.61-9.06,.68-1.22,1.29-2.52,2.68-3.16,.19-.09,.44-.22,.21-.49-.19-.23-.42-.08-.6,.04-.92,.64-1.72,1.4-2.27,2.4-1.2,2.17-2.31,4.4-3.76,6.42-.75,1.05-1.53,2.07-2.59,2.87-.5,.38-.94,.47-1.5,.38,.1-.65,.65-.97,1.07-1.36,2.25-2.11,4.14-4.48,5.31-7.36,.61-1.51,1.7-2.66,2.87-3.73,.21-.19,.53-.46,.75-.42,1.22,.21,1.77-.58,2.39-1.38,.41-.53,.91-.99,1.68-.88Z"/>
  <path class="cls-20" d="M31.48,44.37c.64-.27,1.33-.26,1.97-.14,2.81,.52,5.52,.01,8.18-.8,1.94-.59,3.88-1.2,5.7-2.13,.38,1.18-.19,2.62-1.39,3.42-2.7,1.8-5.69,2.84-8.89,3.34-1.4,.22-2.79,.34-4.2,.05-1.15-.24-2.18-.71-3.1-1.43-.02-.15-.05-.31-.07-.46,.26-.95,.83-1.59,1.79-1.85Z"/>
  <path class="cls-6" d="M29.91,42.32c-.02,.78-.51,1.37-.84,2.01-.35,.68-.56,1.35-.45,2.11,.02,1.11,.43,2.15,.59,3.24,.16,1.07,.03,2.08-.56,2.97-.51,.78-1.31,1.22-2.27,1.12-1.25-.13-1.91-1.07-2.36-2.07-.52-1.14-.75-2.38-.37-3.65,.13-.42,.15-.9-.37-1.15,.05-.14,.15-.23,.26-.33,.36-.47,.4-1.08,.67-1.59,.59-.92,1.43-1.56,2.32-2.15,.74-.42,1.52-.74,2.34-.96,.47-.13,.88-.12,1.04,.46Z"/>
  <path class="cls-12" d="M29.76,46.68c1.09,0,1.8,.9,2.85,1.11,2.09,.41,4.12,.12,6.13-.34,2.26-.52,4.4-1.4,6.44-2.56,1.47-.84,2.05-2.03,2.17-3.58,.46-.31,.87-.74,1.5-.66,.39,.92,.88,1.82,.72,2.88-.22,.08-.22,.27-.22,.45-1.67,1.93-3.97,2.87-6.2,3.89-3.65,1.66-7.44,2.24-11.39,1.28-.24,.14-.46,0-.68-.07-.65-.68-1.41-1.3-1.3-2.39Z"/>
  <path class="cls-30" d="M31.06,70.51c.17,.3,.26,.62,.21,.96-.13,.94,.53,1.17,1.21,1.24,.93,.08,.44-.72,.6-1.12,.04-.09,.08-.19,.28-.63,.17,2.43,1.75,2.03,3.1,2.01,1.43-.03,1.89-1.32,2.6-2.21,1.33-1.66,1.58-3.72,1.8-5.74,.3-2.79,.71-5.57,.69-8.38,0-.27-.06-.71,.36-.65,.38,.05,.32,.46,.25,.74-.32,1.25-.11,2.51-.16,3.76,.28,1.92-.15,3.82-.27,5.72-.06,1.01,.05,2.09-.63,2.98-.48,1.4-.76,2.89-1.58,4.16-1.58,.91-3.36,.94-5.09,1.16-1.73,.23-3.14-.5-4.42-1.59-.32-.27-.58-.58-.46-1.05,.2-.5,.6-.83,.94-1.21,.17-.12,.34-.25,.57-.14Z"/>
  <path class="cls-11" d="M21.95,35.5c-.32,2.31-1.9,4.1-4.71,3.13-.48,.05-.5-.37-.67-.64-.87-.57-.86-1.51-.61-2.26,.27-.77,1.15-1.03,1.97-1.14,.13-.3,.39-.43,.69-.49,.93-.23,1.85-.36,2.76,.09,.21,.11,.37,.28,.5,.49,.15,.26,.23,.53,.07,.82Z"/>
  <path class="cls-31" d="M31.06,49.07c.27-.4,.45,.05,.68,.07,0,.43-.01,.86-.02,1.3,.29,1.36,.15,2.73,.08,4.08-.1,1.88-.14,3.76-.28,5.64-.11,1.48-.41,2.92-.89,4.32,.09,.87-.3,1.23-1.17,1.14-1.43-.14-2.63,.3-3.53,1.46-.3,.38-.62,.82-.35,1.32,.33,.62,.72,.14,1.11-.01,.6-.22,.56,.26,.57,.62,0,.31,.01,.65,.36,.73,.35,.09,.62-.15,.87-.39,.27-.25,.24-.97,.78-.74,.46,.2,.15,.8,.22,1.22,.02,.15,.01,.3,.02,.44,.59,.46,.61,.91-.01,1.35-1.23,.15-2.26-.37-3.33-.88-1.44-.68-1.41-3.63-.21-4.62,.82-.68,1.72-1.11,2.8-.96,.95,.13,1.28-.17,1.47-1.2,.43-2.32,.61-4.63,.63-6.97,.19-.46,0-.95,.15-1.42,.02-2.17,.04-4.34,.05-6.51Z"/>
  <path class="cls-24" d="M16.57,37.98c.22,.21,.44,.43,.67,.64,.58,1.26,1.18,2.38,2.97,1.86,.39-.11,.99,.52,1.49,.81,.14,.11,.4,.29,.29,.41-1.1,1.33,.14,2.2,.61,3.2,.19,.4,.58,.66,.84,1.02,.19,.26,.58,.54,.18,.93-.11,.01-.23,.03-.34,.04-1.59-1.22-2.56-2.77-2.48-4.85,.01-.33-.06-.66-.47-.5-.99,.38-1.8,.22-2.6-.52-.9-.85-1.3-1.82-1.16-3.04Z"/>
  <path class="cls-26" d="M69.45,68.14c-.61,1.36-1.55,2.39-3.08,2.58-1.02,.12-1.88-.45-2.5-1.21-.58-.7,.21-1.26,.39-1.89,1.01,1.15,2.7,1.45,4.49,.78,.23-.09,.47-.17,.7-.26Z"/>
  <path class="cls-23" d="M29.5,71.63c.28-.45,.26-.9,.01-1.35,.6-1.82,1.85-2.86,3.74-3.11,.47-.06,.5-.38,.48-.72-.14-2.7,.28-5.39,.19-8.08-.04-1.21-.22-2.42-.18-3.64,0-.24-.18-.74,.43-.51,.54,2.99,.69,6.01,.44,9.04-.08,.96-.08,1.92-.19,2.88-.12,1.02-.54,1.66-1.63,1.93-1.46,.36-2.13,1.32-2.16,2.69-.31,.42-.56,.9-1.08,1.1-.02-.08-.03-.15-.05-.23Z"/>
  <path class="cls-32" d="M18.58,34.35c-.21,.08-.43,.15-.64,.23-.12-1.33-.02-2.61,.84-3.71,.48-.62,.16-1.23,.05-1.84,.08,0,.16,0,.25-.01,.72,.42,.75,1.11,.73,1.83-.78,1.04-.81,2.34-1.23,3.51Z"/>
  <path class="cls-10" d="M18.53,23.68c0,1.18,0,2.37,0,3.55-.28-1.18-.29-2.37,0-3.55Z"/>
  <path class="cls-10" d="M31.01,55.58c0,.48,.16,.97-.15,1.42,.02-.47-.18-.97,.15-1.42Z"/>
  <path class="cls-10" d="M63.18,72.77c.37,0,.73,.01,1.1,.02-.37,.26-.74,.28-1.1-.02Z"/>
  <path class="cls-2" d="M37.83,25.91c1.27,2.05,1.37,4.14,.13,6.24-.78,1.32-1.83,1.66-3.28,1.15-.48,.07-.74-.29-.98-.58-1.6-1.95-1.08-5.85,.96-7.31,1.31-.93,2.31-.77,3.16,.51Z"/>
  <path class="cls-5" d="M37.83,25.91c-1.76-1.28-3.18-.9-4.14,1.09-1.13,2.35-.76,4.75,.99,6.29-1.52,.16-2.47-.72-3.17-1.88-.93-1.56-1.19-3.28-.94-5.08-.26-1.36,.34-2.46,1.34-3.2,1.05-.78,2.35-.66,3.5-.11,1.01,.48,1.87,1.2,2.33,2.29-.02,.21,.29,.37,.08,.6Z"/>
  <path class="cls-4" d="M18.8,16.08c-.41-1.18,.74-4.43,1.76-5.03,.38-.23,.7-.08,1.03,.09,1.11,.53,2.04,1.29,2.81,2.25-.81,1.36-1.99,2.43-2.93,3.69-.28,.38-.63,.43-1.04,.12-.52-.4-1.09-.74-1.63-1.11Z"/>
  <path class="cls-7" d="M19.73,30.81c-.22-.6-.43-1.2-.65-1.79,.04-1.07,.1-2.14,.75-3.06,.24-.91,.86-1.54,1.61-2.03,1.63-1.06,3.17-.53,4.13,1.4,.09,.32,.19,.65,.17,.99v.25c.07,.33,.21,.67-.13,.95-.57-.15-.67-.75-1.04-1.1-.81-.76-1.42-.78-2.2,.01-1.18,1.19-1.21,3.63-.06,5.04,.19,.23,.45,.39,.56,.68-.12,.75-.65,.72-1.16,.54-.92-.33-1.62-.94-1.99-1.88Z"/>
  <path class="cls-4" d="M46.87,18.5c-.35,.09-.66-.04-.95-.22-1.55-.96-2.66-4.6-1.89-6.23,.28-.59,.67-.51,1.05-.11,1.15,1.2,2.07,2.51,2.05,4.27,0,.63,0,1.26,0,1.89,.09,.25-.04,.35-.26,.4Z"/>
  <path class="cls-27" d="M23.62,46.86c.12-.52-.33-.7-.6-.98-.73-.76-1.31-1.61-1.59-2.63-.15-.54-.63-1.2,.4-1.43-.05-.17-.09-.35-.14-.52,2.81,1.1,5.37,.47,7.8-1.11,.09,.08,.12,.19,.11,.31-.87,1.32-2.25,1.75-3.67,2.1-.98,.19-1.98,.05-3.05,.07,.2,1.01,1.14,1.54,1.46,2.41-.18,.62-.22,1.3-.73,1.78Z"/>
  <path class="cls-35" d="M37.75,25.31c-.92-.88-1.74-1.95-3.03-2.27-2.35-.59-3.96,.74-4.14,3.3-.43-1.39,.07-2.99,1.29-3.57,1.12-.53,2.29-.93,2.75-2.44,.47,.96-.1,1.39-.36,1.9,1.2,.74,1.74-.36,2.47-.97q.04,.77-.7,1.67,1.11,.93,2.59-.37c.06,1.1-1.37,1.64-.87,2.75Z"/>
  <path class="cls-25" d="M51.65,26.89c-1.09-.5-1.39-1.6-1.88-2.54-1.15-2.25-1.3-4.75-1.79-7.17-.22-1.08-.52-2.15-.9-3.2-.71-1.96-2.16-2.81-4.11-3.03-.14-.02-.27-.06-.51-.12,.36-.46,.77-.33,1.13-.27,2.3,.41,3.54,1.85,4.22,4.04,.69,2.24,.88,4.56,1.4,6.82,.46,1.97,1.33,3.74,2.43,5.46Z"/>
  <path class="cls-34" d="M25.48,25.46c-1.33-1.85-2-2.18-3.53-1.53-.92,.4-1.49,1.26-2.12,2.01-.03-.49-.16-.9-.6-1.22-.2-.14-.74-.41-.21-.83,.22,.19,.43,.39,.67,.56,.39,.27,.68,.04,.96-.24,.35-.35,.02-.5-.17-.7-.19-.21-.46-.4-.3-.78,.2-.08,.29,.11,.41,.2,.41,.29,.79,.83,1.33,.38,.43-.37-.27-.63-.24-1,0-.11,.03-.21,.09-.67,.64,1.24,1.65,1.46,2.61,1.84,.82,.32,1.27,1.07,1.31,2-.08,.08-.15,.08-.23,0Z"/>
  <path class="cls-36" d="M35.03,18.76c-.5-.09-.89,.16-1.26,.49-.18,.17-.39,.22-.58,0-.19-.21-.11-.4,.07-.58,.69-.69,1.43-1.4,2.48-1.21,1.1,.19,1.73,1.06,2.22,2,.1,.19,.13,.48-.11,.6-.26,.13-.5-.06-.69-.25-.59-.58-1.19-1.12-2.13-1.05Z"/>
  <path class="cls-16" d="M21.95,35.5c-.07-.23-.14-.46-.21-.68,.64-.6,1.36-1.13,1.95-1.79,.28-.31,.55-.6,.6-1.03,.78-.9,1.17-1.96,1.27-3.14,.09-.15,.21-.25,.39-.27,.62,.14,.45,.61,.36,.98-.63,2.58-2.18,4.49-4.36,5.94Z"/>
  <path class="cls-37" d="M25.91,42.41c1.32-.43,2.59-.97,3.59-1.99,.37-.27,.51-.03,.63,.27-.08,.54-.15,1.09-.23,1.63-.25-.31-.5-.42-.92-.23-.78,.36-1.59,.65-2.38,.97-.3-.14-.75-.13-.69-.65Z"/>
  <path class="cls-25" d="M46.87,18.5c.09-.13,.17-.26,.26-.4,.46,.83,.38,1.78,.53,2.67,.36,2.04,1.36,3.8,2.36,5.56-.15,.08-.3,.15-.45,.23-.86-1.78-1.95-3.46-2.29-5.46-.15-.87-.27-1.74-.41-2.61Z"/>
  <path class="cls-17" d="M43.88,10.09c1.06-.78,2.24-.88,3.32-.28,1.6,.89,2.33,2.48,2.94,4.12-.94-.97-1.47-2.23-2.44-3.18-1.15-1.13-2.46-.86-3.82-.66Z"/>
  <path class="cls-33" d="M19.47,21.65c.02-.99,.8-1.51,1.32-2.2,.94-.55,1.7-.16,2.48,.53-1.63-.2-2.53,1.14-3.8,1.66Z"/>
  <path class="cls-25" d="M30.13,40.69c-.19-.15-.34-.37-.63-.27,0-.08,0-.16,0-.24,.33-.29,.66-.58,.99-.87,.54-.47,1.13-.94-.13-1.74,1.16,.11,1.67,.49,1.93,1.23-1.21,.1-1.7,.97-2.15,1.88Z"/>
  <path class="cls-29" d="M25.95,28.58c-.06,.08-.12,.17-.18,.25-.44-.4-.51-.86-.22-1.37,.27-.26,.12-.6,.19-.9,.41,.64,.11,1.35,.21,2.02Z"/>
  <path class="cls-14" d="M25.48,25.46c.08,0,.16,0,.23,0,.29,.27,.33,.55,.03,.85-.16-.26-.3-.52-.26-.84Z"/>
  <path class="cls-28" d="M41.09,69.18c.23-2.73,.46-5.46,.71-8.19,.02-.18,.13-.34,.19-.51,.74-.99,1.23-2.14,2.27-2.95,2.94-2.28,5.79-1.7,8.36,.32,.58,.46,1.12,.95,1.67,1.44,.21,.19,.5,.41,.33,.75-.17,.34-.52,.17-.8,.2-.9-.46-1.6-1.18-2.38-1.78-3.83-2.93-7.27-.31-8.37,2.97-.66,1.97-.1,3.72,.63,5.49,.15,.36,.5,.68,.3,1.13,.05,.53-.06,.91-.71,.94-.73,.04-1.41,.81-2.2,.17Z"/>
  <path class="cls-28" d="M30.63,70.76c-.71-.18-.46-.64-.27-1.03,.56-1.17,1.46-1.95,2.78-2.09,.54-.06,.77-.26,.83-.81,.31-2.97,.63-5.92,.28-8.92-.14-1.2-.25-2.45-.07-3.68,.49-.03,.38,.52,.67,.68,.55,3.74,.68,7.48,.3,11.24-.13,1.28-.49,2.39-2.06,2.55-.97,.1-1.51,.85-2.02,1.59,0,.07,0,.14,0,.22-.14,.08-.29,.17-.43,.25Z"/>
  <path class="cls-28" d="M30.63,64.48c.76-2.87,.57-5.84,.82-8.76,.11-1.29,.04-2.59,.06-3.88,0-.48-.05-.97,.22-1.4,.39-.03,.58,.32,.89,.45,.79,.46,1.24,1.18,1.56,2.01,.04,.17,.17,.4,.11,.51-.14,.24-.4,.16-.57,0-.47-.47-.92-.95-1.43-1.49-.21,.42-.1,.86-.12,1.27-.09,3.28-.09,6.57-.9,9.79-.13,.53-.21,1.1-.64,1.51Z"/>
  <path class="cls-18" d="M44,68.06c-.48-.92-.88-1.87-1.23-2.85-1.29-3.72,1.71-7.71,4.79-8.18,.95-.15,1.87,.05,2.67,.48,1.33,.72,2.62,1.53,3.59,2.74-.17,.66-.4,.15-.56,.01-.99-.83-1.98-1.64-3.11-2.3-2.53-1.47-5.26,.03-6.36,2.35-1.15,2.44-.86,4.8,.5,7.08,.14,.23,.44,.47,.2,.78-.04,.06-.33-.07-.5-.11Z"/>
  <path class="cls-15" d="M31.06,70.29c.31-1.18,1.15-1.81,2.28-1.96,.84-.11,1.2-.4,1.32-1.28,.45-3.27,.59-6.53,.22-9.82-.09-.77-.03-1.55-.04-2.33,0-.04,0-.08,.02-.11,.05-.12,.17-.17,.19-.03,.14,1.1,.26,2.2,.36,3.3,.28,2.94,.43,5.88-.11,8.82-.19,1.04-.71,1.78-1.81,1.97-1,.17-1.71,.81-2.44,1.45Z"/>
  <path class="cls-22" d="M34.18,52.9c-.65-.57-1.07-1.32-1.56-2.01,.06-.21-.13-.62,.31-.54,.42,.08,1.36,2.09,1.25,2.55Z"/>
  <path class="cls-13" d="M25.91,42.41c.23,.22,.46,.44,.69,.65-.81,.6-1.58,1.26-2.25,2.01-.87-.49-1.32-1.33-1.76-2.16-.16-.3-.33-.85,.38-.65,.98,.28,1.97,.03,2.94,.14Z"/>
  <path class="cls-1" d="M24.71,50.97c-.63-.9-.74-1.84-.25-2.83,.03,.95,.29,1.88,.25,2.83Z"/>
  <path class="cls-26" d="M19.73,30.81c.65,.51,1.07,1.3,1.92,1.57,.44,.14,.84,.27,1.2-.13,.29-.27,.48-.06,.68,.14-.25,1.15-1.32,1.45-2.11,2.05-.94-.41-1.89-.26-2.84-.08-.06-1.33,.03-2.6,1.14-3.55Z"/>
  <path class="cls-3" d="M21.43,34.44c.44-.93,1.58-1.14,2.07-2.02,.23-.31,.52-.43,.89-.26,.05,.09,.16,.24,.13,.27-.81,.93-1.5,2-2.77,2.38-.11-.12-.21-.25-.32-.37Z"/>
  <path class="cls-8" d="M35.48,28.37c.42,.04,.7,.25,.7,.7,0,.39-.23,.62-.62,.64-.39,.03-.65-.17-.7-.56-.06-.44,.19-.69,.62-.78Z"/>
  <path class="cls-21" d="M36.84,29.47c-.21-.02-.35-.2-.35-.35-.01-.17,.15-.32,.36-.32,.18,0,.25,.12,.25,.28,0,.19-.02,.36-.26,.39Z"/>
  <path class="cls-2" d="M24.38,32.16c-.3,.09-.59,.17-.89,.26-.21-.06-.43-.11-.64-.17-1.95-.8-2.22-4.59-.7-6.1,.91-.9,2.02-.83,2.83,.25,.24,.32,.38,.71,.57,1.06,.07,.46,.15,.91,.22,1.37-.02,1.29-.35,2.46-1.39,3.33Z"/>
  <path class="cls-19" d="M24.56,28.5c-.14,.13-.23,.26-.35,.3-.15,.05-.29-.03-.3-.21-.02-.22,.08-.39,.29-.38,.11,0,.21,.17,.36,.29Z"/>
  <path class="cls-9" d="M23.11,29.7c-.07-.08-.24-.2-.22-.29,.02-.15,.13-.37,.36-.29,.1,.04,.2,.21,.22,.33,.03,.18-.13,.23-.35,.25Z"/>
  <path class="cls-10" d="M23.74,28.1c-.18,.1-.3,.24-.4,.22-.11-.02-.3-.22-.28-.27,.05-.14,.14-.36,.36-.28,.11,.04,.18,.18,.32,.33Z"/>
</svg>