<?xml version="1.0" encoding="UTF-8"?>
<svg id="Calque_1" data-name="Calque 1" xmlns="http://www.w3.org/2000/svg" viewBox="0 0 80 80">
  <defs>
    <style>
      .cls-1 {
        fill: #f8b683;
      }

      .cls-2 {
        fill: #fac6a1;
      }

      .cls-3 {
        fill: #ed7006;
      }

      .cls-4 {
        fill: #ec6809;
      }

      .cls-5 {
        fill: #ec6709;
      }

      .cls-6 {
        fill: #ec670a;
      }

      .cls-7 {
        fill: #fcfcfc;
      }

      .cls-8 {
        fill: #ef7803;
      }

      .cls-9 {
        fill: #ef7802;
      }

      .cls-10 {
        fill: #c65c2a;
      }

      .cls-11 {
        fill: #c65c2b;
      }

      .cls-12 {
        fill: #c95f2d;
      }

      .cls-13 {
        fill: #1d1510;
      }

      .cls-14 {
        fill: #371c15;
      }

      .cls-15 {
        fill: #2a1301;
      }

      .cls-16 {
        fill: #3a1f18;
      }
    </style>
  </defs>
  <path class="cls-6" d="M34.33,14.22c1.06-2.09,2.39-3.97,4.15-5.52,2.53-2.24,5.45-3.45,8.84-3.83,2.85-.32,5.53,.09,8.2,.92,.29,.19,.69,.19,.91,.51,1.43,.97,2.85,1.94,3.98,3.28,.7,.83,1.06,1.82,1.63,2.71,.28,.32,.29,.75,.47,1.11,.47,1.95,.94,3.9,1.4,5.86,.12,.52,.28,1.05-.26,1.46-.37-.15-.78-.23-1.13-.44h.01c-.82-.11-1.61-.51-2.46-.22-.98,.39-1.98,.75-2.79,1.43-2.08,1.75-3.61,3.91-4.58,6.45-.4,1.04-.25,2.13-.15,3.2,.12,.59,.23,1.19,.41,1.76l.12,.43c.43,.24,.47,.74,.74,1.09,1.28,1.66,2.52,3.36,4.11,4.74,.5,.3,.86,.76,1.31,1.13,2.29,2.28,4.2,4.8,5.02,8.02,.15,.58,.03,1.14,.21,1.69,.14,1.3,.16,2.6,0,3.9-.73,4.34-3.02,7.75-6.11,10.78-1.83,1.8-4.02,2.81-6.33,3.68-.47,.18-1.02-.13-1.44,.28-.48,.29-1.05-.06-1.54,.21h.01c-.68,.2-1.37,.18-2.05,0-.48-.13-.95-.19-1.43,0-1.31,.43-2.62,.87-3.93,1.3-.59,.49-1.3,.31-1.95,.28-1.03-.04-2.03-.31-2.99-.7-.64-.39-1.35-.69-1.74-1.4-.15-.28-.41-.19-.65-.11-1.4,.61-2.85,.63-4.33,.4-.37,.06-.81-.18-1.11,.22-1.19,1.07-2.56,1.53-4.16,1.24-.11-.05-.17-.14-.19-.26,.19-.4,.59-.35,.93-.41,1.16-.21,2.22-.62,2.98-1.56,.42-.52,.9-.49,1.45-.27,.97,.4,1.96,.41,2.96,.14,1.1-.3,1.2-.46,.9-1.59-.05-.21-.11-.42-.13-.63-.04-.84-.06-1.67,.37-2.44,.24-.22,.39-.06,.48,.15,.16,.34,.13,.71,.13,1.06,.06,2.64,2.22,4.88,4.86,4.92,3.26,.05,6.26-.69,8.34-3.46,1.28-1.7,1.89-3.71,2.27-5.79,.58-3.19,.06-6.3-.99-9.26-.88-2.47-2.73-4.32-5.05-5.57-.64-.35-.95-.73-.88-1.42,.19-1.99-.85-3.34-2.25-4.54-.37-.32-1.17-.58-.5-1.33,1.81,.55,3.01,1.87,3.38,3.59,.34,1.59,1.01,2.6,2.36,3.5,3.26,2.16,4.72,5.64,6.11,9.12,.29,.73,.51,1.5,.73,2.27,.28,.99,.85,1.18,1.71,.62,.77-.5,1.13-1.28,1.39-2.13,.87-2.75,.44-5.39-.41-8.08-.88-2.76-2.22-5.35-2.93-8.15-.65-2.55-1.31-5.1-1.74-7.7-.1-.6,0-1.15,.36-1.65,.79-2.26,1.91-4.34,3.37-6.26,1.14-1.51,2.61-2.58,4.25-3.44,.99-.53,2.09-.48,3.17-.23,.45,.11,.74,.05,.65-.49-.46-2.71-.9-5.44-2.32-7.84-1.8-3.04-4.76-4.39-8.08-5.08-1.6-.33-3.21-.4-4.83-.15-6.55,.61-10.48,4.59-13.08,10.24-.72,1.57-1.48,3.13-2.08,4.76-.27,.74-.14,1,.71,1.05,2.12,.11,4.25,.15,6.3,.83,.59,.2,1.1,.06,1.65-.22,1.15-.59,2.24-1.3,3.46-1.74,.31,.19,.83-.22,1.02,.34,.03,.59-.33,1.02-.62,1.46-.71,1.1-1.16,2.31-1.62,3.52-.36,.96,.02,1.92,.09,2.88,.09,1.21,.31,2.42-.12,3.62-.21,.16-.43,.17-.66,.08-.39-.32-.33-.78-.32-1.2,.01-1.45-.01-2.89-.26-4.32-.06-.36-.12-.74,.05-1.07,.65-1.28,1.05-2.68,1.81-3.89-1.24,.49-2.31,1.58-3.63,1.75-1.32,.17-2.65-.55-4.01-.73-1.29-.18-2.57-.4-3.87-.33-.89,.05-1.51-.33-1.96-1.09-.44-.74-.89-1.48-1.54-2.23-.3,1.2-.44,2.33-.53,3.46-.07,.88-.43,1.5-1.17,1.94-2.38,1.43-4.41,3.24-6.18,5.37-.87,1.05-1.59,2.14-2.01,3.43-.1,.31-.18,.63-.47,.84-.17,.07-.34,.05-.49-.06-.22-.81,.25-1.47,.48-2.18,.89-1.67,2.18-3.02,3.47-4.37,.31-.39,.66-.74,1.05-1.05,1.29-1.16,2.67-2.18,4.15-3.08,.45-1.55,.42-3.18,.88-4.72h0c.19-.25,.02-.65,.33-.86,.25-.13,.49-.1,.74,0,.37,.98,1.13,1.72,1.65,2.61,.28,.47,.6,.6,.84-.11,.64-1.91,1.34-3.79,2.3-5.56,.25-.23,.29-.56,.42-.85Z"/>
  <path class="cls-6" d="M24.02,70.6c-2.68-1.25-3.97-3.53-4.64-6.28-.25-.41,.05-.91-.2-1.32v.02c-.2-1.81-.21-3.62,.01-5.42,.06-1.12,.51-2.11,1.04-3.06,.19-.34,.2-.44-.11-.62-1.87-1.05-2.84-2.76-3.38-4.75-.41-1.52,.02-2.61,1.35-3.55,.37-.3,.86-.19,1.26-.38,.73-.72,1.37-1.54,2.4-1.9,.59-.2,.38-.51,.04-.82-1.38-1.26-2.45-2.74-3.24-4.43-.16-.29-.32-.57-.26-.92,.2-.15,.41-.15,.63-.06,.12,.08,.24,.17,.29,.31,.78,2.17,2.42,3.68,4.02,5.22,.1,.1,.17,.23,.21,.37,.07,.46-.22,.64-.59,.76-.31,.09-.63,.16-.9,.34-.5,.32-1.3,.58-1.19,1.21,.09,.5,.76,.9,1.41,.98,.37,.29,.47,.68,.41,1.12-.29,.56-.64,.3-.97,.06-.38-.28-.67-.65-1.09-.88-.74-.41-1.49-.54-2.24-.02-.76,.52-.9,1.3-.7,2.11,.56,2.35,1.7,4.2,4.28,4.74,.24,.05,.5,.09,.67,.31,.1,.22,.1,.43-.03,.64-1.43,.07-1.89,1.12-2.21,2.25-1.19,4.2-.63,8.11,2.03,11.65,.42,.56,.93,.99,1.63,1.18,.28,.08,.54,.2,.66,.5h0c.2,.58-.14,.65-.58,.64Z"/>
  <path class="cls-11" d="M36.73,69.76c.31-.05,.6-.17,.94-.03,1.29,.54,2.65,.46,4.01,.45,.45,.55,.98,1.05,1.21,1.75,.22,.67,.22,1.33-.31,1.9-.41,.27-.85,.13-1.28,.1-.07-.02-.16-.02-.2-.07-.77-.95-1.41-.85-2.07,.17-.36,.55-.72,.27-.92-.23-.08-.2-.15-.4-.21-.6-.06-.19,.02-.44-.18-.58-.23-.07-.29,.15-.43,.23-.46,.26-.9,.82-1.5,.34-.58-.46-.39-1.1-.23-1.67,.2-.69,.74-1.19,1.17-1.74Z"/>
  <path class="cls-11" d="M24.02,70.6c.22-.18,.59-.24,.58-.63,1.58,.2,2.92-.53,4.3-1.09,.67,.35,.97,1.04,1.43,1.58,.29,.34,.47,.78,.19,1.29-.3,.52-.73,.62-1.26,.59-.53-.03-1.03-.22-1.26,.62-.19,.67-.89,.62-1.22-.09-.39-.82-.74-.97-1.33-.18-.4,.54-.95,.98-1.64,.57-.71-.43-.45-1.09-.21-1.7,.13-.33,.29-.64,.43-.96Z"/>
  <path class="cls-16" d="M18.85,37.21h-.56c-.12,.11-.18,.08-.18-.09-.17-.1-.36-.19-.51-.32-1.21-1.06-1.15-1.65,.26-2.41,.06-.11,.13-.11,.2,0,.15,0,.3,0,.45,0,1.17-.39,2.23,.1,2.59,1.19-.36,1.08-1.19,1.51-2.25,1.63Z"/>
  <path class="cls-12" d="M29.13,18.14c-.22,.13-.44,.1-.65-.02-.14-.1-.05-.32-.21-.41-.23-.17-.17-.44-.22-.67-.25-.32-.34-.75-.65-1.04-.25-.66-1.07-.94-1.18-1.74q1.41,.37,1.21-1.13c0-.07-.01-.14-.02-.21-.1-.63,.16-.68,.63-.38-.09,.34,.13,.62,.17,.94,.05,.43,.02,1,.44,1.12,.43,.12,.72-.39,.93-.75,.12-.21,.2-.27,.39-.15,.19,.12,.14,.27,.07,.45-.2,.53-.63,.96-.69,1.55-.16,.69-.14,1.38,0,2.08-.07,.12-.14,.25-.2,.37Z"/>
  <path class="cls-7" d="M28.07,19c-.38,1.56-.23,3.22-.88,4.72,.25-1.58,.19-3.22,.88-4.72Z"/>
  <path class="cls-7" d="M19.19,57.59c-.15,1.81-.15,3.62,0,5.42-.55-1.23-.14-2.53-.22-3.79-.03-.54-.25-1.15,.22-1.64Z"/>
  <path class="cls-7" d="M30.01,68.66c1.46,.09,2.92,.09,4.33-.4-1.37,.89-2.84,.75-4.33,.4Z"/>
  <path class="cls-7" d="M64.49,53.91c0-1.3,0-2.6,0-3.9,.34,1.3,.34,2.6,0,3.9Z"/>
  <path class="cls-7" d="M45.6,68.87c.69-.48,1.38,0,2.07,0,.47,0,.94,0,1.41-.02-.6,.45-1.29,.27-1.92,.17-.52-.08-1.04-.15-1.56-.16Z"/>
  <path class="cls-7" d="M18.07,34.38l-.1,.03-.1-.02c-.02-.79,.1-1.55,.65-2.17-.02,.75-.57,1.38-.45,2.16Z"/>
  <path class="cls-7" d="M60.09,20.06c.86-.39,1.66-.08,2.46,.23-.82-.08-1.64-.15-2.46-.23Z"/>
  <path class="cls-7" d="M59.26,40.3c-.54-.25-.91-.71-1.31-1.13,.67,.1,1.01,.59,1.31,1.13Z"/>
  <path class="cls-7" d="M52.98,32.91c-.31-.55-.4-1.15-.41-1.76,.31,.55,.45,1.14,.41,1.76Z"/>
  <path class="cls-7" d="M23.03,26.8c-.27,.42-.63,.77-1.05,1.05,.13-.57,.48-.92,1.05-1.05Z"/>
  <path class="cls-7" d="M29.33,17.77c-.21-.69-.32-1.39,0-2.08,0,.69,0,1.39,0,2.08Z"/>
  <path class="cls-7" d="M53.85,34.43c-.36-.29-.51-.71-.74-1.09,.58,.13,.67,.61,.74,1.09Z"/>
  <path class="cls-7" d="M19.34,45.24c-.36,.33-.85,.22-1.26,.38,.3-.52,.81-.35,1.26-.38Z"/>
  <path class="cls-7" d="M28.04,12.54c-.41-.21-.64-.1-.63,.38-.29-.23-.28-.45,.03-.65,.32-.21,.51-.07,.6,.27Z"/>
  <path class="cls-7" d="M49.07,68.86c.48-.34,1.03-.14,1.54-.21-.46,.43-1.02,.15-1.54,.21Z"/>
  <path class="cls-7" d="M28.27,17.71c.21,.06,.12,.28,.21,.41-.14,.29-.28,.59-.41,.88-.09-.46,.12-.87,.21-1.29Z"/>
  <path class="cls-7" d="M27.4,16c.4,.23,.56,.61,.65,1.04-.42-.22-.55-.62-.65-1.04Z"/>
  <path class="cls-7" d="M19.18,63c.24,.41,.15,.88,.2,1.32-.39-.39-.16-.88-.2-1.32Z"/>
  <path class="cls-7" d="M41.29,73.92c.43-.03,.85-.07,1.28-.1-.4,.42-.83,.32-1.28,.1Z"/>
  <path class="cls-7" d="M62.54,20.28c.43,0,.78,.22,1.13,.44-.45,.04-.85-.05-1.13-.44Z"/>
  <path class="cls-7" d="M62.52,13.39c-.28-.31-.36-.72-.47-1.11,.44,.25,.5,.66,.47,1.11Z"/>
  <path class="cls-7" d="M34.33,14.22c0,.36-.08,.67-.42,.85,.03-.34,.15-.63,.42-.85Z"/>
  <path class="cls-7" d="M56.43,6.3c-.32-.13-.68-.2-.91-.51,.39,0,.75,.07,.91,.51Z"/>
  <path class="cls-7" d="M18.12,37.12c.07,0,.12,.03,.18,.07,.08,.3,.17,.59,.25,.89-.33-.24-.46-.57-.43-.97Z"/>
  <path class="cls-3" d="M44.73,20.73c-1.25,.7-2.49,1.41-3.77,2.07-.36,.19-.75,.38-1.23,.2-2.26-.83-4.64-.88-7.01-.95-.81-.03-1.02-.21-.72-.97,1.48-3.7,2.79-7.53,5.53-10.52,2.69-2.93,5.9-5.03,10.1-5.03,1.75,.1,3.42,.52,5.01,1.25,1.45,.66,1.56,1.62,.32,2.59-.45,.36-.92,.7-1.44,.96-.46,.23-.83,.57-1.16,.96-.24,.27-.52,.57-.33,.96,.2,.4,.6,.34,.96,.28,.65-.11,1.3-.15,1.94-.03,.38,.07,.85,.12,.96,.58,.1,.44-.35,.58-.61,.8-.11,.09-.24,.16-.35,.26-.3,.26-.7,.49-.57,.96,.12,.45,.58,.34,.92,.39,.18,.03,.36,.04,.54,.08,1.19,.26,1.41,.8,.74,1.85-.27,.43-.61,.81-.85,1.25-.26,.47-.32,.86,.4,.84,.79-.01,.81,.4,.59,.99-.03,.07-.05,.14-.09,.2-1.55,2.33-2.15,5.02-2.92,7.64-.1,.33-.32,.67-.03,1.02-.39,.39-.5,.87-.39,1.38,.78,3.56,1.33,7.2,2.72,10.6,1.13,2.76,2.24,5.53,2.77,8.47,.41,2.3,.14,4.58-1.12,6.65-.28,.47-.68,.73-1.14,.94-.97,.44-1.44,.29-1.7-.74-.72-2.88-1.96-5.54-3.48-8.05-1.17-1.92-2.82-3.44-4.88-4.41-.33-.16-.57-.24-.55-.64,.13-2.67-1.4-4.34-3.46-5.68-.02-.05-.04-.09-.06-.14,.1-.42,.46-.52,.79-.65,.87-.34,1.5-.99,2.06-1.68,1.04-1.27,1.02-1.72,0-2.98,.03-1.82-.04-3.63-.38-5.44-.21-1.1,.62-2,.94-3.01,.37-1.15,1.39-1.99,1.61-3.23,.47-.65,1.25-.47,1.87-.7,.4-.15,.84-.2,1.3-.36-1.66-.27-1.75-.42-1.02-1.71-.46,.18-.88,.48-1.34,.18-.41-.26-.39-.73-.48-1.39-.32,1.08-.37,1.93-.45,2.79-.04,.46,0,.96-.56,1.18Z"/>
  <path class="cls-9" d="M21.99,46.31c-.03,.17-.04,.41-.3,.23-.21-.14-.36-.36-.56-.51-1.06-.79-1.06-.97,.02-1.77,.46-.34,.97-.63,1.54-.74,.3-.06,.58-.09,.6-.48,.64-.15,1.1,.27,1.59,.55,1.38,.77,2.49,.65,3.65-.43,.45-.42,.85-.89,1.15-1.43,.44-.79,1.09-1.24,1.99-1.3,2.51-.17,4.75-1.17,6.98-2.21,.54-.25,1.06-.66,1.73-.41,0,0,.05,.05,.05,.05-.32,.59,.22,.77,.52,1,1.65,1.24,2.76,2.74,2.49,4.93-.07,.6,.2,.78,.7,1.06,2.64,1.5,4.66,3.6,5.52,6.58,.61,2.14,1.04,4.34,.93,6.58-.15,2.96-.9,5.77-2.7,8.16-1.72,2.29-4.31,3.01-7.01,3.32-2.03,.24-3.82-.29-5.29-1.84-.86-.9-1.3-1.85-1.27-3.09,.01-.52,.2-1.08-.19-1.56-.09-.15-.03-.29,.04-.43,1.14-2.99,3.43-4.7,6.36-5.7-.64,.16-1.21,.57-1.89,.6-.47-.12-.99-.18-1.17-.76,0-.37,.25-.59,.51-.79,2.9-2.27,3.84-5.44,4.12-8.9-.2,3.96-1.71,7.24-4.95,9.65-2.33,1.9-3.84,1.77-5.79-.54-.51-.61-.99-1.24-1.39-1.93-.29-.5-.55-.52-1.01-.14-1.05,.88-1.38,.85-2.38-.12-.28-.27-.48-.49-.92-.28-.87,.43-1.27-.05-1.47-.84-.26-1.37-.16-2.68,.6-3.89,.44-.65,1.13-1.02,1.71-1.5,3.12-1.57,7.41-.27,9.35,2.82-1.52-2.52-5.11-4.04-7.93-3.39-.52,.12-1.02,.39-1.58,.24-.81-.72-1.93-1.05-2.48-2.12-.27-.52-.96-.38-1.31,.18-.22,.36-.23,.83-.58,1.13Z"/>
  <path class="cls-9" d="M20.94,35.71c-.37-1.24-1.5-1.09-2.43-1.32,.67-3.29,3.05-5.39,5.34-7.52,.81-.75,1.65-1.54,2.71-1.94,1.66-.63,1.47-2.12,1.69-3.42,.15-.84,.21-1.7,.32-2.67,.92,.42,1.29,1.29,1.67,2.02,.63,1.2,1.4,1.7,2.81,1.63,2.2-.11,4.35,.39,6.45,1.01,.47,.14,.83,.15,1.29-.13,1.15-.7,2.37-1.29,3.65-1.84-.73,1.06-.98,2.3-1.59,3.38-.46,.8-.73,1.61-.5,2.55,.4,1.63,.16,3.3,.22,4.96-.48,.64-1.21,.54-1.87,.65-.18,.03-.47-.04-.47-.18-.02-.8-.88-1.23-.94-1.91-.07-.92-.4-.64-.84-.36-1.83,1.17-3.83,1.99-5.8,2.88-3.13,1.41-6.5,1.86-9.84,2.43-.61,.1-1.3,.22-1.88-.22Z"/>
  <path class="cls-2" d="M20.94,35.71c4.65-.2,9.11-1.2,13.31-3.22,1.52-.73,3.1-1.38,4.47-2.39,.27-.2,.58-.39,.88-.19,.33,.22,.07,.51-.02,.77-.04,.14-.12,.39-.09,.4,.62,.32,1,.54,.85,1.51-.08,.49,1.17-.1,1.82-.06,.13,0,.27-.08,.41-.12,.22,0,.43,0,.65,0,1.27,.6,1.39,1.09,.74,2.34-.79,1.52-2.19,2.29-3.6,3.06-1.09,.46-2.19,.89-3.26,1.39-1.74,.81-3.53,1.37-5.45,1.53-.69,.06-1.28,.3-1.64,.99-.37,.7-.9,1.3-1.49,1.82-1.16,1.03-2.42,1.14-3.74,.35-.49-.29-1-.56-1.5-.84-1.1-.88-1.95-2.01-2.95-3-.8-.78-1.03-1.88-1.49-2.85,.68-.52,1.61-.69,2.09-1.5Z"/>
  <path class="cls-1" d="M51.67,29.35c-.74-.2-.37-.67-.26-1.07,.77-2.81,1.56-5.61,3.15-8.1,.07-.11,.08-.25,.11-.36-.26-.24-.45,0-.64,.02-.84,.09-1.12-.24-.74-.99,.25-.51,.61-.97,.96-1.43,.79-1.05,.64-1.45-.67-1.65-.28-.04-.58-.04-.86-.05-.34-.01-.66-.07-.78-.45-.11-.35,.03-.65,.26-.89,.23-.23,.47-.45,.74-.64,.26-.19,.55-.33,.92-.55-.87-.68-1.79-.58-2.68-.42-.58,.1-1.2,.32-1.53-.34-.29-.6,.25-.98,.59-1.39,.71-.86,1.79-1.19,2.61-1.89,.36-.3,.85-.49,.8-1.06-.06-.63-.58-.83-1.08-1.08-1.37-.68-2.88-.87-4.33-1.25-.2-.05-.39-.15-.59-.23,1.9-.5,3.77-.2,5.61,.25,3.45,.84,6.37,2.51,7.94,5.87,.93,1.99,1.44,4.13,1.77,6.3,.04,.25,.09,.49,.14,.74,.08,.35,.22,.78-.03,1.04-.3,.32-.64-.1-.97-.16-1.23-.23-2.41-.2-3.54,.47-1.87,1.1-3.31,2.59-4.53,4.38-1.05,1.54-1.74,3.22-2.38,4.94Z"/>
  <path class="cls-2" d="M34.26,62.79c-.04,.08-.08,.16-.12,.23-.14,.85-.37,1.68-.26,2.55-.34,.87-1.09,1.1-1.9,1.19-5.43,.56-9.76-3.24-9.85-8.72-.02-1.23-.34-2.51,.29-3.7,.02-.21,.04-.42,.06-.63,.23-.69,.93-.72,1.44-1.01,.16-.02,.31,0,.42,.13,.28,.65,.57,1.23,1.39,.52,.24-.21,.51-.23,.81,.13,1.09,1.31,1.4,1.31,2.5,.1,.47-.52,.67-.28,.96,.16,.53,.81,1.05,1.65,1.69,2.37,1.88,2.09,2.93,2.15,5.25,.45,.31-.21,.47-.01,.61,.22,.37,.2,.75,.39,1.12,.59,.08,.42-.24,.6-.52,.72-2.03,.96-3.33,2.52-3.91,4.68Z"/>
  <path class="cls-8" d="M22.43,54.35c.16,2.04-.22,4.1,.4,6.12,1.43,4.7,5.16,6.4,9.48,5.98,.62-.06,1.13-.45,1.58-.87,0,.04,0,.07,.02,.11,.58,1.89,.31,2.31-1.72,2.53-.86,.09-1.71,.04-2.51-.37-.27-.14-.59-.39-.85,0-.96,1.41-2.38,1.84-3.97,1.94-.09,0-.17,.11-.26,.18-2.48-.46-3.48-2.46-4.23-4.46-1.16-3.09-1.44-6.29-.19-9.46,.1-.26,.25-.51,.35-.78,.36-.88,.95-1.29,1.91-.91Z"/>
  <path class="cls-10" d="M44.73,20.73c.53-.84,.24-1.81,.43-2.71,.14-.62,.17-1.26,.67-1.81,.49,.57-.14,1.44,.53,1.8,.68,.37,1.04-.44,1.64-.65,.2,.54-.31,.76-.45,1.11-.09,.22-.39,.44-.2,.65,.14,.16,.47,.27,.68,.23,.45-.09,.85-.16,1.27,.34-1.25,.64-2.63,.67-3.89,1.07-.22,.03-.47,.79-.67-.02Z"/>
  <path class="cls-9" d="M23.95,52.85c-.49,.29-.97,.57-1.46,.86-3.31-.11-4.92-2.83-5.25-5.53-.12-.97,.33-1.72,1.32-2.11,1.03-.4,1.79,.07,2.59,.58,.41,.26,.49,1.16,1.29,.7,.91,.4,1.75,.86,2.07,1.9-.49,1.15-.47,2.38-.56,3.6Z"/>
  <path class="cls-14" d="M24.39,49.09c-.65-.58-1.3-1.16-1.95-1.74-.15-.35-.3-.7-.45-1.05-.04-.52,.14-.99,.4-1.41,.4-.65,1.38-.85,1.59-.29,.45,1.22,1.78,1.41,2.41,2.36,.19,.18,.37,.37,.18,.66-.4,.57-1.06,.84-1.55,1.3-.18,.15-.35,.39-.63,.17Z"/>
  <path class="cls-4" d="M37.36,40c-.16,.72-.55,.97-.97,1.18-1.25,.63-2.48,1.3-3.96,1.26-.48-.01-.88,.23-1.15,.68-.33,.55-.73,1.06-1.2,1.52-1.94,1.92-2.24,1.94-4.54,.05,.6-.21,.99,.1,1.37,.38,.85,.62,1.61,.48,2.31-.24,.27-.28,.53-.58,.78-.89,.82-1,1.5-2.1,3.09-2.12,1.54-.02,2.77-1.05,4.26-1.82Z"/>
  <path class="cls-4" d="M37.57,56.79c-.2-.07-.41-.15-.61-.22,.92-.94,2.11-1.62,2.77-2.81,1.16-2.09,2.2-4.21,2-6.71-.02-.28-.19-.79,.24-.81,.48-.01,.4,.51,.39,.85-.17,3.6-1.32,6.73-4.23,9.05-.22,.17-.38,.42-.56,.64Z"/>
  <path class="cls-4" d="M26.57,47.62c-.06-.22-.12-.44-.18-.66,1.9-.46,3.8-.77,5.7,0,1.7,.69,3.12,1.74,4.15,3.28,.14,.21,.38,.44,.08,.64-.34,.22-.39-.17-.52-.35-1.61-2.33-3.87-3.43-6.65-3.57-.92-.05-1.74,.37-2.58,.65Z"/>
  <path class="cls-6" d="M34.26,62.79c.13-1.93,1.23-3.24,2.76-4.27,.56-.37,1.3-.48,1.67-1.14,.86-.37,1.67-.91,2.68-.73-.87,.7-1.98,.88-2.92,1.45-1.82,1.09-3.26,2.45-3.94,4.5-.03,.08-.16,.13-.25,.19Z"/>
  <path class="cls-4" d="M24.39,49.09c.21-.06,.42-.11,.63-.17-.61,1.24-.72,2.57-.67,3.92-.13,0-.27,0-.4,.01-.53-1.33-.14-2.56,.44-3.76Z"/>
  <path class="cls-15" d="M30.96,30.87c-1.09,.12-1.9,.59-2.58,1.32-.17,.18-.38,.58-.67,.31-.3-.27,.05-.52,.25-.7,.67-.6,1.4-1.11,2.25-1.42,.2-.07,.41-.11,.62-.11,.38,0,.81,.11,.74,.56-.08,.5-.46-.07-.61,.04Z"/>
  <path class="cls-13" d="M22.45,40.4c2.57,2.13,4.44,1.24,5.96-1.43,.13,1.41-1.12,2.74-2.72,3.15-1.12,.29-2.77-.49-3.24-1.72Z"/>
  <path class="cls-5" d="M21.56,61.1c1.61,2.92,3.85,5.18,7.12,6.65-2.53-.03-7.21-4.46-7.12-6.65Z"/>
</svg>