<?xml version="1.0" encoding="UTF-8"?>
<svg id="Calque_1" data-name="Calque 1" xmlns="http://www.w3.org/2000/svg" viewBox="0 0 80 80">
  <defs>
    <style>
      .cls-1 {
        fill: #fcfcfc;
      }

      .cls-2 {
        fill: #fcf3eb;
      }

      .cls-3 {
        fill: #925d2d;
      }

      .cls-4 {
        fill: #6c3710;
      }

      .cls-5 {
        fill: #935e2e;
      }

      .cls-6 {
        fill: #8f4f16;
      }

      .cls-7 {
        fill: #8f5214;
      }

      .cls-8 {
        fill: #cfb095;
      }

      .cls-9 {
        fill: #a76922;
      }

      .cls-10 {
        fill: #a86a1f;
      }

      .cls-11 {
        fill: #d89240;
      }

      .cls-12 {
        fill: #a6681e;
      }
    </style>
  </defs>
  <path class="cls-3" d="M63.28,51.99c.29-.37,.3-1.04,1.01-1,.45,.11,.68,.46,.91,.82,.05,.07,.11,.13,.16,.2,.56,.33,.64,.93,.84,1.47l-.02-.03c.34,.91,.16,1.78-.2,2.64-.13,.31-.36,.59-.19,.96,.07,.04,.14,.08,.22,.12,.33,.2,.77,.15,1.04,.48,.08,.16,.22,.16,.37,.15,.42,.16,.7,.45,.87,.86,.05,.06,.1,.12,.14,.17,.74,.97,.49,1.96,.08,2.97-.15,.36-.4,.64-.65,.92v-.02c-.13,.4-.48,.6-.76,.87l-.02,.02c-.22,.21-.37,.52-.73,.56-.18,.12-.37,.25-.55,.37-.42,.41-.92,.68-1.46,.88-.13,.08-.25,.15-.38,.23-.41,.26-.84,.49-1.32,.58-.25,.08-.5,.16-.75,.25-1.03,.55-2.13,.69-3.25,.48-.6-.11-1.11-.04-1.6,.3-.24,.16-.48,.33-.73,.49-.43,.39-.94,.59-1.49,.74l.02-.02c-.57,.4-1.27,.41-1.9,.65-.67,.08-1.34,.16-2.01,.24-1.76,.52-3.58,.34-5.38,.43-3.23,.16-6.48,.18-9.7-.25-.48,.08-.88-.37-1.37-.22-.52-.12-1.03-.14-1.55,0-.31-.08-.56,.04-.79,.23-.62,.24-1.25,.45-1.91,.59l-1.81,.45c-.52,.41-1.18,.37-1.76,.45-3.02,.43-6.04,.21-9.05-.19-.21-.03-.37-.18-.55-.27-.63-.14-1.26-.29-1.89-.43-.33-.2-.75-.25-1.01-.57l-.39-.25c-.64-.82-.77-1.64-.03-2.48,.58-1.14,1.65-1.68,2.69-2.26,1.34-.87,2.85-1.23,4.41-1.44,.56-.35,1.21,.02,1.79-.22,.48-.17,.97-.17,1.45,0,.76,.12,1.51,.11,2.27,0,.3-.17,.27-.41,.2-.7-.16-.65-.22-1.31-.41-1.96-.33-.95-.38-1.95-.43-2.94-.49-1.1-.24-2.27-.27-3.41-.02-.55-.08-1.08-.23-1.6-.05-.18-.17-.29-.37-.19-.36,.26-.88,.22-1.19,.59-.42,.54-1.1,.46-1.65,.67h.02c-.31,.27-.73-.01-1.06,.2h.02c-.98,.29-1.94,.14-2.88-.18h0c-.84-.28-1.54-.73-2.04-1.48v.02c-.32-.43-.81-.73-1.02-1.26v.02c-.32-.25-.49-.61-.66-.98-.3-.66-.88-1.27-.41-2.09,.97-.77,2.17-.46,3.26-.66,.68-.13,1.22-.33,1.7-.79,.62-.61,1.24-1.23,1.86-1.84,.27-.21,.54-.42,.8-.64,.35-.34,.7-.69,1.06-1.03,.29-.18,.54-.43,.83-.62h0c.23-.81-.05-1.71,.45-2.47v.02c.26-.61,.24-1.32,.61-1.9,.27-.49,.47-1.03,.81-1.46,.39-.49,.35-.74-.26-.81-.86-.11-1.54-.59-2.25-1.02-.28-.2-.53-.43-.82-.62-.07-.07-.15-.14-.22-.21-.9-.58-1.15-1.6-1.64-2.46-.77-.49-1.53-.98-2.3-1.47-.29-.28-.7-.37-1.01-.62-1.17-.89-2.28-1.84-3.08-3.09-.32-.29-.28-.71-.4-1.07v.02c-.24-.97-.64-1.94-.04-2.92,1.05-.11,2.11-.13,3.15,.08,.41,.31,.11,.45-.16,.54-.43,.15-.89,.07-1.33,.09-.88,.04-1.13,.3-.91,1.16,.31,1.22,.93,2.28,1.88,3.14,1.49,1.34,3.26,2.28,4.95,3.33,.62,.39,2.58-.11,3.03-.72,.21-.29,.15-.58,.07-.89-.16-.63-.34-1.27-.36-1.92,0-.31,.02-.66,.41-.73,.32-.05,.55,.18,.62,.45,.35,1.4,.79,2.77,1.34,4.1,.08,.19,.04,.42-.17,.54-.2,.11-.41,.07-.58-.06-.27-.21-.52-.5-.91-.33-.75,.33-1.62,.47-2.24,1-.45,.39,.02,.76,.31,1,1.02,.84,2.15,1.47,3.46,1.75,.36,.07,.77,.01,1,.42,.14,.64-.17,1.13-.54,1.59-.48,.6-.85,1.25-1.01,2-.14,.59-.47,1.1-.66,1.68-.05,.19-.18,.42-.02,.58,.24,.25,.45-.02,.62-.14,.86-.62,1.78-1.14,2.7-1.67,2.01-1.17,4.14-1.9,6.46-2.08,.1-.03,.21-.05,.31-.06,1.73-.27,3.15,.17,3.99,1.82,.81,1.61,.89,3.23-.14,4.8-.07,.11-.15,.23-.12,.47,.61,.19,1.29,.28,1.94,.45,4.25,1.15,6.82,4.08,8.42,8.01,.14,.35,.29,.8-.14,1.02-.54,.27-.74-.23-.9-.58-.63-1.38-1.38-2.68-2.36-3.86-2.19-2.66-5.11-3.66-8.41-3.97-2.94-.28-5.18,.87-7.17,2.91-1.03,1.06-1.98,2.2-3.17,3.1-.44,.33-.54,.77-.45,1.29,.56,3.01,.31,6.12,1.16,9.1,.1,.36,.09,.75,.07,1.13-.06,.94-.45,1.36-1.39,1.47-.41,.05-.82,0-1.23-.04-3.05-.37-5.87,.36-8.5,1.88-.6,.35-1.11,.82-1.53,1.37-.62,.81-.5,1.35,.41,1.81,.4,.21,.83,.33,1.27,.43,1.78,.42,3.6,.67,5.4,.79,3.26,.21,6.45-.43,9.52-1.52,1.32-.47,2.6-.59,3.95-.39,4.72,.69,9.45,.69,14.19,.16,1.13-.13,2.26-.23,3.37-.45,.82-.16,1.58-.48,2.33-.83,1.1-.52,1.68-1.1,1.5-2.58-.29-2.45-.21-4.95,.94-7.28,.45-.91,1.01-1.73,1.78-2.38,.44-.38,.58-.81,.45-1.37-.2-.85-.24-1.71,0-2.56,.18-.63,0-1.05-.53-1.4-.48-.32-.97-.66-1.28-1.18-.53-.94-1.42-1.61-1.97-2.53-.3-1.1-.08-1.45,1.1-1.44,1.92,0,3.76-.37,5.55-.99,1.44-.5,2.73-1.26,3.78-2.42,1.22-1.35,1.47-3.78,.02-5.03-.28-.24-.53-.55-.44-.99,.21-.44,.66-.58,1.04-.81,1.73-1.07,2.65-2.94,2.28-4.69-.29-1.36-1.26-2.16-2.35-2.87-1.34-.87-2.87-1.13-4.41-1.27-1.67-.15-3.35-.26-5.02-.44-1.58-.17-3.16-.42-4.6-1.07-1.68-.76-2.98-2.07-4.23-3.39-.24-.25-.4-.56-.69-.76-.81-.98-1.46-2.07-2.02-3.22-.75-1.54-1.33-3.18-2.47-4.5-1.81-2.1-4.14-3.19-6.86-3.59-5.43-.8-10.08,1.01-14.29,4.25-1.36,1.05-2.56,2.29-3.58,3.69-.2,.27-.32,.61-.66,.77-.95,0-1.9-.07-2.78-.48,.32-.29,.77-.23,1.06-.12,.87,.33,1.23-.25,1.58-.79,1.24-1.91,2.92-3.33,4.78-4.59,.23-.4,.71-.45,1.04-.7,.13-.09,.25-.17,.38-.26,.79-.56,1.68-.95,2.54-1.38,.46-.16,.92-.32,1.38-.48,.22-.34,.61-.21,.91-.34,1.2-.25,2.39-.61,3.63-.65,.96-.16,1.93-.16,2.89,0,1.25,.02,2.44,.42,3.66,.65,.29,.14,.68,0,.89,.35,.3,.22,.59,.46,.99,.47,.42,.1,.77,.33,1.06,.64h-.02c.33,.15,.63,.36,.83,.68,.07,.04,.13,.08,.2,.12,.38,.2,.71,.45,.83,.9,.11,.12,.22,.24,.34,.36,.48,.29,.66,.8,.91,1.26,.14,.54,.49,.96,.77,1.42,.47,.62,.6,1.38,.9,2.07,.07,.23,.14,.47,.35,.62,.58,.83,1.1,1.71,1.7,2.53,0,.16,.01,.31,.22,.34,.8,.51,1.31,1.33,2.08,1.87h0c.26,.13,.45,.33,.64,.54,.24,.36,.6,.55,.98,.7,.35,.15,.75,.19,1.07,.43h-.02c.83,.22,1.73,.17,2.5,.62h-.02c2,.29,4.01,.42,6.02,.59,.04,.06,.09,.06,.14,.01,.99,.18,2.05-.02,2.95,.58,.26,.08,.52,.16,.77,.24,.5,.22,1.13,.16,1.47,.7,.05,.04,.1,.09,.16,.13,.52,.17,.8,.6,1.11,1.01,.59,.39,.72,1.09,1.06,1.65,.44,1.03,.54,2.06,.01,3.1-.15,.34-.3,.68-.46,1.02-.23,.27-.27,.68-.65,.83-.06,.07-.12,.13-.18,.2-.16,.28-.34,.52-.67,.62l-.35,.27c-.26,.24-.44,.49-.24,.86-.01,.15,0,.3,.18,.36,1.34,1.84,.94,3.94-.66,5.74-.05,.05-.09,.1-.14,.16-.1,.35-.32,.59-.69,.67-.1,.1-.21,.19-.31,.29-.25,.26-.57,.39-.88,.55-.12,.07-.24,.15-.36,.22-.63,.46-1.37,.64-2.11,.81-.44,.23-.99,.08-1.4,.41-.66,.42-1.41,.45-2.15,.53-.27,.03-.55-.02-.82,.02-1.15,.16-1.16,.2-.56,1.18,.56,.93,1.26,1.72,2.23,2.24,.44,.07,.77,.33,1.08,.63h-.01c.29,.12,.69,.13,.72,.56,.03,.47-.48,.23-.65,.44-.39,.31-.34,.73-.27,1.15-.12,.4-.14,.79,0,1.19,.03,.34-.2,.8,.21,.99,.42,.2,.61-.3,.89-.49,.29-.21,.52-.51,.78-.76,.15-.24,.35-.44,.55-.62Z"/>
  <path class="cls-4" d="M16.64,22.23c-1.09-.08-2.21,.24-3.28-.2-.39-.14-.46-.51-.61-.83h0c-.65-1.27-.29-2.73,.98-3.93,.09-.07,.17-.14,.26-.21,.33-.29,.75-.29,1.14-.38,.12,0,.23,0,.35-.01,.96,.02,1.92,.11,2.85,.39,1.29,.14,2.47,1.54,2.47,2.92-.58,1.18-2.74,2.34-4.15,2.24Z"/>
  <path class="cls-1" d="M35.87,69.54c2.37-.09,4.72,.42,7.09,.26,2.66-.18,5.32-.3,7.98-.44-.29,.27-.67,.36-1.03,.39-3.96,.3-7.92,.27-11.88,.18-.7-.02-1.49,.03-2.16-.38Z"/>
  <path class="cls-1" d="M17.08,70.6c3.78,.65,7.57,.81,11.35,0-.4,.63-1.11,.49-1.66,.57-3.05,.44-6.1,.23-9.13-.18-.26-.04-.44-.16-.56-.39Z"/>
  <path class="cls-1" d="M67.17,41.84c1.37-1.78,1.74-3.68,.66-5.74,.83,.75,1.31,2.61,.76,3.62-.4,.74-.4,1.79-1.41,2.12Z"/>
  <path class="cls-1" d="M57.05,67.25c.4-.43,.79-.55,1.43-.39,1.15,.28,2.3-.09,3.42-.4-.74,.83-1.81,.75-2.72,.72-.72-.03-1.42-.14-2.13,.07Z"/>
  <path class="cls-1" d="M57.75,46.67c-.38-.29-.69-.64-.8-1.2,1.49,.03,2.92-.18,4.33-.52-.48,.7-1.27,.45-1.92,.62-.29,.08-.61-.01-.91,.04-.56,.11-1.2,.22-.7,1.05Z"/>
  <path class="cls-1" d="M62.52,24.52c-2.03,0-4.04-.14-6.02-.6,2.02,.05,4.02,.29,6.02,.6Z"/>
  <path class="cls-1" d="M24.85,52.16c.24-.23,.38-.21,.49,.14,.16,.49,.22,.99,.21,1.51-.02,1.19-.02,2.38,.18,3.56-.51-.26-.37-.74-.39-1.17-.07-1.18,.17-2.37-.19-3.53-.06-.2-.09-.39-.3-.5Z"/>
  <path class="cls-1" d="M18.94,46.21c-.44,1.14-1.53,.86-2.36,.98-.88,.12-1.75,.22-2.59,.47,.33-.54,.88-.6,1.41-.61,1.25-.03,2.45-.17,3.54-.84Z"/>
  <path class="cls-1" d="M16.08,51.95l2.04,1.48c-.37,.11-.7-.21-1.15,0-.35,.17-.96-.22-.77-.7,.15-.39-.3-.51-.12-.79Z"/>
  <path class="cls-1" d="M13.72,17.28c-.99,1.14-1.43,2.42-.98,3.92-.76-.33-.41-1.01-.39-1.5,.05-1,.33-1.94,1.37-2.42Z"/>
  <path class="cls-1" d="M20.86,63.17c-1.54,.25-2.97,.86-4.41,1.44,1.26-1.13,2.8-1.38,4.41-1.44Z"/>
  <path class="cls-1" d="M67.85,62.72c.76-1.21,1.34-2.45,.57-3.88,1.05,.87,.76,2.9-.57,3.88Z"/>
  <path class="cls-1" d="M12.74,21.21c.2,.28,.41,.55,.61,.83-.42,.97-.03,1.92,.04,2.88-.37-.44-.45-.99-.44-1.52,.02-.74,.03-1.47-.22-2.19Z"/>
  <path class="cls-1" d="M70.2,31.95c.35-1.03,.29-2.07-.01-3.1,.65,.74,.79,2.43,.01,3.1Z"/>
  <path class="cls-1" d="M65.79,57.05c-.47-.3-.08-.61,.04-.86,.41-.88,.56-1.78,.36-2.74,.49,.77,.28,1.56,.05,2.34-.12,.43-.3,.84-.45,1.26Z"/>
  <path class="cls-1" d="M49.06,19.43c-.74-.73-1.27-1.6-1.7-2.53,.79,.69,1.29,1.58,1.7,2.53Z"/>
  <path class="cls-1" d="M20.18,31.15c.55,.82,1.09,1.64,1.64,2.46-1.12-.44-1.33-1.48-1.64-2.46Z"/>
  <path class="cls-1" d="M51.36,21.64c-.9-.39-1.4-1.23-2.08-1.87,.97,.32,1.46,1.16,2.08,1.87Z"/>
  <path class="cls-1" d="M26.17,60.3c.19,.7,.4,1.41,.57,2.12,.07,.27,.06,.56-.36,.54,.24-.91-.37-1.75-.21-2.66Z"/>
  <path class="cls-1" d="M26.85,8.84c-.79,.57-1.66,.99-2.54,1.38,.67-.79,1.58-1.12,2.54-1.38Z"/>
  <path class="cls-1" d="M65.61,25.12c-.96-.3-1.96-.44-2.95-.58,.84-.07,1.66-.01,2.48,.18,.26,.06,.44,.12,.47,.41Z"/>
  <path class="cls-1" d="M13.76,66.86c-.45,.83-.47,1.66,.03,2.48-.88-.87-.89-1.72-.03-2.48Z"/>
  <path class="cls-1" d="M18.11,53.43c.95,.16,1.9,.42,2.88,.17-.99,.46-1.95,.39-2.88-.17Z"/>
  <path class="cls-1" d="M35.67,7.36c-.96,0-1.93,0-2.89,0,.96-.33,1.93-.33,2.89,0Z"/>
  <path class="cls-1" d="M56.52,23.93c-.84-.17-1.71-.23-2.5-.63,.89,0,1.77,0,2.5,.63Z"/>
  <path class="cls-1" d="M47.02,16.28c-.39-.65-.69-1.34-.9-2.07,.68,.53,.79,1.29,.9,2.07Z"/>
  <path class="cls-1" d="M23.94,39.61c-.15,.82-.3,1.65-.45,2.47,.06-.84-.24-1.75,.45-2.47Z"/>
  <path class="cls-1" d="M62.68,44.54c.7-.27,1.4-.54,2.11-.81-.54,.68-1.3,.81-2.11,.81Z"/>
  <path class="cls-1" d="M52.95,69.12c.63-.22,1.27-.43,1.9-.65-.51,.58-1.19,.66-1.9,.65Z"/>
  <path class="cls-1" d="M22.01,53.42c.55-.22,1.1-.45,1.65-.67-.17,1.16-1.12,.41-1.65,.67Z"/>
  <path class="cls-1" d="M24.54,37.73c-.07,.68-.18,1.34-.62,1.9,.08-.67,.06-1.38,.62-1.9Z"/>
  <path class="cls-1" d="M30.25,70.15c.63-.22,1.22-.57,1.91-.59-.56,.45-1.19,.64-1.91,.59Z"/>
  <path class="cls-1" d="M61.11,50.55c.8-.4,.58-.72-.07-1.01,.46-.04,.84,.04,.83,.6-.01,.53-.45,.38-.76,.41Z"/>
  <path class="cls-1" d="M54.83,68.48c.5-.25,.99-.5,1.49-.74-.31,.62-.86,.76-1.49,.74Z"/>
  <path class="cls-1" d="M15.05,50.71c.36,.41,.83,.73,1.04,1.26-.5-.29-1.01-.58-1.04-1.26Z"/>
  <path class="cls-1" d="M67.86,26.06c-.49-.23-.98-.47-1.47-.7,.62-.04,1.22-.03,1.47,.7Z"/>
  <path class="cls-1" d="M64.34,65.4c.49-.29,.97-.59,1.46-.88-.32,.57-.79,.9-1.46,.88Z"/>
  <path class="cls-1" d="M66.2,53.48c-.28-.49-.56-.98-.84-1.47,.76,.21,.84,.82,.84,1.47Z"/>
  <path class="cls-1" d="M69.12,27.21c-.37-.34-.74-.68-1.11-1.01,.65,.04,.98,.41,1.11,1.01Z"/>
  <path class="cls-1" d="M45.35,12.79c-.3-.42-.61-.84-.91-1.26,.65,.17,.85,.67,.91,1.26Z"/>
  <path class="cls-1" d="M62.64,66.22c.4-.29,.82-.52,1.32-.58-.31,.49-.77,.64-1.32,.58Z"/>
  <path class="cls-1" d="M42.26,9.47c-.35-.21-.71-.43-1.06-.64,.53-.07,.88,.15,1.06,.64Z"/>
  <path class="cls-1" d="M14.19,69.6c.34,.19,.67,.38,1.01,.57-.43-.02-.86-.04-1.01-.57Z"/>
  <path class="cls-1" d="M32.95,69.33c.51-.35,1.03-.29,1.55,0-.52,0-1.03,0-1.55,0Z"/>
  <path class="cls-1" d="M44.11,11.17c-.28-.3-.56-.6-.83-.9,.56,.04,.84,.33,.83,.9Z"/>
  <path class="cls-1" d="M61.06,49.54c-.43-.09-.77-.33-1.08-.63,.53-.08,.88,.14,1.08,.63Z"/>
  <path class="cls-1" d="M14.39,49.75c.22,.33,.45,.65,.67,.98-.48-.15-.7-.48-.67-.98Z"/>
  <path class="cls-1" d="M67.65,35.74c-.57-.46-.27-.69,.24-.86-.08,.29-.16,.57-.24,.86Z"/>
  <path class="cls-1" d="M65.19,51.81c-.3-.27-.61-.55-.91-.82,.57-.02,.85,.27,.91,.82Z"/>
  <path class="cls-1" d="M67.09,63.57c.26-.29,.51-.58,.77-.87,0,.52-.3,.76-.77,.87Z"/>
  <path class="cls-1" d="M24.1,62.95c-.48,0-.97,0-1.45,0,.48-.34,.97-.34,1.45,0Z"/>
  <path class="cls-1" d="M16.87,29.06c.45,.02,.76,.27,1.01,.62-.41-.08-.8-.21-1.01-.62Z"/>
  <path class="cls-1" d="M23.93,10.48c-.3,.3-.64,.54-1.04,.7,.13-.55,.58-.64,1.04-.7Z"/>
  <path class="cls-1" d="M68.28,58.66c-.29-.29-.58-.57-.87-.86,.56,.01,.85,.3,.87,.86Z"/>
  <path class="cls-1" d="M67.04,57.65c-.35-.16-.69-.32-1.04-.48,.42,0,.83,.02,1.04,.48Z"/>
  <path class="cls-1" d="M65.15,43.5c.24-.27,.53-.46,.88-.55-.12,.47-.48,.53-.88,.55Z"/>
  <path class="cls-1" d="M69.09,33.8c.22-.28,.43-.55,.65-.83-.06,.4-.12,.8-.65,.83Z"/>
  <path class="cls-1" d="M22.04,33.81c.41,.03,.62,.32,.82,.62-.42-.02-.64-.29-.82-.62Z"/>
  <path class="cls-1" d="M15.12,16.69c-.38,.13-.76,.25-1.14,.38,.25-.51,.71-.4,1.14-.38Z"/>
  <path class="cls-1" d="M13.39,24.9c.19,.33,.44,.65,.4,1.07-.5-.22-.44-.65-.4-1.07Z"/>
  <path class="cls-1" d="M54.03,23.31c-.41-.02-.76-.18-1.07-.43,.43-.03,.82,.03,1.07,.43Z"/>
  <path class="cls-1" d="M43.08,10.15c-.28-.23-.56-.46-.83-.69,.48-.01,.73,.25,.83,.69Z"/>
  <path class="cls-1" d="M23.49,42.08c-.23,.27-.41,.61-.83,.62,.18-.33,.41-.61,.83-.62Z"/>
  <path class="cls-1" d="M21.6,43.73c-.17,.34-.43,.56-.8,.64,.17-.34,.39-.61,.8-.64Z"/>
  <path class="cls-1" d="M29.14,8.02c-.3,.11-.61,.23-.91,.34,.14-.55,.57-.32,.91-.34Z"/>
  <path class="cls-1" d="M63.28,51.99c-.14,.25-.2,.56-.55,.62,.01-.36,.18-.58,.55-.62Z"/>
  <path class="cls-1" d="M66.35,64.15c.24-.19,.48-.37,.73-.56-.06,.42-.3,.61-.73,.56Z"/>
  <path class="cls-1" d="M68.24,34.62c.22-.21,.45-.41,.67-.62-.01,.44-.23,.64-.67,.62Z"/>
  <path class="cls-1" d="M40.21,8.36c-.3-.12-.59-.24-.89-.35,.33,.02,.76-.2,.89,.35Z"/>
  <path class="cls-1" d="M60.84,52.88c-.2-.4-.16-.79,0-1.19,0,.4,0,.79,0,1.19Z"/>
  <path class="cls-1" d="M66.34,42.66c.23-.22,.46-.44,.69-.67,.03,.49-.21,.71-.69,.67Z"/>
  <path class="cls-1" d="M51.98,22.18c-.27-.12-.48-.3-.64-.55,.38,0,.59,.17,.64,.55Z"/>
  <path class="cls-1" d="M20.97,53.62c.31-.26,.71-.12,1.06-.21-.29,.39-.69,.19-1.06,.21Z"/>
  <path class="cls-12" d="M20.62,19.99c-.09-1.51-1.21-2.2-2.31-2.92,.1-.77,.66-1.28,1.12-1.81,3.06-3.47,6.8-5.89,11.34-6.89,3.5-.77,6.96-.56,10.19,1.15,1.72,.91,3.1,2.21,3.99,4.01,1.02,2.05,1.83,4.22,3.31,6.02,.25,.36,.27,.77,.21,1.19-.2,1.38-.73,2.78,.07,4.12,1.04,1.75,2.49,3.09,4.24,4.12,2.18,1.29,4.67,1.79,7,2.7,2.15,.83,4.18,1.9,6.17,3.07,.12,.07,.21,.18,.27,.3,0,.4,.28,.63,.54,.83,1.54,1.19,1.27,3.89,.15,5.2-1.3,1.52-2.96,2.4-4.83,2.94-1.57,.46-3.17,.8-4.83,.75-1.19-.04-1.24,.07-.95,1.23-1.66,.63-3.3,.25-4.79-.4-3.84-1.68-6.72-4.46-8.72-8.16-.7-1.29-1.09-2.65-1.38-4.08-.19,.41-.16,.84-.09,1.25,.78,4.66,2.75,8.66,6.68,11.45,2.78,1.97,5.87,2.98,9.34,2.29,.27-.05,.54-.14,.81-.07,.59,.78,1.81,1.05,2.11,1.85,.29,.75-.55,1.8-.22,2.67,.52,1.41-.15,2.15-1.07,3.08-1.5,1.53-1.99,3.58-2.03,5.66-.03,1.45-.33,2.95,.29,4.38,.16,.38-.29,.55-.56,.76-1.73,1.31-3.75,1.81-5.84,2.03-3,.32-6.01,.52-9.03,.44-2.28-.06-4.55-.16-6.81-.57-1.1-.2-2.21-.03-3.33,.35-3.85,1.29-7.76,2.16-11.89,1.33-1.47-.29-2.99-.31-4.42-.83-1.54-.55-1.77-1.38-.64-2.57,1.78-1.88,4.1-2.65,6.57-3.09,1.47-.26,2.92-.17,4.39-.02,1.27,.13,1.52-.21,1.51-1.47-.01-1.38-.51-2.68-.67-4.04-.25-2.17-.13-4.38-.7-6.52-.09-.33,.16-.53,.37-.68,1.54-1.11,2.68-2.64,4.07-3.9,1.66-1.51,3.46-2.43,5.8-2.41,3.13,.03,5.97,.79,8.37,2.82,1.45,1.22,2.49,2.8,3.27,4.55,.2,.45,.36,1.38,.84,1.17,.5-.22-.07-.94-.28-1.4-1.45-3.23-3.63-5.73-7.09-6.89-.77-.26-1.58-.43-2.38-.6-.33-.07-.68-.04-.93-.32,1.73-2.45,1.59-4.49-.32-6.41-.55-.55-1.15-.52-1.8-.52-.38,0-.76,0-1.14,0-.03-.11,0-.24,.09-.27,1.2-.27,2.1-1.16,3.22-1.57,.81-.3,.97-.76,.77-1.49,.07-.73-.35-1.52,.26-2.18,.07-.09,.15-.16,.24-.22,2.12-.99,2.14-.99,1.74-3.29-.28-1.64-.22-3.28-.15-4.93,.04-1.07-.14-1.4-1.17-1.74-.78-.25-1.58-.48-2.27-.94-.17-.18-.11-.38-.07-.58,.41-2.36-.75-4.86-2.67-5.73-1.94-.88-4.7-.09-6.19,1.8-.76,.97-1.31,2.02-1.1,3.32,.03,.2,.01,.42-.22,.53-1.83-.07-3.65,.37-5.48,.23-.33-.02-.68,.08-1-.07Z"/>
  <path class="cls-11" d="M37.32,20.35c1,.34,2.01,.65,2.99,1.03,.63,.24,.94,.72,.85,1.46-.22,1.87-.21,3.75,.12,5.61,.4,2.27,.17,2.64-2.09,3.1-.68,.64-1.62,.87-2.3,1.51-.11,.09-.21,.19-.34,.24-2.72,1-5.48,1.85-8.4,2.04-.47,.03-.97,.09-1.36-.3-1.54-.32-3.04-.75-4.27-1.8-.16-.13-.35-.23-.48-.38-.69-.75-.62-1.11,.28-1.5,.56-.25,1.15-.45,1.7-.71,.52-.25,1-.58,1.31,.24,.08,.2,.28,.33,.5,.17,.18-.14,.04-.31-.03-.46-.63-1.19-1.07-2.44-1.28-3.78-.04-.24-.07-.64-.47-.52-.28,.08-.19,.43-.16,.64,.13,.67,.24,1.36,.48,1.99,.21,.55,.03,.9-.41,1.1-.75,.34-1.53,.61-2.3,.88-.15,.05-.39,.06-.5-.03-2.15-1.61-4.84-2.53-6.41-4.88-.53-.79-1.02-1.62-1-2.66,.01-.65,.16-.91,.87-.89,.66,.01,1.37,.21,1.99-.21,1.43-.56,3-.87,3.98-2.24,.36-.26,.77-.26,1.18-.23,1.47,.09,2.93-.07,4.38-.27,.44-.06,.71,.07,1.01,.29,.53,.09,.76,.54,1.07,.9,2.56,2.98,5.63,2.63,8.23,.17,.24-.23,.41-.57,.83-.5Z"/>
  <path class="cls-12" d="M19.97,53.07c-2.14,.12-3.21-1.41-4.33-2.77-1.45-1.75-1.33-2.06,.82-2.54,.03,0,.07-.04,.1-.03,2.06,.32,3.12-1.16,4.38-2.36,3.12-2.98,6.56-5.5,10.65-7.01,1.52-.56,3.11-.86,4.73-.49,1.58,.36,2.68,2.55,2.1,4.07-.53,1.39-1.48,2.16-3.01,2.21-1.6,.06-3.1,.38-4.34,1.54-1.22,1.14-2.49,2.22-3.64,3.44-2.03,2.15-4.49,3.54-7.45,3.94Z"/>
  <path class="cls-7" d="M66.23,35.06c-.81-.14-1.42-.69-2.1-1.07-2.89-1.62-6.03-2.63-9.15-3.68-2.66-.89-4.72-2.57-6.39-4.77-1.01-1.33-.84-2.85-.48-4.35,.13-.55,.13-1.09,.15-1.63,1.03,1.14,2.17,2.14,3.34,3.15,1.38,1.19,3.03,1.47,4.7,1.8,2.91,.57,5.91,.44,8.82,1.03,2.31,.47,4.23,2.33,4.66,4.57,.27,1.41-1.01,3.6-2.45,4.39-.36,.2-.73,.38-1.1,.56Z"/>
  <path class="cls-11" d="M65.6,54.52c.13,.58-.31,1.05-.51,1.59-.31,.83-.17,1.37,.71,1.7,3.28,1.26,2.69,3.34,.92,5.1-1.98,1.97-4.57,2.84-7.23,3.46-.88,.21-1.63-.39-1.91-1.31-.98-3.3,.78-8.29,3.63-10.2,1.02-.68,1.85-1.52,2.55-2.5,.37-.52,.65-.56,.99-.06,.44,.65,.9,1.31,.84,2.22Z"/>
  <path class="cls-7" d="M58.18,48.27c-2.02,.88-4.08,.7-6.08,.05-5.91-1.94-9.3-6.14-10.65-12.11-.22-.97-.53-1.92-.41-2.93,.03-.22-.09-.55,.24-.59,.28-.04,.4,.26,.45,.48,.11,.43,.16,.87,.26,1.3,.82,3.5,2.95,6.13,5.6,8.39,1.76,1.5,3.7,2.71,6.07,3.06,.9,.13,1.78,.04,2.67,.09,.67,.71,1.44,1.35,1.86,2.27Z"/>
  <path class="cls-11" d="M38.96,33.83c.33,.9,.14,1.46-.9,1.66-.41,.08-.83,.34-1.16,.62-.67,.56-1.46,.79-2.27,1-.07,0-.14,.01-.21,.02-3.3,.12-6.1,1.59-8.83,3.25-.23,.14-.46,.33-.74,.34-.34,.02-.54-.12-.34-.5,0-.63,.47-1.07,.63-1.64,1.33-1.77,3.18-2.78,5.21-3.5,.98-.35,2.03-.35,3.05-.29,.88,.05,1.61-.21,2.24-.82,.52-.51,1.16-.86,1.77-1.23,1.03-.61,1.35-.41,1.44,.81,0,.11,.04,.2,.1,.29Z"/>
  <path class="cls-10" d="M38.96,33.83c-.23-.17-.18-.43-.21-.66-.09-.64-.41-.73-.93-.39-.72,.47-1.48,.86-2.11,1.47-.41,.39-.85,.88-1.5,.79-3.7-.54-6.46,1.32-9.08,3.54,.02-.8,.41-1.45,.9-2.02,.4-.46,.63-.96,.76-1.53,1.77,.04,3.46-.14,5.19-.7,1.27-.41,2.61-.69,3.92-1.06,.37-.11,.69-.28,.99-.5,.77-.32,1.4-.94,2.27-1.04-.6,.64-.05,1.4-.21,2.09Z"/>
  <path class="cls-9" d="M24.51,40.22c.12,.58,.39,.28,.65,.11,2.12-1.35,4.37-2.4,6.82-3.01,.82-.2,1.63-.19,2.44-.2-1.35,.27-2.74,.41-4.02,.98-1.77,.8-3.49,1.69-5.06,2.85-.27,.2-.61,.58-.87,.36-.3-.25-.27-.74,.04-1.09Z"/>
  <path class="cls-11" d="M55.57,42.49c-4.18-.16-8.29-2.59-9.41-6.6-.14-.51-.18-1.01-.18-1.52,0-.87,.37-1.34,1.26-1.13,.85,.21,.6-.21,.42-.63-.34-.81-1-1.38-1.48-2.09-.92-1.36-1.24-2.87-1.29-4.47,0-.19,0-.36,.19-.41,.2-.05,.29,.14,.39,.27,2.34,3.18,5.57,5.24,8.99,7.03,1.38,.72,2.95,1.09,4.41,1.7,2.5,1.05,3.51,3.72,2.07,5.56-.95,1.21-2.34,1.75-3.8,2.06-.56,.12-1.12,.38-1.56,.23Z"/>
  <path class="cls-5" d="M37.32,20.35c-1.1,1.23-2.33,2.16-4.03,2.57-2.21,.54-3.66-.57-5.08-1.88-.39-.36-.68-.84-1.02-1.26-.5-1.42,.05-2.61,.84-3.74,1.53-2.2,4.7-3.11,6.93-1.99,1.65,.82,3.73,4.51,2.36,6.31Z"/>
  <path class="cls-11" d="M39.18,31.74c-.76,.33-1.42,.9-2.27,1.04,.65-.62,1.43-1,2.29-1.23,0,.06-.01,.13-.02,.19Z"/>
  <path class="cls-2" d="M31.72,22.04c-.21,.61-.61,.26-.9,.13-1.26-.56-2.2-1.5-2.93-2.66-.32-.51-.29-1.09-.16-1.6,.52-1.95,3.68-4.58,6.23-3.65,1.42,.51,2.24,1.63,2.74,3.01,.12,.26,.17,.51-.12,.7-.4,.07-.6-.29-.9-.43-.84-.42-1.51-.17-1.77,.72-.16,.57-.39,.97-.98,1.21-1.36,.54-1.44,.73-1.23,2.16,.02,.14,.03,.27,0,.41Z"/>
  <path class="cls-6" d="M31.72,22.04c-.87-1.41-.49-2.45,1.1-2.78,.48-.1,.77-.26,.82-.72,.08-.68,.2-1.32,1.01-1.47,.79-.15,1.39,.19,1.81,.86,.27,.19,.48,.41,.26,.77,.28,.77-.06,1.39-.48,1.98-.97,1.35-3.32,2.06-4.51,1.35Z"/>
  <path class="cls-8" d="M36.71,18.71c-.09-.26-.17-.51-.26-.77,.32-.13,.18-.44,.26-.67,.13,.4,.31,.8,.39,1.21,.07,.34-.11,.42-.39,.22Z"/>
</svg>