<?xml version="1.0" encoding="UTF-8"?>
<svg id="Calque_1" data-name="Calque 1" xmlns="http://www.w3.org/2000/svg" viewBox="0 0 80 80">
  <defs>
    <style>
      .cls-1 {
        fill: #f4a400;
      }

      .cls-2 {
        fill: #f7a600;
      }

      .cls-3 {
        fill: #f7a700;
      }

      .cls-4 {
        fill: #f6a400;
      }

      .cls-5 {
        fill: #f6a300;
      }

      .cls-6 {
        fill: #ee7603;
      }

      .cls-7 {
        fill: #e52c21;
      }

      .cls-8 {
        fill: #e5301f;
      }

      .cls-9 {
        fill: #ee7703;
      }

      .cls-10 {
        fill: #e52b21;
      }

      .cls-11 {
        fill: #e52b20;
      }

      .cls-12 {
        fill: #e5341d;
      }

      .cls-13 {
        fill: #de311e;
      }

      .cls-14 {
        fill: #dd2b1f;
      }

      .cls-15 {
        fill: #e42c20;
      }

      .cls-16 {
        fill: #e32b1f;
      }

      .cls-17 {
        fill: #442b1a;
      }

      .cls-18 {
        fill: #5a3e2d;
      }

      .cls-19 {
        fill: #5b3f2d;
      }
    </style>
  </defs>
  <path class="cls-17" d="M45.86,48.47c4.5,.04,6.1,3.59,5.86,7.28-.25,3.84-.19,3.88,3.25,2.14,.9-.46,1.8-.4,2.71-.35,1.05,.06,1.49,.79,1.62,1.72,.13,.92-.05,1.6-1.07,2.07-3.5,1.61-7.1,1.15-10.87,.74,.21,.39,.51,.77,.62,1.19,.41,1.67-.17,2.43-1.88,2.43-3.42,.01-6.11-1.76-8.49-3.9-3.64-3.28-7.01-6.86-10.62-10.18-3.2-2.94-6.16-6.01-7.63-10.23-.24-.7-.7-.54-1.22-.29-.83,.4-1.69,.75-2.64,.74-.59,0-1.38,.23-1.58-.5-.2-.74,.48-1.23,1.1-1.46,1.11-.39,2.26-.66,3.69-1.07-1.9-.7-1.39-1.98-1.31-3.27,.13-2.11-.6-4.23-.01-6.37,.61-2.21,1.36-4.31,3.49-5.55,2.77-1.61,6.23-.79,7.94,1.91,.7,1.11,1.31,2.27,2.11,3.66,1.79-3.41,3.87-6.36,6.54-8.91,3.65-3.49,11.26-4.89,15.35,.7,4.66,6.37,4.6,15.01-.76,21.06-1.97,2.22-3.42,4.93-6.21,6.42Z"/>
  <path class="cls-10" d="M55.19,30.14c.6,5.52-2.22,9.42-5.34,13.39-3.65,4.63-8.69,6.58-13.95,8.29-1.15,.37-2.29,.12-3.33-.79-1.28-1.11-2.16-2.56-3.4-3.68-.19-.17-.42-.43-.42-.65-.03-9.97,1.84-19.28,9.84-26.18,3.37-2.91,9.84-4.19,13.51,1.11,1.84,2.67,3.98,5.09,3.09,8.53Z"/>
  <path class="cls-7" d="M50.77,54.78c.01,1,.04,2.01,.03,3.01-.02,2.15,1.13,2.83,3.06,1.77,1.04-.57,1.97-1.36,3.3-1.22,.68,.07,1.15,.24,1.3,.96,.16,.75-.26,1.09-.86,1.35-2.73,1.21-5.64,1.25-8.43,.74-1.88-.34-3.89-.71-5.59-1.78,.93-.93,2-.36,3.03-.29,.75,.05,1.53,.13,1.9-.71,.29-.64,.25-1.33-.21-1.9-.54-.67-1.21-.36-1.84-.14-2.56,.89-5.01,.29-7.43-.56-.76-.26-1.52-.51-2.27-.77-.76-.73-1.52-1.45-2.54-2.42,3.42-.08,5.93-2.15,8.96-2.46,.18,1.55,1.73,.78,2.44,1.44,.25,2.13,1.76,1.5,3.03,1.38,1.02,.11,1.4,1.09,2.13,1.59Z"/>
  <path class="cls-3" d="M21.02,36.55c-2.26-.03-2.93-1.17-2.88-3.38,.07-2.8-.07-5.55,2.15-7.7,1.8-1.43,3.78-1.72,5.92-.91,1.28,.73,2.1,1.86,2.79,3.11-.96,1.02-2.51,.31-3.51,1.22-1.88,1.13-2.93,2.87-3.6,4.89-.4,.89-.15,1.99-.89,2.77Z"/>
  <path class="cls-7" d="M21.02,36.55c-.01-1.06-.05-2.12,.44-3.11,2.72,.1,3.43-.6,3.47-3.49,0-.47-.08-.94,.15-1.38,1.09-1.25,2.61-.65,3.93-.9,1.89,2.18,1.23,4.4,.13,6.63-.62-.43-.55-1.18-.82-1.77-.17-.39-.03-1.06-.7-1.04-.49,.01-.85,.39-1.08,.8-.68,1.23-.77,2.57-.38,3.88,.49,1.65,1.61,.42,2.46,.45-.14,1.24-.19,2.5-.46,3.72-.11,.48-.02,1.49-.76,1.39-.69-.1-1.64,0-2.07-.87-.95-1.92-2.57-3.18-4.3-4.32Z"/>
  <path class="cls-2" d="M36.75,55.25c.7-.35,1.31-.24,2.05,.06,2.65,1.05,5.34,1.95,8.16,.44,.65-.35,1.31-.14,1.79,.44,.72,.86,.63,1.9,.37,2.84-.22,.8-1.07,.94-1.81,.92-1.25-.04-2.46-.6-3.75-.33-2.61-.92-5.45-1.5-6.82-4.36Z"/>
  <path class="cls-6" d="M28.62,36.63c-.52,.57-.87,1.45-1.89,1.13-.99-.31-1.18-1.21-1.24-2.08-.07-1.06-.05-2.1,.31-3.15,.35-1.03,.98-1.66,1.99-1.66,.98,0,.83,1.05,1.05,1.67,.2,.55,.21,1.17,.3,1.75,.06,.83-.27,1.57-.53,2.33Z"/>
  <path class="cls-2" d="M50.77,54.78c-1.34,.63-1.07-1.2-1.95-1.27-1.17-.38-2.55-.28-3.3-1.55-.65-.02-1.31,.01-1.95-.06-1.42-.16-1.29-.75-.4-1.53,.26-.17,.52-.34,.77-.52,.5-.39,1.12-.16,1.67-.31,3.51,.26,4.81,1.28,5.15,5.24Z"/>
  <path class="cls-19" d="M29.09,48.69c2.23,2.3,4.45,4.59,6.68,6.89,.42,.44,.8,.92,.8,1.56,0,.34-.34,.42-.59,.34-.62-.2-1.3-.3-1.03-1.33,.17-.65-.4-.46-.79-.34-1.48,.47-1.22-.4-.86-1.4-1,.27-2.05,.69-2.6-.37-.42-.82,1.09-.35,.93-1.3-.67-.46-1.66,.37-2.31-.17-1.25-1.05,.98-.92,.59-1.8-.2,.02-.46,0-.69,.08-.64,.23-1.35,.57-1.74-.27-.47-1.01,.83-.54,1.02-1.09,.1-.3,.39-.53,.59-.8h0Z"/>
  <path class="cls-19" d="M28.3,44.82c-.14,1.24-.8,2.16-2.1,2.21-1.52,.06-2.29-.88-2.35-2.38-.06-1.54,.99-2.28,2.24-2.3,1.38-.02,2.04,1.08,2.21,2.47Z"/>
  <path class="cls-11" d="M40.38,59.56c.72,0,1.09,.33,1.19,1.06,.23,1.75,1.37,2.28,2.99,2.17,.6-.04,1.21-.06,1.8,.03,.61,.1,.82,.58,.84,1.19,.02,.82-.53,.79-1.07,.8-2.61,.06-4.71-1.09-6.6-2.76,.75-.67,.38-1.73,.86-2.49Z"/>
  <path class="cls-4" d="M40.38,59.56c-.15,.87,1.38,2.33-.86,2.49-1.3-.3-1.86-1.51-2.78-2.28-.42-1.32,.76-1.09,1.37-1.41,.76,.4,1.51,.8,2.27,1.2Z"/>
  <path class="cls-15" d="M21.03,38.28c1.17,.01,3.57,2.02,3.55,3.05-.01,.76-.44,.89-1.04,.45-.84-.62-1.67-1.24-2.51-1.86-.41-.54-.48-1.09,0-1.63Z"/>
  <path class="cls-16" d="M21.9,41.83q1.19,.65,.63,3.57c-.8-.8-1.3-1.67-1.54-2.69,.16-.44,.47-.74,.91-.88Z"/>
  <path class="cls-8" d="M26.22,24.56c-2.07-.32-4.02,.15-5.92,.91,1.51-2.04,3.47-2.34,5.92-.91Z"/>
  <path class="cls-18" d="M29.09,48.69c-.07,0-.14,.02-.2,0-.66-.2-1.39,.8-1.98-.1-.25-.38,.05-.6,.35-.77,1.04-.61,1.39,.23,1.83,.87,0,0,0,0,0,0Z"/>
  <path class="cls-1" d="M21.03,38.28c0,.54,0,1.09,0,1.63-.61-.28-1.64-.25-1.57-1.14,.07-1.04,1.01-.39,1.56-.49Z"/>
  <path class="cls-5" d="M21.9,41.83c-.04,.57-.36,.85-.91,.88-.34-.49-1.07-1.05-.44-1.59,.58-.49,1.01,.23,1.35,.71Z"/>
  <path class="cls-12" d="M38.12,58.36c-.42,.51-1.38,.48-1.37,1.41-.58-.15-.83-.59-1.02-1.3,.86,.35,1.52-.77,2.39-.11Z"/>
  <path class="cls-14" d="M25.96,49.16c-.7-.26-.95-.63-1.12-1.06,0-.01,.27-.21,.42-.21,.8,0,.68,.58,.71,1.27Z"/>
  <path class="cls-13" d="M45.62,49.54c-.48,.52-1.09,.35-1.67,.31,.44-.73,.98-.91,1.67-.31Z"/>
  <path class="cls-3" d="M38.75,28.56c-3.86,3.14-5.95,7.46-7.95,11.85-.26,.58-.22,1.32-.97,1.77-.81-.99-.05-1.97,.12-2.8,1.22-6.22,2.99-12.28,8.01-16.62,1.81-1.57,3.7-3.15,6.33-3.6,2-.34,3.74,.12,5.11,1.15,3.01,2.27,5.78,6.57,4.78,11.71-2.07-2.89-2.8-7.04-7.36-7.07-2.48,.18-4.62,1.17-6.52,2.73-.46,.37-.91,.8-1.55,.87Z"/>
  <path class="cls-9" d="M45.67,37.81c-2.4,.02-3.35-.97-2.81-2.66,.72-2.27,1.93-4.27,4.37-5.18,1.28-.47,2.48-.17,3.35,.68,.86,.84,.97,2.09,.4,3.19-1.24,2.37-3.39,3.47-5.3,3.97Z"/>
  <path class="cls-9" d="M38.75,28.56c1.67-2.03,3.92-3.15,6.35-3.94,.63-.2,1.18,.04,1.72,.33-.39,2.55-1.45,4.63-3.94,5.79-2.5,1.17-3.65,.6-4.14-2.18Z"/>
  <path class="cls-9" d="M44.96,45.06c-.83-.06-1.79-.2-1.79-1.62,0-1.64,2.22-3.56,4.15-3.62,1.55-.05,2.21,.86,2.26,2.18,.06,1.44-2.39,3.08-4.61,3.07Z"/>
  <path class="cls-9" d="M45.52,51.96c1.08,.57,2.36,.69,3.3,1.55-.65,.14-1.29,.36-1.94,.4-1.45,.09-2.01-.54-1.36-1.95Z"/>
  <path class="cls-9" d="M25.08,28.57c.59,1.22,.48,2.44,0,3.68-.78,2.04-1.72,2.36-3.63,1.19,.77-1.94,1.74-3.75,3.62-4.87Z"/>
</svg>