<?xml version="1.0" encoding="UTF-8"?>
<svg id="Calque_1" data-name="Calque 1" xmlns="http://www.w3.org/2000/svg" viewBox="0 0 80 80">
  <defs>
    <style>
      .cls-1 {
        fill: #69443d;
      }

      .cls-2 {
        fill: #ed6a1c;
      }

      .cls-3 {
        fill: #f28b49;
      }

      .cls-4 {
        fill: #eb610d;
      }

      .cls-5 {
        fill: #f6af83;
      }

      .cls-6 {
        fill: #fcfcfc;
      }

      .cls-7 {
        fill: #ef782f;
      }

      .cls-8 {
        fill: #f39658;
      }

      .cls-9 {
        fill: #ee752c;
      }

      .cls-10 {
        fill: #e69b6b;
      }

      .cls-11 {
        fill: #fdfcfb;
      }

      .cls-12 {
        fill: #441b17;
      }

      .cls-13 {
        fill: #371111;
      }

      .cls-14 {
        fill: #3f1714;
      }

      .cls-15 {
        fill: #774a42;
      }

      .cls-16 {
        fill: #764942;
      }
    </style>
  </defs>
  <path class="cls-4" d="M26.57,34.22c2.02,.83,3.83,1.99,5.43,3.52,.35-1.09,.68-2.09,.99-3.08,.09-.29,.15-.59-.15-.81-.3-2.19,.73-4.05,1.51-5.97,.73-1.79,1.97-3.24,3.2-4.7,.51-.6,.45-.65-.31-.76-2.17-.29-3.98-1.33-5.64-2.68-.65-.52-1.27-1.08-1.75-1.77-.33-.47-.62-.42-.81,.1-.14,.37-.29,.72-.51,1.04-.52,1.54-.19,3.12-.22,4.69,0,.2,.09,.41,.04,.62-.04,.15-.1,.32-.27,.29-.15-.03-.13-.25-.24-.35-.3-1.06-.64-2.11-.69-3.22-.44-.84-.43-1.67,0-2.51,.19-.27-.16-.64,.16-.88,.18-.28,.02-.7,.39-.89h0c.11-.18,.15-.42,.37-.53h0c.2-.47,.57-.75,1.04-.92h0c.48-.4,.96-.45,1.43,.02,.16,.23,.13,.59,.46,.72,.31,.12,.22,.5,.45,.68h0c.21,.16,.42,.32,.52,.57,.11,.11,.23,.23,.34,.34,.43,.3,.85,.62,1.26,.95,.04,.05,.09,.09,.13,.14,.22,.07,.44,.16,.6,.34h0c.27,.23,.71,.17,.9,.53h0c.21,.17,.6,0,.71,.37h0c.83,.32,1.72,.47,2.52,.89,.25,.06,.49,.12,.72-.06,.21-.36,.52-.63,.86-.86l.02-.02c.39-.52,.93-.85,1.44-1.22,.06-.06,.12-.12,.19-.17,.17-.25,.5-.2,.7-.37h0c.21-.26,.49-.4,.8-.51l.05,.03,.05-.03c1.16-.71,2.48-.79,3.78-.9h-.01c1.13-.33,2.26-.36,3.38,0h0c.84,.09,1.67,.17,2.51-.03h.01c.52-.57,1.01-1.15,1.44-1.78h0c.31-.71,.55-1.46,.9-2.15,0-.22,0-.44,0-.65,.4-1,.21-2.05,.25-3.08,.03-.68-.09-1.53,.58-1.84,.61-.28,1.23,.24,1.71,.7,.25,.24,.69,.24,.81,.64,.17,.17,.34,.33,.51,.5,.36,.14,.6,.39,.75,.75,.1,.24,.3,.37,.5,.51,.09,.04,.16,.1,.19,.2,.05,.25,.01,.47-.26,.58-.68-.05-.95-.66-1.4-1.03-.18-.15-.33-.34-.52-.49-.18-.14-.35-.39-.61-.26-.22,.11-.17,.37-.16,.57,.12,3-1.03,5.45-3.18,7.47-.04,.04-.06,.1-.06,.19,.22,.33,.63,.27,.95,.37,2.08,.67,3.85,1.88,5.56,3.18,1,.76,2.04,1.46,2.87,2.4,.22,.24,.49,.44,.6,.77h0c.15,.22,.31,.43,.59,.5,.36,.22,.75,.42,1.03,.75h0c.33,.24,.82,.15,1.07,.54h0c.22,.16,.59,.02,.72,.36,.09,0,.18,.02,.27,.03,.42,.16,.83,.35,1.16,.66,.12,.06,.25,.13,.37,.19,.1,.23,.61-.01,.49,.33-.11,.32-.5,.24-.79,.18-1.81-.38-3.4-1.23-4.95-2.2-1.41-.89-2.81-1.8-4.29-2.57-2.91-1.52-5.74-.51-7.09,2.47-.92,2.03-.89,4.16-.87,6.31,0,.59,.06,1.2-.36,1.7-.17,.27-.45,.28-.73,.3-.79,.17-1.31-.23-1.88-.74-1.86-1.66-3.61-3.49-5.95-4.51-1.21-.53-2.45-.9-3.81-.7-1.03,.16-1.84,.64-2.47,1.46-.6,.79-1.05,1.65-1.36,2.6-.89,2.73-2.02,5.34-3.76,7.66-.5,.67-1.1,1.25-1.8,1.92,.8-.04,1.42,.13,2.05,.28,.57,.13,.87,.5,.9,1.08,.04,.8,.06,1.61-.15,2.4-.47,1.56-1.38,2.88-2.29,4.22-1.29,1.89-3.12,3.27-4.54,5.04-1.68,2.1-2.98,4.37-3.41,7.07-.09,.58-.32,1.13-.36,1.74-.11,2,.43,3.82,1.37,5.55,.14,.5,.38,.93,.89,1.12,.52,.2,.3-.16,.24-.35-.5-1.82-.65-3.67-.65-5.57,0-2.35,.69-4.47,1.88-6.43,2.44-4.01,5.98-6.66,10.41-8.14,.87-.29,1.71-.72,2.63-.88,.52-.12,1.08,0,1.58-.27,.09-.02,.18-.01,.27,.02,.55,.51,.55,1.28,.63,1.89,.27,2.23,1.64,3.6,3.31,4.83,.84,.62,1.83,.99,2.57,1.75,.1,.11,.2,.22,.26,.36,.64,1.14,1.46,2.16,2.09,3.31,.99,1.81,1.35,3.72,1.17,5.76-.04,.45-.14,.88-.36,1.28-.97,1.84-2.55,3.13-4.12,4.42-1.46,.92-2.95,1.77-4.53,2.47-.95,.25-1.89,.6-2.86,.74-1.91,.29-3.81,.72-5.79,.28-1.19-.26-2.45-.23-3.61-.69-.57-.23-1.12-.47-1.69-.71-.2-.18-.38-.44-.7-.23-1.64,.23-3.29,.37-4.93,.03-1.53-.32-3.01-.84-4.31-1.74-1.93-1.34-3.73-2.84-4.87-4.95-.78-1.43-1.11-2.99-1.33-4.61-.48-3.57,.73-6.72,2.17-9.84,.29-.63,.49-1.31,.73-1.97,.36-1.83,.38-3.67,.08-5.52,.52-.03,.65,.31,.84,.55,.51,.62,1.06,1.22,1.73,1.66,1.26,.83,2.21,.42,2.75-.96,.58-1.51,.01-2.81-.51-4.13-.35-.88-.84-1.71-1.34-2.52-.23-.38-.46-.77-.52-1.23-.05-.36-.09-.75,.25-.98,.34-.23,.7-.1,1.01,.1,.72,.48,1.45,.94,2.06,1.57,.55,.56,1.19,1,1.89,1.32,1.28,.59,1.8,.22,1.72-1.15-.03-.51-.12-1.01-.3-1.48-.17-.45-.23-.92-.33-1.39-.32-1.66,.86-3.13,2.66-2.47Z"/>
  <path class="cls-5" d="M51.59,33.54c.2-.37,.21-.77,.21-1.18,0-1.66-.16-3.34,.25-4.96,.57-2.24,1.47-4.29,3.95-5.03,1.39-.42,2.76-.27,4.03,.46,2.09,1.22,4.16,2.48,6.25,3.72,1.12,.67,2.36,.98,3.77,1.26-.24-.21-.37-.32-.49-.43,.57-.07,1.02,.28,1.5,.47,.48,.19,.64,.66,.23,1.09-2.29,2.34-3.65,5.31-5.46,7.97-1.3,1.91-2.57,3.84-4.32,5.39-.2,.18-.39,.37-.38,.68-1.41,.76-2.76,1.62-4.27,2.19-.56,.21-1.1,.45-1.69,.55-.5,.09-.99,.21-1.31,.67-.18,.27-.46,.35-.77,.39-2.19,.27-4.4,.36-6.58,.12-1.21-.13-2.44-.42-3.65-.68-.46-.1-.93-.28-1.34,.12-.11,.19-.16,.45-.46,.42-.22-.81-.84-1.12-1.56-1.41-1.88-.74-3.71-1.62-5.62-2.28-.7-.24-.85-.03-.81,.6,.02,.33,.03,.66-.02,.98-.05,.32-.08,.68-.55,.66,.26-.81,.16-1.64,.17-2.47,0-.34-.15-.65-.46-.68-.83-.1-1.63-.65-2.52-.14-.18-.45,.12-.64,.35-.85,2.34-2.17,3.73-4.92,4.77-7.88,.46-1.31,.88-2.63,1.69-3.79,1.37-1.96,3.36-2.13,5.35-1.57,3.04,.85,5.15,3.07,7.39,5.07,.5,.45,.91,.9,1.65,.66,.09,.42-.31,.45-.52,.6-.54,.4-.98,.87-1.32,1.43-.5,.81-.12,1.45,.83,1.5,1.29,.07,2.38-.44,3.38-1.18,.52-.38,.92-.94,.65-1.62-.28-.69-.92-.88-1.63-.83-.23,.01-.47,.13-.69-.04Z"/>
  <path class="cls-5" d="M41.06,46.73c.24-.12,.19-.34,.22-.55,.6,.02,.93,.5,1.33,.82,1.54,1.23,3.34,1.98,5.14,2.63,1.02,.37,2.24,.23,3.34-.09,.56-.16,1.11-.23,1.67-.13,1.12,.19,1.82,.93,2.06,2.06,.13,.61,0,1.25,.22,1.95,.55-.53,.69-1.17,.87-1.77,.24-.8,.48-1.6,.86-2.35,.64-1.28,1.66-2.14,2.92-2.78,1-.51,2.1-.86,2.87-1.75,.74,1.43,1.6,2.83,1.79,4.47,.3,2.59-.88,4.66-2.48,6.52-.85,.98-1.83,1.85-2.75,2.77-.49,.01-.82,.3-1.12,.65-.8,.93-1.72,1.73-2.75,2.41-.49,.32-.88,.33-1.18-.23-.31-.57-.81-.94-1.36-1.25-1.35-.77-2.73-1.47-4.15-2.08-.41-.18-.82-.36-1.15-.68-1.23-1.11-2.76-1.79-4.01-2.89-1.19-1.04-1.94-2.25-2.16-3.82-.1-.71-.34-1.41-.51-2.11-.05-.63-.35-1.3,.33-1.8Z"/>
  <path class="cls-5" d="M26.57,34.22c-.34,.25-.69-.05-1.04,.02-1.01,.21-1.67,1.25-1.43,2.28,.17,.74,.32,1.49,.56,2.22,.13,.38,.16,.75,.16,1.14,0,1.32-.62,1.73-1.87,1.2-.85-.36-1.61-.87-2.26-1.55-.62-.65-1.37-1.13-2.13-1.6-.53-.33-.75-.14-.75,.46,0,.57,.3,1.01,.55,1.47,.76,1.39,1.55,2.75,1.96,4.33,.32,1.23,.04,2.29-.45,3.33-.38,.81-1.51,.97-2.43,.47-1.09-.59-1.86-1.53-2.64-2.52,.3,1.83,.3,3.62-.23,5.39-.17-.79,.18-1.53,.23-2.3,.14-2.56-.66-4.84-2.02-6.95-1.51-2.35-3.53-3.94-6.37-4.43-.58-.1-1.27-.18-1.79-.63-.3-.26-.35-.38,.04-.56,5.71-2.54,11.69-3.44,17.89-2.96,1.39,.11,2.75,.54,4.01,1.2Z"/>
  <path class="cls-5" d="M28.38,18.81c.45-.26,.26-.84,.57-1.16,.3-.32,.45-.68,.95-.01,1.55,2.08,3.6,3.54,6.14,4.27,.57,.16,1.12,.35,1.73,.3,.21-.02,.44,0,.52,.24,.08,.21-.12,.31-.22,.45-.67,.98-1.54,1.79-2.21,2.78-1.15,1.67-1.79,3.56-2.53,5.42-.36,.92-.09,1.89-.49,2.76-1.35-1.62-2.63-3.29-3.53-5.22-.1-.21-.17-.44-.25-.66,.1-.79-.54-1.4-.53-2.16-.42-.73-.35-1.57-.39-2.33-.07-1.55-.25-3.13,.23-4.66Z"/>
  <path class="cls-5" d="M64.34,24.36c-.91-.49-1.44-1.41-2.27-2.01-1.75-1.25-3.4-2.66-5.38-3.56-.69-.31-1.38-.67-2.16-.69-.26,0-.49-.1-.59-.33-.14-.3,.17-.4,.34-.54,1.43-1.21,2.27-2.74,2.79-4.53,.29-1,.23-1.98,.29-2.98,.01-.25-.13-.58,.2-.7,.27-.1,.53,.09,.72,.27,.66,.6,1.29,1.22,1.94,1.84,.76,.44,1.06,1.26,1.52,1.93,.39,.56,.72,1.16,1.21,1.65,.14,.09,.24,.22,.32,.37-.05,.6,.35,1.06,.48,1.6,.35,.42-.03,1.05,.42,1.43,.01,.35,.03,.71,.04,1.06,.42,.28,.1,.77,.31,1.11-.15,1.36,.16,2.74-.17,4.09Z"/>
  <path class="cls-10" d="M62.56,44.77c.03,.49-.25,.7-.67,.92-1.2,.63-2.5,1.09-3.56,1.97-1.48,1.21-1.85,2.99-2.41,4.68-.18,.54-.22,1.49-.89,1.42-.68-.08-.31-.95-.33-1.47-.08-2.23-1.5-3.02-3.69-2.48-1.36,.34-2.94,.58-4.32-.31-.59-.39-1.26-.66-1.9-.91-1.38-.54-2.44-1.47-3.52-2.4,.26-.67,.93-.43,1.21-.3,.95,.45,1.98,.16,2.94,.47,2.18,.72,4.42,.39,6.65,.22,.33-.03,.65-.01,.98-.03,.33-.01,.59,0,.71-.47,.1-.39,.64-.5,.98-.56,2.03-.35,3.77-1.33,5.49-2.38,.29-.18,.56-.32,.9-.17,.58,.52,1.02,1.14,1.43,1.79Z"/>
  <path class="cls-1" d="M47.4,57.34c.84,.01,1.45,.6,2.16,.91,1.24,.53,2.41,1.23,3.59,1.89,.3,.17,.68,.39,.8,.69,.46,1.1,1.03,.79,1.7,.25,.96-.76,1.8-1.64,2.63-2.54,.31-.33,.55-.44,.83,0,0,1.01,.07,2.03-.01,3.04-.15,1.76-.21,3.54-.5,5.29-.09,.52-.05,1.07-.07,1.6-.02,.65-.01,1.28-.23,1.93-.31,.95-.08,1.12,.92,1.25,1.59,.21,2.56,1.05,2.82,2.35,.13,.67-.03,.91-.74,.9-2.95-.03-5.89-.01-8.84-.01-3.28,0-6.55,0-9.83,0-.31,0-.75,.22-.87-.33,.12-.25,.3-.45,.56-.54,1.39-.52,2.58-1.4,3.88-2.09,1.16-.37,2.36-.14,3.54-.17,1.52-.04,1.63,.08,.91-1.4-.42-.86-.68-1.78-.46-2.76,.95-2.81,.11-5.3-1.3-7.72-.49-.85-1.3-1.51-1.52-2.52Z"/>
  <path class="cls-9" d="M62.94,14.87c-.64-.23-.89-.87-1.18-1.36-.49-.81-1.09-1.55-1.54-2.39,.22-.13,.17-.35,.19-.55,.58,.18,.7,.78,1.05,1.16,0,.27,.16,.45,.31,.65,.47,.13,.33,.65,.59,.91-.02,.34,.2,.58,.32,.87,.26,.17,.39,.38,.26,.7Z"/>
  <path class="cls-7" d="M28.38,18.81c-.06,.94-.2,1.87-.24,2.82-.06,1.5,.32,2.91,.57,4.34,0,.15-.03,.29-.15,.4-.07,.03-.14,.01-.18-.05-.18-.65-.37-1.31-.55-1.96,.12-.03,.43,.44,.33-.03-.28-1.34-.08-2.67-.15-4-.03-.54,.09-1.05,.37-1.52Z"/>
  <path class="cls-6" d="M58.6,8.66c-.65-.4-1.23-.91-1.94-1.23-.47-.21-.68-.24-.85,.39-.28,1.06-.23,2.11-.23,3.17,0,.46-.05,.88-.35,1.25,.21-1.26,.15-2.54,.16-3.81,0-1.15,.51-1.53,1.57-1.1,.66,.27,1.3,.63,1.63,1.33Z"/>
  <path class="cls-6" d="M50.38,16.86c-1.13-.12-2.26-.02-3.38,0,.09-.25,.27-.38,.53-.38,.82,0,1.64,0,2.46,0,.25,0,.37,.13,.39,.37Z"/>
  <path class="cls-6" d="M47.01,16.85c-1.31,.08-2.54,.51-3.78,.9,.76-.74,1.74-.83,2.72-.91,.35-.03,.71,0,1.06,.01Z"/>
  <path class="cls-6" d="M27.14,18.63c-.29,.84-.21,1.67,0,2.51-.55-.47-.55-2.03,0-2.51Z"/>
  <path class="cls-6" d="M38.4,20.97c-.86-.26-1.75-.41-2.52-.9,.89,.15,1.8,.26,2.52,.9Z"/>
  <path class="cls-2" d="M28.54,26.34c.01-.14,.03-.28,.17-.36,.1,.67,.77,1.24,.35,1.99-.1-.26-.21-.52-.31-.77-.15-.27-.17-.56-.21-.86Z"/>
  <path class="cls-6" d="M54.33,15.05c-.27,.76-.81,1.31-1.44,1.77,.33-.71,.88-1.25,1.44-1.77Z"/>
  <path class="cls-6" d="M55.23,12.9c-.27,.73-.38,1.53-.9,2.16,.11-.8,.38-1.53,.9-2.16Z"/>
  <path class="cls-6" d="M52.88,16.83c-.18,.22-.34,.28-.67,.21-.59-.14-1.22-.13-1.83-.19,.84,0,1.67-.01,2.51-.02Z"/>
  <path class="cls-6" d="M41.43,18.81c-.37,.54-.98,.79-1.44,1.22,.27-.65,.75-1.06,1.44-1.22Z"/>
  <path class="cls-6" d="M61.47,11.74c-.51-.24-.61-.86-1.05-1.16-.01-.06-.03-.11-.06-.16,.76,.11,.88,.77,1.11,1.32Z"/>
  <path class="cls-6" d="M29.08,15.4c-.35,.31-.7,.62-1.04,.93,.02-.68,.43-.92,1.04-.93Z"/>
  <path class="cls-6" d="M33.54,18.7c-.53-.17-.91-.54-1.26-.95,.56,.13,.98,.45,1.26,.95Z"/>
  <path class="cls-6" d="M69.18,27.2c-.49-.05-.83-.35-1.16-.66,.46,.09,1.02,0,1.16,.66Z"/>
  <path class="cls-6" d="M30.51,15.43c-.47-.44-.95-.28-1.43-.03,.5-.52,.99-.51,1.43,.03Z"/>
  <path class="cls-6" d="M65.96,25.61c-.36-.24-.72-.47-1.08-.71-.06-.03-.08-.07-.07-.11,.01-.04,.03-.06,.05-.06,.42,.22,.93,.34,1.1,.89Z"/>
  <path class="cls-6" d="M39.98,20.05c-.24,.34-.52,.62-.86,.86,.07-.5,.38-.77,.86-.86Z"/>
  <path class="cls-6" d="M64.17,18.11c-.55-.36-.23-.97-.42-1.43,.44,.39,.18,.98,.42,1.43Z"/>
  <path class="cls-6" d="M35.17,19.71c-.32-.14-.69-.21-.9-.54,.39,.02,.8,.02,.9,.54Z"/>
  <path class="cls-6" d="M67.03,26.15c-.39-.12-.75-.29-1.07-.54,.42,.06,.9,0,1.07,.54Z"/>
  <path class="cls-6" d="M62.94,14.87c-.09-.23-.17-.46-.26-.7,.59,.04,.46,.55,.59,.9-.11-.07-.22-.13-.33-.2Z"/>
  <path class="cls-6" d="M64.52,20.27c-.1-.37-.21-.74-.31-1.11,.59,.23,.21,.74,.31,1.11Z"/>
  <path class="cls-6" d="M27.68,16.86c-.18,.27-.05,.68-.39,.89,.09-.31-.24-.81,.39-.89Z"/>
  <path class="cls-6" d="M62.37,13.3c-.36-.2-.32-.66-.59-.91,.61,.04,.49,.55,.59,.91Z"/>
  <path class="cls-6" d="M59.86,9.91c-.25-.25-.5-.5-.75-.75,.49,.01,.73,.26,.75,.75Z"/>
  <path class="cls-5" d="M28.54,26.34c.17,.26,.22,.55,.21,.86-.24-.24-.3-.56-.37-.88,.05,0,.11,.01,.16,.02Z"/>
  <path class="cls-6" d="M42.32,18.27c-.2,.19-.42,.35-.7,.37,.05-.48,.42-.33,.7-.37Z"/>
  <path class="cls-6" d="M43.13,17.76c-.16,.33-.54,.33-.8,.5,.1-.44,.43-.49,.8-.5Z"/>
  <path class="cls-6" d="M31.42,16.83c-.28-.14-.43-.37-.45-.68,.41,.06,.45,.36,.45,.68Z"/>
  <path class="cls-3" d="M27.12,73.94c.45-.59,.53-.04,.7,.23-.23-.08-.47-.15-.7-.23Z"/>
  <path class="cls-6" d="M67.75,26.51c-.24-.12-.48-.24-.72-.36,.28,.03,.66-.12,.72,.36Z"/>
  <path class="cls-5" d="M64.86,24.72c.02,.06,.03,.12,.02,.18-.32-.03-.53-.19-.54-.53,.17,.12,.35,.24,.52,.36Z"/>
  <path class="cls-6" d="M34.28,19.17c-.25-.02-.44-.15-.6-.34,.28-.02,.57-.07,.6,.34Z"/>
  <path class="cls-6" d="M31.94,17.4c-.17-.19-.34-.38-.52-.57,.35,.03,.53,.21,.52,.57Z"/>
  <path class="cls-6" d="M28.05,16.32c.02,.28-.21,.39-.37,.54-.02-.28-.04-.56,.37-.54Z"/>
  <path class="cls-6" d="M35.88,20.08c-.24-.12-.47-.25-.71-.37,.28,.03,.67-.13,.71,.37Z"/>
  <path class="cls-13" d="M51.59,33.54c.54-.19,1.04-.31,1.63-.06,1.09,.45,1.43,1.44,.61,2.29-1.18,1.23-2.65,1.85-4.39,1.66-.75-.08-1.08-.81-.74-1.54,.46-1.01,1.29-1.65,2.2-2.22,.23-.04,.46-.08,.7-.12Z"/>
  <path class="cls-11" d="M50.22,67.59c.22,1.48,.69,2.88,1.52,4.32-1.93,0-3.73,0-5.52,0,.53-.73,1.36-1.11,1.97-1.76,.75-.8,1.46-1.62,2.03-2.56Z"/>
  <path class="cls-8" d="M23.35,69.13c.41,.27,.62,.68,.86,1.08-.55-.15-.73-.6-.86-1.08Z"/>
  <path class="cls-5" d="M38.95,48.9c.49-.32,1.09-.14,1.6-.36-.43,.59-1.06,.28-1.6,.36Z"/>
  <path class="cls-12" d="M38.92,35.74c-.15,.3,.32,1.01-.33,1.03-.55,.01-.36-.73-.41-1.12-.07-.52,.02-1.08,.16-1.58,.32-1.16,1.41-1.63,2.53-1.17,1.22,.5,2.18,1.3,2.87,2.42,.17,.28,.29,.6,0,.79-.32,.21-.42-.19-.59-.37-.52-.53-1.02-1.09-1.57-1.58-.56-.5-1.27-.8-1.96-.46-.63,.31-.73,1.03-.71,1.71,0,.09,0,.18,0,.34Z"/>
  <path class="cls-14" d="M57.63,29.5c0,.09,0,.18,0,.27-.03,.42,.23,1.08-.35,1.13-.66,.05-.49-.65-.55-1.09-.12-.76,.13-1.48,.36-2.17,.43-1.27,2.2-1.87,3.43-1.2,.54,.3,1.07,.64,1.48,1.12,.16,.19,.48,.38,.23,.67-.23,.26-.47,.06-.7-.11-.42-.32-.83-.66-1.29-.92-1.25-.69-2.46-.01-2.57,1.41-.02,.3,0,.59,0,.89,0,0-.01,0-.02,0Z"/>
  <path class="cls-12" d="M52.31,41.54c-1.29,0-2.69-1.18-2.92-2.35-.04-.21-.07-.45,.15-.56,.23-.12,.37,.06,.49,.25,.31,.47,.59,.97,.98,1.37,.41,.42,.95,.77,1.58,.51,.64-.27,.91-.82,.92-1.5,0-.33,0-.66,.05-.98,.04-.24,.21-.48,.47-.46,.25,.02,.45,.25,.4,.51-.16,.83-.14,1.73-.62,2.47-.37,.55-.89,.87-1.49,.74Z"/>
  <path class="cls-15" d="M48.94,58.54c1.07,.56,2.13,1.16,3.23,1.67,1.91,.89,2.22,2.6,2.55,4.42,.38,2.14,.37,4.4,1.57,6.34,.42,.69,.99,.98,1.83,1.02,1.17,.06,2.27,.4,3.08,1.37,.23,.28,.38,.55,.25,.89-.13,.34-.45,.22-.7,.22-2.38,.05-4.75-.3-7.13-.18-.48,.03-.69-.19-.72-.68-.06-1-.49-1.89-.98-2.72-.96-1.61-1.11-3.29-.88-5.11,.25-1.93-.27-3.75-1.24-5.43-.32-.55-.65-1.1-.97-1.65l.13-.17Z"/>
  <path class="cls-15" d="M58.46,59.45c-.08,2.1,.11,4.03-.32,5.95-.24,1.06-.17,2.18-.23,3.28-.02,.42,0,.84,0,1.25,0,.5-.09,1.11-.54,1.21-.47,.11-.66-.54-.83-.91-.68-1.49-.96-3.1-1.11-4.72-.09-.98-.45-1.9-.44-2.9,0-.25-.08-.45,.17-.61,1.13-.71,2.13-1.58,3.31-2.54Z"/>
  <path class="cls-16" d="M43.4,74.17c.71-.42,1.31-.78,1.92-1.14,.6-.35,1.21-.55,1.93-.52,1.43,.05,2.86-.03,4.29,.02,.76,.03,.65,.79,.82,1.27,.19,.54-.24,.51-.56,.51-2.68,0-5.37,0-8.05,0-.08,0-.16-.05-.36-.13Z"/>
</svg>