<?xml version="1.0" encoding="UTF-8"?>
<svg id="Calque_1" data-name="Calque 1" xmlns="http://www.w3.org/2000/svg" viewBox="0 0 141.73 141.73">
  <defs>
    <style>
      .cls-1 {
        fill: #fff;
      }
    </style>
  </defs>
  <path class="cls-1" d="M73.43,119.92c-.5,0-.95-.35-1.06-.86-.05-.25-5.54-24.79-28.42-31.42-.58-.17-.91-.77-.74-1.34,.17-.57,.76-.91,1.34-.74,24.15,7.01,29.88,32.8,29.94,33.06,.12,.58-.25,1.16-.84,1.29-.08,.02-.15,.02-.23,.02Z"/>
  <path class="cls-1" d="M73.43,119.92s-.04,0-.06,0c-.6-.04-1.05-.55-1.02-1.15,.03-.55,3-55-23.66-78.78-.45-.4-.49-1.08-.09-1.53s1.08-.49,1.53-.09c27.45,24.48,24.51,78.26,24.37,80.53-.03,.57-.51,1.02-1.08,1.02Z"/>
  <path class="cls-1" d="M74.36,118.58h-.03c-.6-.02-1.07-.52-1.05-1.12,.01-.46,1.82-46.52,34.34-54.3,.59-.14,1.17,.22,1.3,.8,.14,.58-.22,1.17-.8,1.31-30.92,7.4-32.66,51.81-32.68,52.26-.02,.59-.5,1.05-1.08,1.05Z"/>
  <path class="cls-1" d="M69.57,75.9l-1.07-.4c-.39-.15-39.06-15-30.65-55.13l.23-1.12,1.11,.3c.81,.22,19.95,5.49,28.9,21.81,5.22,9.5,5.83,20.76,1.82,33.46l-.34,1.09ZM39.74,21.99c-6.35,33.77,22.47,48.4,28.45,51.04,3.43-11.64,2.77-21.93-1.99-30.61-7.3-13.32-22.27-19.05-26.46-20.43Z"/>
  <path class="cls-1" d="M90.16,83.92c-1.88,0-3.85-.25-5.91-.78l-.81-.21v-.84c0-.58,.11-14.29,9.84-22.56,6.23-5.29,14.91-7.07,25.82-5.29l1.26,.21-.41,1.21c-.1,.31-9.76,28.26-29.79,28.26Zm-4.52-2.68c19.02,4.21,29.55-19.35,31.79-25.06-9.63-1.32-17.27,.35-22.74,4.99-7.64,6.49-8.86,17.02-9.05,20.07Z"/>
  <path class="cls-1" d="M55.32,100.47c-1.97,0-4.21-.3-6.61-1.15-6.87-2.45-12.61-8.6-17.06-18.3l-.13-.29,.04-.32c.22-1.61,6.75-2.61,8.4-2.73,6.52-.44,18.2,1.57,23.35,20l.24,.87-.81,.4c-.18,.09-3.13,1.5-7.43,1.5Zm-21.24-19.37c4.12,8.58,9.28,14.02,15.36,16.18,5.24,1.87,9.72,.71,11.52,.08-2.53-8.38-6.71-13.83-12.44-16.21-5.9-2.44-12.08-.91-14.43-.04Z"/>
</svg>