<?xml version="1.0" encoding="UTF-8"?>
<svg id="Calque_1" data-name="Calque 1" xmlns="http://www.w3.org/2000/svg" viewBox="0 0 141.73 141.73">
  <defs>
    <style>
      .cls-1 {
        fill: #fff;
      }
    </style>
  </defs>
  <path class="cls-1" d="M109.84,32.56c-.58-1.81-3.48-8.82-5.33-8.63l-.36,.04-.28,.23c-3.48,2.76-6.39,5.58-8.74,8.45,0,0,0,0,0,0H52.48c-.11,0-.22,.03-.32,.07-2.35-2.89-5.28-5.73-8.79-8.51l-.28-.23-.36-.04c-1.85-.19-4.75,6.82-5.33,8.63-2.25,7.11-3.18,20.58,15.65,31.31,5.01,7.33,11.25,12.38,15.55,15.3-.03,.11-.05,.22-.05,.34,1.57,22.57-3.07,35.72-14.21,40.2-.51,.21-.8,.74-.7,1.28,.1,.54,.58,.93,1.13,.93h36.75c.56,0,1.03-.4,1.13-.95,.1-.55-.21-1.09-.74-1.28-13.44-4.89-15.15-24.32-14.19-39.89,4.28-2.79,11.1-8.05,16.49-15.93,18.83-10.74,17.9-24.2,15.65-31.31Zm-62.45,7.15c-.03-.69-.61-1.22-1.3-1.19-.69,.03-1.22,.6-1.19,1.3,.32,7.44,2.38,13.85,5.25,19.28-6.53-4.63-10.31-10.01-11.24-16.05-1.12-7.25,2.27-13.72,3.88-16.11,8.45,6.93,13.11,14.17,13.87,21.54,.59,5.77-1.42,10.16-2.69,12.29-3.54-5.69-6.21-12.68-6.57-21.04Zm28.07,38.57h-.12c.09,1.15-.03,3.31-.02,3.29-.89,19.2,3.05,32.2,11.48,38.05h-27.44c8.97-6.11,12.76-18.93,11.56-38.94-.08-1.25-.07-1.52-.08-3-3.98-2.6-10.28-7.43-15.37-14.67,.81-1.16,2.29-3.64,3.15-7.13,.54-2.19,.82-4.78,.52-7.68-.46-4.51-2.24-8.95-5.29-13.27h39.54c-3.05,4.33-4.83,8.76-5.29,13.27-.3,2.9-.02,5.49,.52,7.68,.85,3.5,2.34,5.97,3.15,7.13-5.5,7.82-12.43,12.85-16.3,15.26Zm32.86-35.25c-.94,6.04-4.72,11.43-11.24,16.05,2.87-5.43,4.93-11.83,5.25-19.28,.02-.7-.51-1.27-1.19-1.3-.69-.03-1.27,.5-1.3,1.19-.36,8.35-3.03,15.34-6.57,21.04-1.27-2.13-3.28-6.52-2.69-12.29,.76-7.36,5.42-14.6,13.87-21.54,1.61,2.39,5,8.87,3.88,16.11Z"/>
</svg>