<?xml version="1.0" encoding="UTF-8"?>
<svg id="Calque_1" data-name="Calque 1" xmlns="http://www.w3.org/2000/svg" viewBox="0 0 141.73 141.73">
  <defs>
    <style>
      .cls-1 {
        font-family: Helvetica-Light, Helvetica;
        font-size: 21px;
        font-weight: 300;
      }

      .cls-1, .cls-2 {
        fill: #fff;
      }
    </style>
  </defs>
  <path class="cls-2" d="M97.19,38.95c-4.2-11.11-10.85-18.69-19.77-22.51-15.42-6.62-31.94,.26-32.64,.56l-.95,.4,.46,.93c15.23,30.99,47.4,23.5,51.86,22.29,2.78,2.15,5.57,4.47,8.42,7.1,.36,.33,.89,.35,1.27,.05,.04-.03,.08-.07,.11-.11,.37-.39,.34-1.01-.05-1.38-2.94-2.73-5.83-5.12-8.71-7.34ZM46.52,18.42c3.74-1.35,17.53-5.59,30.12-.19,7.57,3.25,13.41,9.45,17.43,18.38-10.63-7.56-20.88-11.64-31.06-12.33-.53-.04-1,.37-1.04,.91-.04,.54,.37,1,.91,1.04,10.22,.69,20.55,4.93,31.33,12.87-7.31,1.76-33.89,6.02-47.69-20.69Z"/>
  <path class="cls-2" d="M36.09,23.86c-8.43,8.37-12.65,17.52-12.51,27.22,.24,16.78,13.25,29.07,13.81,29.58l.76,.7,.66-.79c22.1-26.54,2.15-52.86-.77-56.44,.83-3.41,1.81-6.91,3.06-10.58,.16-.46-.05-.96-.47-1.18-.04-.02-.09-.04-.14-.06-.51-.17-1.07,.1-1.24,.61-1.29,3.79-2.3,7.41-3.15,10.94Zm1.89,54.63c-2.75-2.86-12.25-13.73-12.44-27.44-.12-8.24,3.16-16.09,9.68-23.4-2.58,12.79-2.13,23.81,1.4,33.39,.18,.5,.74,.77,1.26,.58,.51-.19,.77-.75,.58-1.26-3.53-9.61-3.87-20.77-1.01-33.85,4.58,5.96,19.3,28.5,.53,51.98Z"/>
  <path class="cls-2" d="M49.52,84.79c11.68,2.18,21.61,.44,29.51-5.19,13.67-9.74,16.38-27.43,16.49-28.18l.15-1.02-1.03-.09c-34.39-3.09-44.71,28.29-45.99,32.72-3.28,1.26-6.71,2.44-10.44,3.5-.47,.13-.76,.58-.7,1.05,0,.05,.02,.1,.03,.15,.15,.52,.69,.82,1.21,.67,3.86-1.09,7.41-2.32,10.79-3.63Zm43.87-32.62c-.79,3.89-4.33,17.88-15.5,25.83-6.71,4.78-15.04,6.55-24.76,5.34,11.98-5.15,20.8-11.79,26.67-20.13,.31-.44,.21-1.05-.24-1.36-.44-.31-1.05-.2-1.36,.24-5.9,8.37-14.89,14.99-27.28,20.08,2.29-7.16,12.47-32.08,42.46-29.99Z"/>
  <g>
    <line class="cls-2" x1="93.08" y1="75.25" x2="126.46" y2="108.62"/>
    <path class="cls-2" d="M126.46,110.12c-.38,0-.77-.15-1.06-.44l-33.37-33.37c-.59-.59-.59-1.54,0-2.12,.59-.59,1.54-.59,2.12,0l33.37,33.37c.59,.59,.59,1.54,0,2.12-.29,.29-.68,.44-1.06,.44Z"/>
  </g>
  <text class="cls-1" transform="translate(48.19 135.17)"><tspan x="0" y="0">Maps</tspan></text>
</svg>