<svg id="Calque_2" data-name="Calque 2" xmlns="http://www.w3.org/2000/svg" viewBox="0 0 38.29 100.67">
  <defs>
    <style>
      .cls-1 {
        fill: #027814;
      }
    </style>
  </defs>
  <g id="Calque_1-2" data-name="Calque 1">
    <path class="cls-1" d="M33.54,54.62c3.69-12.31,2.99-23.25-2.09-32.52C22.48,5.78,3.35,.51,2.54,.3l-1.11-.3-.23,1.12C-6.64,38.53,26.43,53.97,31.26,56.01c-3.38-13.1-9.21-26.35-19.22-35.27-.45-.4-.49-1.08-.09-1.53s1.08-.49,1.53-.09c10.16,9.06,16.16,22.14,19.67,35.14-.34,.88-.53,1.41-.64,1.71-.06,.11-.13,.26-.22,.45-.12,.24-.26,.53-.43,.9,5.25,21.33,4.13,41.86,4.11,42.2-.03,.57,.38,1.05,.93,1.13,.03,0,.05,.02,.09,.02,.02,0,.05,0,.06,0,.57,0,1.05-.44,1.08-1.02,.09-1.43,1.27-23.05-4.6-45.03Z"/>
  </g>
</svg>