<?xml version="1.0" encoding="UTF-8"?>
<svg id="Calque_1" data-name="Calque 1" xmlns="http://www.w3.org/2000/svg" viewBox="0 0 80 80">
  <defs>
    <style>
      .cls-1 {
        fill: #6a7149;
      }

      .cls-2 {
        fill: #ea5668;
      }

      .cls-3 {
        fill: #b71923;
      }

      .cls-4 {
        fill: #324e21;
      }

      .cls-5 {
        fill: #e40921;
      }

      .cls-6 {
        fill: #e30a1b;
      }

      .cls-7 {
        fill: #53722d;
      }

      .cls-8 {
        fill: #334e21;
      }

      .cls-9 {
        fill: #54722d;
      }

      .cls-10 {
        fill: #50722c;
      }

      .cls-11 {
        fill: #4f722c;
      }

      .cls-12 {
        fill: #4e712c;
      }

      .cls-13 {
        fill: #4e702c;
      }

      .cls-14 {
        fill: #4e722c;
      }
    </style>
  </defs>
  <path class="cls-1" d="M31.95,43.06c-.21-4.33,.05-8.6,1.63-13.17-2.53,1.68-4.81,2.82-7.35,3.3-2.67,.5-4.84-.57-6.81-2.23-.61-.51-.4-1.13,.06-1.51,2.05-1.68,3.68-3.85,6.05-5.17,2.93-1.63,5.97-1.83,9.26-.76,0-.48,.04-.82,0-1.16-.11-.73,.32-1.09,.91-1.25,.55-.16,1.3-.3,1.59,.28,1.18,2.34,3.06,1.51,4.79,1.1,2.17-.52,4.19-1.68,6.46-1.72,5-.07,8.67,2.48,11.48,6.33,2.64,3.62,3.06,3.34-1.64,5.11-4.23,1.59-8.33,1.24-12.25-1.04-.43-.25-.88-.46-1.45-.59,1.94,2.88,2.73,6.12,3.42,9.41-.04,.56-.3,.83-.88,.66-.42-.29-.56-.72-.61-1.19-.32-2.68-1.36-5.11-2.64-7.44-.35-.71-.79-1.37-1.31-1.98-.16-.18-.31-.37-.44-.57-.41-.72-1.07-1.23-1.55-1.9-1.39-1.61-2.75-3.24-4.27-4.93-.65,.91-.43,1.82-.56,2.62-.51,3.09-1.42,6.09-2.13,9.13-.64,2.74-.59,5.51-.46,8.29,.03,.57,.26,1.14-.07,1.7-1.12,.21-1.25-.48-1.21-1.33Z"/>
  <path class="cls-3" d="M47.4,40.71c.22-.24,.45-.48,.67-.72,2.44-.97,4.85-1.04,7.39-.22,4.71,1.52,6.63,7.51,5.42,11.67-1.04,3.57-3.45,5.88-6.58,7.35-2.51,1.18-5.2,.41-7.66-.67-.99-.43-1.85-1.15-2.86-1.8-1.08,1.99-2.22,3.95-4.26,5.2-4.7,2.9-10.99,1.39-13.55-3.49-2.02-3.86-2.17-7.94,.24-11.67,1.23-1.91,2.88-3.85,5.73-3.31,.35,.5,.71,.99,1.06,1.49,1.15,.09,1.01-.88,1.26-1.54,.13-.22,.31-.4,.52-.55,1.67-.93,3.29-.49,4.81,.32,.89,.48,1.46,.64,2.15-.33,.77-1.07,1.97-1.6,3.31-1.71,.34,0,.64,.11,.92,.29,.6,.49,1.02,.12,1.42-.31Z"/>
  <path class="cls-4" d="M54.63,32.24c-.33,0-.67,0-1,0-.77-1.35-.93-2.94-1.77-4.27-.7-1.1-1.52-1.82-2.89-1.79,.59,1.91,1.83,3.6,1.49,5.71-.38,0-.79,.09-1.04-.32-.98-1.39-1.13-3.15-2.04-4.58-.58-.91-1.22-1.51-2.42-1.16,.66,1.6,2.16,2.79,2.03,4.68-.55-.06-1.04-.26-1.4-.7-1.36-2.28-2.86-4.39-5.58-5.2-.15-.15-.41-.29-.44-.46-.04-.31,.28-.24,.48-.28,1.4-.31,3.01,.25,4.17-1.04,.49-.44,1.11-.55,1.73-.66,.33,.69-.58,1.09-.37,1.91,1.98,0,3.17-1.79,4.92-2.26,.39,0,.8-.09,1.06,.31-.24,1.1-1.37,1.43-2.02,2.25,1.12,.5,2.15,.36,3.21,.02,.85-.28,1.67-.81,2.64-.54,.48,.03,.82,.25,1.02,.7-.84,.79-1.82,1.14-2.78,1.07,1.29,.72,2.88,.95,4.55,.69,.22,.23,.44,.46,.67,.69-.21,.47-.51,.75-1.06,.48,.87,.47,1.79,.87,2.46,1.65,0,.45,1.42,.88,.03,1.36-.94-.14-1.67-.72-2.62-1.24,.3,.71,.65,1.29,.51,1.97-.25,.4-.65,.32-1.03,.33-.67-.4-.74-1.15-1.02-1.76-.52-1.14-1.27-2-2.51-2.37,.52,1.58,1.48,3.04,1.04,4.81Z"/>
  <path class="cls-1" d="M34.85,42.71c-.13,.13-.27,.26-.4,.38-1.15-.26-1.01-1.25-1.14-2.06-.44-2.67-.07-5.3,.52-7.9,.56-2.48,1.32-4.91,1.83-7.41,.37-1.8,1.26-2.04,2.64-.76,.81,.75,1.57,1.55,2.31,2.37,.5,.81,1.35,1.34,1.85,2.15,.11,.11,.22,.22,.33,.33,.38,.7,.85,1.34,1.25,2.02,1.08,2.06,1.89,4.22,2.22,6.53,.14,1.01,.42,2.07-.34,2.99-.22-.13-.44-.26-.66-.39-.61-.58-.54-1.39-.67-2.11-1.09-5.98-2.62-8.57-7.39-12.51-.34,2-1.06,3.91-1.55,5.88-.74,3.02-1.01,6.06-.57,9.15,.07,.47,.07,.93-.23,1.33Z"/>
  <path class="cls-8" d="M28.87,23.91c.34,0,.68-.02,1.02-.03,.42,.04,.81,.21,1.09,.49,.76,.78,1.61,1.04,2.66,.66,.28-.1,.57,.03,.79,.24,0,.23,0,.46,0,.7-1.73,.86-1.91,2.74-2.78,4.17-.23,.12-.45,.24-.68,.35-.81-.76-.15-1.72-.3-2.6-1.26,.07-1.55,.99-1.85,1.92-.23,.74-.16,1.63-.99,2.08-.13,.02-.26,.03-.38,.05-1.38-.61-.14-1.72-.52-2.61-.9,.1-1.11,.79-1.35,1.5-.19,.54,.06,1.37-.86,1.48-.23-.02-.46-.05-.7-.07-.04-1.37-.56-2.02-2.02-1.43-.5,.2-1.03,.02-1.49-.27-.38-.25-.38-.49,0-.74,.45-.23,.87-.61,1.36-.64,1.15-.06,1.12-.62,.72-1.42,.13-.12,.25-.24,.38-.36,1.14-.27,2.23,1.08,3.46,.05-.16-.79-1.61-.69-1.39-1.79,.23-.12,.47-.24,.7-.37,.9,.02,1.63,.57,2.45,.82,.67,.21,1.32,.44,2.05,0-.26-.85-1.59-1.07-1.34-2.19Z"/>
  <path class="cls-11" d="M40.72,27.73c-1.3-.78-2.06-2.16-3.38-2.94-.68-.4-.97-.44-1.17,.42-.97,4.12-2.51,8.16-2.65,12.41-.06,1.78-.24,3.81,.92,5.48,0,.61,0,1.21,0,1.86-.55-.12-1.06-.02-1.44-.41-.84-4.84-.13-9.54,1.18-14.2,.69-2.45,1.34-4.9,1.3-7.48-.01-.77,.4-1.54,1.05-.76,1.54,1.85,3.38,3.46,4.53,5.62-.12,.14-.23,.15-.34,0Z"/>
  <path class="cls-14" d="M50.45,31.9c-.64-2.03-1.06-4.14-2.34-6.14,1.66-.12,2.96-.01,3.8,1.47,.89,1.57,1.81,3.12,1.72,5.02-1.06-.11-2.18,.37-3.18-.34Z"/>
  <path class="cls-14" d="M46.98,30.52c-.82-1.76-1.67-3.5-2.96-5.03,2.04-.66,3.27,.04,4.02,1.86,.57,1.38,1.22,2.72,1.36,4.23-.95-.04-1.74-.43-2.43-1.06Z"/>
  <path class="cls-14" d="M55.36,23.87c-2.16,.91-4.32,1.83-6.98,.79,1.11-.89,2.13-1.71,3.16-2.53,1.43,.24,2.8,.6,3.82,1.73Z"/>
  <path class="cls-14" d="M54.63,32.24c-.51-1.81-.76-3.71-1.92-5.43,2.99,.33,3.8,2.44,4.4,4.75-.76,.48-1.61,.62-2.49,.67Z"/>
  <path class="cls-14" d="M39.99,24.62c3.29,.2,4.65,2.47,5.58,5.2-2.42-1.14-4.25-2.9-5.58-5.2Z"/>
  <path class="cls-14" d="M50.48,21.82c-.92,1.06-2.19,1.63-3.35,2.35-.67,.42-1.5,.71-2.07,.09-.65-.7,.43-1.08,.6-1.65,.05-.16,.17-.29,.26-.44,1.49-.5,2.97-1,4.55-.35Z"/>
  <path class="cls-10" d="M45.93,41.35c.23-3.46-.94-6.62-2.09-9.78,.11-.14,.22-.14,.33,0,1.83,2.78,2.52,5.97,3.23,9.15,.21,.55-.06,.91-.52,1.13-.49,.23-.73-.16-.95-.5Z"/>
  <path class="cls-14" d="M27.82,31.9c.29-1.05,.56-2.1,.88-3.14,.13-.41,.17-.93,.76-1.05,.56-.11,1.24-.53,1.62-.34,.52,.26,0,.91-.07,1.4-.07,.57-.04,1.15-.05,1.73-1.04,.47-1.98,1.19-3.14,1.4Z"/>
  <path class="cls-14" d="M28.87,23.91c.54,.91,1.36,1.52,2.41,2.18-2.27,1.43-3.91,.23-5.57-.81,.9-.81,2.01-1.13,3.16-1.37Z"/>
  <path class="cls-14" d="M24.7,32.32c.29-.25,.32-.59,.33-.94,.05-1.64,.82-2.64,2.54-2.82,.43,1.14-1.01,2.23-.13,3.38-.88,.39-1.79,.56-2.74,.38Z"/>
  <path class="cls-14" d="M58.15,26.32c-1.81,1.42-3.35,.13-5.25-.58,1.31-.48,2.32-1.02,3.48-1.18,.72,.46,1.3,1.05,1.77,1.76Z"/>
  <path class="cls-14" d="M25.02,25.65c.48,.95,1.69,.89,2.36,1.7-1.5,1.56-2.97,.92-4.43,.04,.69-.58,1.38-1.16,2.08-1.74Z"/>
  <path class="cls-11" d="M34.42,25.28c-1.9,.79-3.37,.2-4.53-1.39,1.51-.44,2.96,0,4.39,.38,.6,.16,.07,.67,.14,1.02Z"/>
  <path class="cls-14" d="M31.64,30.15c.37-1.76,.29-3.82,2.78-4.17-.13,1.92-.92,3.4-2.78,4.17Z"/>
  <path class="cls-14" d="M20.49,30.55c.63-.06,1.25-.05,1.88-.23,.57-.16,1.34-.66,1.75-.19,.51,.58,.19,1.42-.13,2.12-1.36-.18-2.69-.42-3.51-1.7Z"/>
  <path class="cls-14" d="M58.14,31.24c-.41-.85-.82-1.69-1.41-2.91,1.43,.79,2.57,1.3,3.51,2.18-.67,.33-1.3,.78-2.1,.73Z"/>
  <path class="cls-13" d="M22.57,27.74c.39,.39,.78,.78,1.22,1.22-1.1,.44-2.17,.74-3.3,.84,.57-.81,1.26-1.5,2.08-2.06Z"/>
  <path class="cls-11" d="M44.2,22.83c-.93,2.18-2.72,.96-4.17,1.04,1.39-.35,2.78-.69,4.17-1.04Z"/>
  <path class="cls-12" d="M60.22,29.15c-1.05-.15-1.71-.95-2.75-1.47,.59-.29,.97-.48,1.36-.67,.33,.8,1.41,1.11,1.4,2.13Z"/>
  <path class="cls-7" d="M40.72,27.73c.11,0,.23,0,.34,0,.65,.44,1.31,.86,1.4,1.75-.73-.43-1.3-1.03-1.75-1.75Z"/>
  <path class="cls-9" d="M44.17,31.57c-.11,0-.22,0-.33,0-.69-.38-.94-1.03-1.05-1.76,.71,.39,.93,1.16,1.37,1.76Z"/>
  <path class="cls-5" d="M51.75,58.41c-6.42-.04-12.23-7.39-10.36-13.06,.45-1.36,1.45-2.22,2.47-3.06,.59-.49,1.31-.36,1.93,.1,.85,.63,1.5,.26,2.12-.4,2.09-2.25,4.44-2.68,7.42-1.37,4.11,1.8,6.06,6.39,4.6,10.85-1.26,3.85-4.92,6.97-8.17,6.95Z"/>
  <path class="cls-5" d="M33.36,61.91c-4.06-.13-7.61-3.79-7.99-8.23-.28-3.25,.9-6.03,2.93-8.45,1.35-1.62,2.52-1.56,3.9-.09,.54,.58,1.26,.84,2.06,.69,.78-.15,1.18-.68,1.21-1.48,.04-1.13,.82-1.34,1.68-1.21,1.17,.18,2.1,.93,3.11,1.49,.34,.19,.37,.51,.27,.91-.76,3.18,.38,5.93,2.04,8.51,.47,.73,.59,1.31,.24,2.07-1.41,3.03-3.4,5.36-6.96,5.8-.83,.25-1.66,.25-2.5,0Z"/>
  <path class="cls-6" d="M33.36,61.91c.83,0,1.66,0,2.5,0-.83,.53-1.66,.53-2.5,0Z"/>
  <path class="cls-2" d="M51.86,42.07c2.76-.68,4.78-.02,5.86,1.57,1.17,1.73,1.11,4.36-.26,6.24,.18-3.93-1.11-6.77-5.6-7.82Z"/>
  <path class="cls-2" d="M29.49,55.27c-1.99-.85-2.9-2.65-2.74-5.05,.11-1.64,1.3-3.09,3.17-3.63-1.85,2.81-1.86,5.6-.44,8.68Z"/>
</svg>