<?xml version="1.0" encoding="UTF-8"?>
<svg id="Calque_1" data-name="Calque 1" xmlns="http://www.w3.org/2000/svg" viewBox="0 0 80 80">
  <defs>
    <style>
      .cls-1 {
        fill: #ec6244;
      }

      .cls-2 {
        fill: #ea6c27;
      }

      .cls-3 {
        fill: #e83f4c;
      }

      .cls-4 {
        fill: #e83c49;
      }

      .cls-5 {
        fill: #e5241b;
      }

      .cls-6 {
        fill: #6b7149;
      }

      .cls-7 {
        fill: #334f22;
      }

      .cls-8 {
        fill: #c81717;
      }

      .cls-9 {
        fill: #e41a18;
      }

      .cls-10 {
        fill: #e30a14;
      }

      .cls-11 {
        fill: #4e722c;
      }
    </style>
  </defs>
  <path class="cls-10" d="M40.69,22.47c2.6-.57,5.21-1.13,7.81-1.7,.96-.21,1.92-.35,2.91-.19,2.52,1.12,3.32,3.58,4.16,5.83,1.14,3.05,1.77,6.29,1.89,9.56,.35,9.25-3.33,16.51-10.99,21.67-5.02,3.38-10.41,6.05-16.14,8.01-7.49-3.77-12.25-9.98-15.12-17.67-1.62-4.36-2.91-8.94-1.61-13.65,1.85-6.68,5.48-11.77,12.76-13.22,.3-.14,.6-.26,.94-.28,3.21-.43,6.17,.59,9.14,1.6,.57,.12,1.1,.38,1.69,.39,.27,0,.54,.02,.8,.01,.61,.01,1.14-.38,1.76-.36Z"/>
  <path class="cls-8" d="M30.33,65.66c.77-1.03,1.99-1.22,3.07-1.69,6.43-2.82,12.96-5.62,17.72-11.03,4.73-5.36,6.73-11.74,5.6-18.96-.55-3.47-1.1-6.91-2.8-10.08-.68-1.27-1.74-2.16-2.5-3.31,7.37-.71,12.62,5.55,13.94,11.59,1.03,4.75-.89,9.15-1.74,13.69-1.32,7.07-5.36,12.46-10.21,17.36-3.28,3.32-7.3,4.13-11.71,2.75-1.66-.52-3.14-.39-4.79,.15-2.18,.72-4.48,1.02-6.57-.47Z"/>
  <path class="cls-6" d="M39.03,23.3l-.82-.02c-.49-.23-.71-.65-.8-1.17-1.42-6.43-7.36-9.22-13.75-6.3,.95,.96,1.96,1.79,2.77,2.8,.6,.75,1.41,1.5,.72,2.62-.27-.04-.53-.08-.8-.12-1.07-2.14-2.7-3.73-4.81-4.8-.77-.39-1.22-.82-.22-1.29,3.15-1.5,6.45-2.24,9.93-1.47,4.37,.97,6.51,4.1,7.65,8.15,.68,.48,.55,1.02,.12,1.59Z"/>
  <path class="cls-2" d="M39.03,23.3c-.04-.53-.08-1.06-.12-1.59,.51-2.1,1.66-3.88,2.87-5.61,.33-.47,.87-1.2,1.39-.63,.44,.49,1.38,1.08,.61,2.16-1.11,1.55-2.07,3.22-3.09,4.84-.39,.6-.95,.87-1.66,.83Z"/>
  <path class="cls-11" d="M27.16,21.24c-.41-2.73-2.85-3.8-4.45-5.55,6.8-3.86,14.39-.25,15.15,6.47-1.22,.14-1.62-.99-2.34-1.57-2.44-1.97-5.16-3.41-8.26-4.41,2.99,1.12,5.77,2.38,8.11,4.4,.68,.59,1.83,1,1.34,2.31-.63,.21-1.17-.11-1.69-.34-2.51-1.1-5.16-1.29-7.85-1.31Z"/>
  <path class="cls-3" d="M23.11,45.72c-.12,1.01,1.15,2.55,.1,2.86-1.18,.35-1.02-1.5-1.41-2.38-1.29-2.84-2.23-5.82-2.54-8.93-.47-4.7,1.24-8.91,5.76-10.35,.38-.12,.86-.61,1.2,.02,.23,.42-.08,.75-.36,1.04-4.34,4.43-4.4,9.78-3.3,15.38,.1,.52,.13,1.05,.2,1.57,.33,.16,.17,.55,.35,.78Z"/>
  <path class="cls-7" d="M36.7,22.89c-1.81-2.89-4.76-4.19-7.67-5.52-.91-.42-1.97-.56-2.58-1.52,4.61,.6,8.15,3.19,11.41,6.31,.12,.38,.24,.75,.36,1.13-.58,.17-1.07,0-1.51-.39Z"/>
  <path class="cls-4" d="M23.11,45.72c-.12-.26-.24-.52-.35-.78,1.09-.9-.29-2.07,.38-3.46,.56,1.71,.68,2.97-.02,4.24Z"/>
  <path class="cls-1" d="M17.07,39.25c-.35-.73-.37-1.49,0-2.26v2.26Z"/>
  <path class="cls-9" d="M50.4,24c.6-.32,1.01-.32,1.44-.09-.38,.38-.78,.23-1.44,.09Z"/>
  <path class="cls-5" d="M28.79,24.75c-.42,.28-.82,.25-1.37,.02,.52-.3,.92-.32,1.37-.02Z"/>
</svg>