<?xml version="1.0" encoding="UTF-8"?>
<svg id="Calque_1" data-name="Calque 1" xmlns="http://www.w3.org/2000/svg" viewBox="0 0 80 80">
  <defs>
    <style>
      .cls-1 {
        fill: #f4ec7d;
      }

      .cls-2 {
        fill: #fdcf00;
      }

      .cls-3 {
        fill: #ffdc00;
      }

      .cls-4 {
        fill: #f1ea7e;
      }

      .cls-5 {
        fill: #f1ea80;
      }

      .cls-6 {
        fill: #73b53b;
      }

      .cls-7 {
        fill: #8ac064;
      }

      .cls-8 {
        fill: #b0c318;
      }

      .cls-9 {
        fill: #3f6128;
      }

      .cls-10 {
        fill: #406128;
      }

      .cls-11 {
        fill: #486a2b;
      }

      .cls-12 {
        fill: #496b2c;
      }

      .cls-13 {
        fill: #79b94f;
      }
    </style>
  </defs>
  <path class="cls-3" d="M47.19,65.69c-1.32,1.13-1.96,2.76-3.05,4.06-.68,.81-1.38,1.6-2.44,1.95-.21-.03-.44-.06-.59-.2-3.84-3.65-8.73-5.86-12.69-9.34-.58-.5-1.24-1.01-.85-1.95,.85-.55,1.27,.21,1.81,.6,2.78,2.05,5.59,4.02,9.37,4.51-4.89-2.5-9.01-5.64-12.72-9.35-.6-.6-1.21-1.19-2.13-1.24-1.36-2-1.94-4.24-1.98-6.63,1.1-.18,1.2-1.03,1.38-1.93,1.11-5.42,2.98-10.48,7.31-14.64-.73,.11-1.24,.54-1.74,.17-.29-.51-.12-.98,.16-1.4,1.26-1.9,2.03-4.04,2.99-6.09,.4-.52,1.05-.31,1.55-.54,.33-.16,.62-.38,.98-.47,1.79,.65,2.64,2.45,4.19,3.39,.85,1.55-.14,3.14,.15,4.77,.94,5.15,2.87,9.85,6.58,13.5,5.08,5,5.66,15.15,1.73,20.83Z"/>
  <path class="cls-5" d="M47.19,65.69c.43-1.34,.89-2.67,1.28-4.01,1.97-6.73,.37-12.54-4.38-17.65-3.52-3.78-5.15-8.44-5.84-13.5-.19-1.39,.47-2.61,.49-3.93,3.09,1.61,6.32,3.01,9.25,4.88,3.45,2.19,6.09,5.38,7.21,9.29,1.46,5.07,1.57,10.28-.15,15.42-1.02,3.04-3.41,4.97-5.41,7.22-.74,.83-1.62,1.53-2.44,2.29Z"/>
  <path class="cls-2" d="M22.17,47.82c.43,2.37,.95,4.72,2.15,6.85,1.73,1.44,3.05,3.14,3.39,5.46,.81,2.27,2.75,3.49,4.69,4.46,3.59,1.78,6.41,4.47,9.31,7.1-.98,.55-1.97-.01-2.5-.51-2.5-2.31-5.67-3.39-8.55-4.98-4.51-2.49-7.5-6.3-9.47-10.96-2.59-6.12-2.9-12.24,.08-18.38,1.15-2.38,2.93-4.15,4.93-5.72,1.55-1.21,2.8-2.56,3.33-4.5,.37-1.36,1.22-2.37,2.46-3.03,.23,0,.36,.1,.4,.33-.51,2.86-2.21,5.18-3.45,7.72-.08,.79-.67,1.21-1.2,1.67-3.45,3.04-4.94,6.93-5.05,11.46-.02,1.03,.27,2.14-.53,3.04Z"/>
  <path class="cls-11" d="M38.8,17.52c-1.88-5.01,.98-8.78,8.73-10.52-1.29,1.86-1.76,3.83-2.41,5.74-1,2.96-3.65,3.85-6.33,4.79Z"/>
  <path class="cls-12" d="M52.99,21.15c-3.95,.68-7.94,2.64-11.04-1.62,3.76-4.01,7.34-1.87,11.04,1.62Z"/>
  <path class="cls-6" d="M32.39,23.94c-.13-.11-.27-.22-.4-.33,.13-1.64,.3-3.29,.39-4.93,.04-.76,.12-1.56,1.02-1.48,1.21,.11,.1,.97,.3,1.45,.08,.18,.02,.41,.02,.62-.23,1.6,.66,3.21-.03,4.82-.52,.7-.89,.12-1.3-.14Z"/>
  <path class="cls-8" d="M33.68,24.08c-.38-1.61-.64-3.21,.03-4.81,.42,.54,.31,1.19,.41,1.8,.55,.34,.71,.79,.41,1.39,0,.25,0,.5,0,.75-.08,.49-.34,.81-.85,.88Z"/>
  <path class="cls-13" d="M34.54,22.45c-.14-.46-.28-.93-.41-1.39,1.49,.06,2.28-1.09,3.28-1.89,.24,.2,.27,.42,.1,.68,.13,.12,.25,.24,.38,.36,.15,.08,.19,.17,.14,.25-.05,.08-.1,.12-.15,.12-1.11,.62-2.23,1.25-3.34,1.87Z"/>
  <path class="cls-7" d="M37.87,20.58c0-.12,0-.24,0-.37,.61-.34,1.23-.53,2.21-.33-.83,.53-1.48,.72-2.21,.7Z"/>
  <path class="cls-7" d="M37.5,19.86c-.03-.23-.07-.45-.1-.68,.03-.47,.35-.73,.74-1.05,.05,.74-.2,1.27-.64,1.73Z"/>
  <path class="cls-1" d="M22.17,47.82c-.2-4.85,.21-9.51,3.66-13.37,.94-1.05,2.06-1.88,3.11-2.79,1-.13,1.6-1.42,3.22-.98-2.66,2.55-4.84,5.12-6.17,8.33-1.31,3.18-2.14,6.47-2.72,9.83-.77-.05-.67-.79-1.11-1.01Z"/>
  <path class="cls-4" d="M27.71,60.13c-1.13-1.82-2.26-3.64-3.39-5.46,.08-.63,.21-1.03,.85-.34,4.01,4.34,8.6,7.92,13.91,10.55,.37,.18,.92,.36,.74,.86-.24,.69-.79,.25-1.25,.18-4.27-.72-7.6-3.19-10.86-5.79Z"/>
  <path class="cls-9" d="M42.8,12.72c-.09-1.16,.17-1.66,.84-2.09,.31,.85-.12,1.3-.84,2.09Z"/>
  <path class="cls-10" d="M50.28,20.74c-.84-.05-1.37,0-1.86-.39,.6-.18,1.12-.31,1.86,.39Z"/>
</svg>