<?xml version="1.0" encoding="UTF-8"?>
<svg id="Calque_1" data-name="Calque 1" xmlns="http://www.w3.org/2000/svg" viewBox="0 0 80 80">
  <defs>
    <style>
      .cls-1 {
        fill: #f9c18e;
      }

      .cls-2 {
        fill: #fac799;
      }

      .cls-3 {
        fill: #f9dad6;
      }

      .cls-4 {
        fill: #f29488;
      }

      .cls-5 {
        fill: #f5a79c;
      }

      .cls-6 {
        fill: #e98b2b;
      }

      .cls-7 {
        fill: #f18504;
      }

      .cls-8 {
        fill: #f18916;
      }

      .cls-9 {
        fill: #fdfdfd;
      }

      .cls-10 {
        fill: #d7e085;
      }

      .cls-11 {
        fill: #abc919;
      }

      .cls-12 {
        fill: #e42118;
      }

      .cls-13 {
        fill: #e42a1d;
      }

      .cls-14 {
        fill: #0b0a0b;
      }
    </style>
  </defs>
  <path class="cls-14" d="M37.13,33.83c-1.84-3.99-3.69-7.97-6.75-11.22-1.47-.21-.35,1.39-1.16,1.65l.02-.05c-.22,.47-.49,.89-1.06,.97-.65,0-1.21-.28-1.79-.54-.77-.43-1.63-.54-2.5-.64-.78-.2-1.65-.19-2.14-1,.02-.7-.22-1.43,.22-2.08,.57-.59,1.13-1.18,1.7-1.77,.47-.64,1.02-1.17,1.7-1.59-1.56-2.24-4.16-3.76-4.62-6.76-.22-1.75-.1-1.91,1.22-1.6-.02,2.01,1.01,3.54,2.39,4.8,5.37,4.93,9.82,10.55,13.37,16.94,2.39,4.3,6.31,7.34,9.76,10.72,2.89,2.83,5.45,5.81,7.21,9.44,.54,1.11,1.25,2.01,2.45,2.44,1.73,.79,3.35,1.67,3.43,3.91-.41,1.5-1.76,1.63-2.93,2.02-.64,.19-1.28,.4-1.84,.79-.72,.43-1.39,1.09-2.35,.6-1.42-2.64-1.21-5.29-.05-7.94-.43-3.36-2.87-5.53-4.86-7.91-1.65-1.97-3.58-3.71-5.38-5.54-1.37-.29-.29,1.5-1.29,1.52-.52,.44-1.13,.64-1.79,.72-.39,.04-.77,.02-1.15-.06-.76,.12-1.08-1.34-2.03-.56-.73,.39-1.47,.65-2.3,.31-1.4-3.27,1.06-5.25,2.52-7.56Z"/>
  <path class="cls-11" d="M57.31,59.07c1.03-.39,2.06-.79,3.09-1.18-.06-.56,.19-.58,.48-.22,.38,.47,.7,1,.91,1.58,.67,.72,1.34,1.44,2.02,2.16,1.01,.37,.9,1.47,1.41,2.17,.65,2.57,1.95,5.12-.55,7.54-2.63,2.54-4.78,2.54-7.38-.25-.57-1.25-2.05-1.95-2.12-3.51-.61-1.2-1.36-2.35-1.21-3.79-.28-.92-.54-1.84,.14-2.71,.51-.38,1.02-.76,1.53-1.14,1.2,.27,1.2,1.24,1.27,2.18,.13,1.7,.74,3.24,1.67,4.66,.59,.9,1.4,1.22,2.39,.82,1.02-.41,1.28-1.26,1.15-2.28-.11-.89-1.23-3.2-2.06-4.25,1.16,1.03,1.49,2.6,1.97,4.07,.27,.83,.13,1.7-.74,2.19-.97,.54-1.88,.24-2.49-.55-1.76-2.23-2.33-4.73-1.47-7.5Z"/>
  <path class="cls-7" d="M35,41.17c.63-.2,1.27-.39,1.9-.59,1.14,1.23-.19,2.35-.18,3.54,.01,1-.44,1.97-.46,2.99-.02,1.12,.36,2.06,1.4,2.46,1.03,.39,1.73-.27,2.23-1.14,.78-1.38,.25-2.96,.65-4.4,.28-.72,.63-1.34,1.57-1.2,.43,.93,.85,1.87,1.28,2.8,.62,1.94,.42,3.8-.54,5.59-1.32,3.46-4.13,4.84-6.87,3.37-1.02-.91-1.75-2.03-2.22-3.31l-.02-.04c-.26-1.11-1.15-2.11-.61-3.36,.24-1.72-.4-3.55,.66-5.17,.47-.46,.3-1.42,1.21-1.54Z"/>
  <path class="cls-9" d="M21.99,20.92c.02,.69,.05,1.38,.07,2.07,.39,.74-.13,1.26-.5,1.74-2.56,3.29-2.98,7.07-2.64,11.04-.1,.11-.19,.22-.29,.32-2.17-3.51-1.32-6.91,.45-10.24,.9-1.69,1.93-3.3,2.91-4.95Z"/>
  <path class="cls-9" d="M27.67,32.2c.06,2.9-2.02,4.46-4.17,5.38-1.55,.66-3.77,.73-4.87-1.48,0,0,.16-.18,.16-.18,.33-.2,.71-.27,1.07-.18,3.26,.85,5.36-.61,6.8-3.39,.18-.21,.4-.33,.67-.37,.11,.07,.23,.14,.34,.21Z"/>
  <path class="cls-9" d="M35,41.17c-.41,.51-.44,1.32-1.21,1.54-.12-3.42,0-6.76,3.34-8.88-.75,1.54-1.51,3.07-2.23,4.62-.42,.91-.93,1.85,.1,2.72Z"/>
  <path class="cls-9" d="M61.79,59.25c-.46-.46-.93-.91-1.39-1.36-.19-2.11-2.3-2.78-3.25-4.32,3.8,.06,4.13,2.95,4.64,5.69Z"/>
  <path class="cls-9" d="M54.1,60.87c-.05,.9-.09,1.81-.14,2.71-1.36-2.61-1.89-5.37-1.67-8.3,.07-.97,.1-1.88,1.12-2.35,.04,2.67-1.51,5.47,.68,7.95Z"/>
  <path class="cls-9" d="M28,25.01c.42-.26,.83-.53,1.25-.79-.57,1.89-.53,3.82-.52,5.76,0,.89,.24,1.94-1.06,2.22,0,0-.11-.11-.11-.11-.34-2.39-.46-4.77,.45-7.09Z"/>
  <path class="cls-6" d="M42.12,42.83c-.35,.37-.7,.75-1.05,1.12-1.66-.42-1.58-1.59-1.23-2.88,.6-.03,1.21-.07,1.81-.1,.32,.12,.35,.49,.57,.69-.03,.39-.07,.78-.1,1.17Z"/>
  <path class="cls-9" d="M42.85,51.22c.7-1.81,.3-3.73,.54-5.59,1.52,2.03,.86,3.84-.54,5.59Z"/>
  <path class="cls-9" d="M42.22,41.67c-.19-.23-.38-.46-.57-.69,.73-.88-.06-1.78,.03-2.82,.75,.23,1.27,.58,1.49,1.32-.32,.73-.63,1.46-.95,2.2Z"/>
  <path class="cls-9" d="M55.17,67.37c.52,1.28,1.91,2.04,2.12,3.51-1.2-.87-2.43-1.73-2.12-3.51Z"/>
  <path class="cls-9" d="M33.76,51.29c.74,1.1,1.48,2.2,2.22,3.31-1.5-.59-2.26-1.68-2.22-3.31Z"/>
  <path class="cls-9" d="M29.23,24.26v-3.1c.86,.19,1.28,.59,1.16,1.45-.39,.55-.77,1.1-1.16,1.65Z"/>
  <path class="cls-9" d="M33.13,47.89c.2,1.12,.41,2.24,.61,3.36-.83-1.01-1.62-2.02-.61-3.36Z"/>
  <path class="cls-9" d="M21.98,9.21c-1.94-.64-1.08,.86-1.22,1.6-.55-.62-.68-1.34-.09-1.93,.47-.48,.98-.22,1.31,.34Z"/>
  <path class="cls-9" d="M65.22,63.58c-.47-.72-.94-1.45-1.41-2.17,1.3,.18,1.43,1.13,1.41,2.17Z"/>
  <path class="cls-9" d="M25.38,17.56c-.26,.85-.88,1.33-1.7,1.59,.08-1.05,.66-1.56,1.7-1.59Z"/>
  <path class="cls-12" d="M27.13,32.35c-1.26,4.44-5.48,5.75-8.34,3.58-2.22-5.15,.31-9.09,3.27-12.93,.74,.21,1.67-.42,2.25,.49,.47,.4,.08,.63-.17,.89-1.36,1.42-2.14,3.2-2.77,5-.73,2.09,.14,2.92,2.47,2.64,1.35-.77,1.48-2.35,2.3-3.47,.36-.59,.47-1.43,1.48-1.4,.75,1.82,0,3.51-.49,5.21Z"/>
  <path class="cls-10" d="M57.31,59.07c-.02,2.34,.16,4.65,1.49,6.68,.51,.78,1.2,1.6,2.28,.99,1.09-.62,.65-1.52,.31-2.44-.7-1.84-1.73-3.45-3.64-4.99,3.24,.66,5.71,5.32,4.52,7.63-.39,.75-1.09,1.38-1.98,1.31-.89-.07-1.91-.21-2.3-1.28-.59-1.62-1.87-3.04-1.56-4.94,.15-.93-.39-1.58-.8-2.3,.27-.97,1.03-.67,1.69-.67Z"/>
  <path class="cls-13" d="M23.99,24.28c.11-.26,.22-.53,.32-.79,.84-.04,1.64,.06,2.19,.82,0,.14,0,.27-.01,.41-.05,.27-.13,.54-.23,.79-.28,2.37-.56,4.74-1.99,6.76-2.44,.41-3.32-.32-3-2.59,.29-2.09,1.67-3.67,2.73-5.4Z"/>
  <path class="cls-1" d="M40.46,48.98c-.65,1.33-1.76,2.02-3.11,1.39-1.18-.54-1.9-1.58-1.82-3.11,.12-2.31,.92-4.46,1.37-6.69,.94-.68,1.29,.46,1.96,.64,.13,.24,.14,.48,.02,.73-.94,1.3-1.33,2.77-1.2,4.36,.11,1.28,.57,2.31,2.12,2.29,.26,.06,.48,.18,.66,.37Z"/>
  <path class="cls-13" d="M27.13,32.35c-.32-1.58,1.03-3.02,.3-4.64-.71,.25-.14,1.4-.98,1.61-.23-.22-.38-.49-.44-.8-.05-1.38-.25-2.78,.39-4.1,0,0,.11-.12,.11-.12,.5,.23,1,.47,1.5,.7,.07,2.38,.45,4.77-.45,7.09-.14,.08-.29,.17-.43,.26Z"/>
  <path class="cls-2" d="M38.87,41.59c0-.12,0-.24,0-.36,.33-.05,.65-.1,.98-.15,.41,.96,.82,1.92,1.23,2.88-.14,1.68,.47,3.46-.61,5.03-.21,0-.43-.02-.64-.02-.83-2.39-1.17-4.85-.96-7.37Z"/>
  <path class="cls-5" d="M23.99,24.28c-.04,2.11-2.27,3.33-2.16,5.56,.08,1.62,.2,2.87,2.31,1.98,.31,.23,.33,.48,.07,.77-2.3,.81-4.13-.03-3.83-2.08,.36-2.42,1.12-4.89,3.6-6.22Z"/>
  <path class="cls-4" d="M24.22,32.58c-.02-.25-.05-.51-.07-.77,1.16-2.19,1.08-4.69,1.76-7,.75,1.23-.11,2.68,.53,3.93,0,.2,0,.39,0,.59-.68,1.13-.74,2.67-2.22,3.25Z"/>
  <path class="cls-3" d="M26.43,28.74c-.97-1.2-.14-2.65-.53-3.93,.16-.13,.32-.26,.48-.38,.02,1.44,.03,2.87,.05,4.31Z"/>
  <path class="cls-8" d="M38.87,41.59c1.12,2.35,1.29,4.83,.96,7.37-.73,.36-1.4,.91-2.16-.05-1.32-1.68-.65-5.95,1.21-7.32Z"/>
</svg>