<?xml version="1.0" encoding="UTF-8"?>
<svg id="Calque_1" data-name="Calque 1" xmlns="http://www.w3.org/2000/svg" viewBox="0 0 80 80">
  <defs>
    <style>
      .cls-1 {
        fill: #eedec8;
      }

      .cls-2 {
        fill: #f29260;
      }

      .cls-3 {
        fill: #e6e9e9;
      }

      .cls-4 {
        fill: #e62d2e;
      }

      .cls-5 {
        fill: #ee8c4f;
      }

      .cls-6 {
        fill: #fcfaf9;
      }

      .cls-7 {
        fill: #931d20;
      }

      .cls-8 {
        fill: #98453c;
      }

      .cls-9 {
        fill: #b5664b;
      }

      .cls-10 {
        fill: #ab6858;
      }

      .cls-11 {
        fill: #dccda1;
      }

      .cls-12 {
        fill: #1c1d1d;
      }

      .cls-13 {
        fill: #374c56;
      }

      .cls-14 {
        fill: #894d38;
      }

      .cls-15 {
        fill: #354a54;
      }

      .cls-16 {
        fill: #748381;
      }

      .cls-17 {
        fill: #7a3f2c;
      }
    </style>
  </defs>
  <path class="cls-5" d="M58.58,45.8c-.5,3.16-1,6.33-1.51,9.49-.47,2.9-.96,5.81-1.44,8.71-.12,.7,.12,.99,.88,.96,1.3-.06,2.6-.01,3.9-.04,.54-.01,.77,.14,.8,.75,.14,2.67,.16,2.63-2.54,2.67-8.1,.12-16.19-.29-24.29-.23-.37,0-.74,.01-1.05-.23-.55-.73-.37-1.55-.23-2.35,.11-.6,.61-.77,1.16-.85,1.28-.19,1.31-.2,1.17-1.49-.43-3.9-.96-7.79-1.44-11.69-.23-1.87-.45-3.75-.65-5.63-.12-.78,.37-1.35,.74-1.93,2.56-3.96,5.24-7.84,7.91-11.73,1.07-1.56,2.09-3.16,3.19-4.7,.93-1.31,1.14-1.3,2,.01,3.66,5.6,7.21,11.26,10.86,16.86,.28,.43,.63,.85,.52,1.42Z"/>
  <path class="cls-4" d="M15.3,46c-.1-.38,.19-.62,.36-.88,5.37-7.97,10.74-15.92,16.11-23.88,.33-.49,.7-.84,1.32-.87,2.77-.15,5.53-.31,8.3-.44,.67-.03,1.32-.13,1.98-.26,.13-.1,.27-.18,.43-.2,.16-.03,.32-.03,.48,0,.16,.03,.3,.11,.43,.2,.11,.01,.23,.06,.33,.02,1.64-.57,2.39,.44,3.2,1.62,5.08,7.4,10.21,14.76,15.32,22.14,.98,1.42,.77,1.94-1.01,2.53-1.08-.94-1.73-2.22-2.52-3.37-4.23-6.25-8.49-12.47-12.72-18.72-.72-1.06-.91-1.05-1.6,.05-4.4,7.02-8.76,14.07-13.15,21.1-.36,.57-.65,1.19-1.44,1.28-4.9,.12-9.8,.04-14.7,.04-.41,0-.82-.04-1.13-.36Z"/>
  <path class="cls-7" d="M33.54,45.58c.45,1.53,.44,3.13,.67,4.69,.41,2.81,.72,5.62,1.08,8.44,.24,1.9,.47,3.8,.71,5.7,.06,.46-.18,.54-.58,.58-2.09,.23-2.09,.25-2.08,2.32,0,.19,0,.37,.01,.56-.25,.32-.61,.23-.93,.22-4.27,0-8.53-.05-12.8,0-1.09,.01-1.31-.38-1.2-1.38,.11-1,.28-1.61,1.54-1.66,1.47-.06,2.95,.05,4.46-.14-1.05-5.7-2.09-11.34-3.12-16.99-.03-.18-.01-.37-.02-.56,.27-.31,.65-.33,1.02-.35,2.96-.11,5.92-.36,8.88-.23,.62,.12,1.01-.19,1.37-.66,.24-.31,.4-.83,.98-.56Z"/>
  <path class="cls-1" d="M33.54,45.58c-.59,.06-.66,.61-.92,.97-.27,.37-.53,.71-1.07,.56-.31-.35-.17-.7,.01-1.05,4.37-6.98,8.73-13.96,13.1-20.94,.37-.59,.74-1.19,1.11-1.79,.64-1,.85-1.01,1.52,0,3.19,4.7,6.38,9.41,9.57,14.11,1.84,2.72,3.7,5.42,5.55,8.14,.08,.11,.1,.27,.14,.4-.7,.63-1.39,.03-2.08-.03-.63-.05-1.23-.46-1.9-.16-3.96-6.2-7.93-12.41-11.89-18.61-.74-1.17-.95,.08-1.13,.33-3.35,4.87-6.67,9.77-9.97,14.68-.73,1.09-1.56,2.14-2.06,3.38Z"/>
  <path class="cls-15" d="M39.57,16.63c-1.7-.07-3.23-.54-4.59-2.14,1.92,.65,3.21,0,4.41-1.15,.62-.6,1.29-1.21,2.16-1.46,1.34-.89,2.59-.47,3.54,1.17,.17,3.23-2.88,4.23-5.12,3.73-.14-.03-.28-.11-.42-.15Z"/>
  <path class="cls-2" d="M39.57,16.63c.66-.02,1.32-.02,1.99-.05,1.98-.1,3.22-1.4,3.38-3.54,1.05-1.32,2.42-1.66,3.57-.88,.4,1.12-.31,1.98-.8,2.81-.71,1.2-1.7,2.2-3.05,2.73-.11,.12-.25,.19-.4,.22-.16,.03-.31,.03-.47,0-.16-.03-.29-.11-.42-.21-1.35-.06-2.81,.23-3.8-1.09Z"/>
  <path class="cls-11" d="M31.56,46.06c.25,.35-.09,.7-.01,1.05-3.42,.09-6.84,.17-10.27,.26-1.52,0-3.04-.04-4.56,.01-1,.03-1.41-.43-1.42-1.37,5.42,.02,10.84,.04,16.26,.06Z"/>
  <path class="cls-16" d="M48.51,12.16c-1.39-.51-2.47,.2-3.57,.88-.88-1.1-1.93-1.69-3.37-1.16,.82-1.32,1.85-2.45,3.25-3.15,1.39-.7,2.99,.04,3.69,1.6,.45,.48,.46,1.03,.23,1.61-.08,.08-.15,.15-.23,.23Z"/>
  <path class="cls-13" d="M48.73,11.93c-.08-.54-.15-1.07-.23-1.61,.54,.21,1.27-.66,1.56,0,.24,.56-.68,.85-1,1.33-.08,.11-.22,.18-.33,.27Z"/>
  <path class="cls-8" d="M43.37,17.71c.15,0,.3,0,.45,0,.43,.65,.44,1.31,0,1.96-.15,0-.3,0-.45,0,0-.65,0-1.31,0-1.96Z"/>
  <path class="cls-8" d="M44.26,17.71c.13,0,.26,0,.4-.01,.02,.66,.04,1.32,.05,1.97-.15,0-.3,0-.45,0-.33-.66-.33-1.31,0-1.96Z"/>
  <path class="cls-10" d="M46.51,41.33c3.08,0,5.56,2.45,5.54,5.48-.01,2.86-2.62,5.49-5.54,5.42-3.35-.08-5.53-2.88-5.42-5.48,.12-3.12,2.32-5.42,5.42-5.42Z"/>
  <path class="cls-9" d="M42.47,57.18c3.22-.2,6.45-.24,9.67-.25,.85,0,1.13,.26,1.05,1.08-.09,.84,.32,1.88-.16,2.5-.49,.62-1.54,.14-2.33,.25-2.73,.39-5.48,.15-8.22,.2-.54-1.26-.54-2.51,0-3.77Z"/>
  <path class="cls-14" d="M42.47,57.18c0,1.26,0,2.51,0,3.77-1.55,.04-1.47,.04-1.59-2.61-.07-1.43,.74-1.22,1.59-1.16Z"/>
  <path class="cls-6" d="M44.26,17.71c0,.65,0,1.31,0,1.96-.15,0-.29,0-.44,0,0-.65,0-1.31,0-1.96,.15,0,.3,0,.45,0Z"/>
  <path class="cls-3" d="M46.05,11.9c-.68-.05-1-.49-.98-1.16,.02-.69,.46-.93,1.12-.88,.66,.06,.99,.41,.97,1.07-.02,.68-.42,.96-1.11,.97Z"/>
  <path class="cls-17" d="M46.57,50.72c-2.27,0-3.87-1.57-3.88-3.8,0-2.15,1.72-4.06,3.79-3.97,2.36,.09,3.97,1.57,4.02,3.99,.04,2.14-1.72,3.78-3.92,3.78Z"/>
  <path class="cls-12" d="M46.7,10.99c-.11,.26-.27,.45-.57,.45-.33,0-.49-.26-.49-.5,0-.24,.21-.55,.47-.53,.27,.02,.51,.26,.59,.57Z"/>
</svg>