<?xml version="1.0" encoding="UTF-8"?>
<svg id="Calque_1" data-name="Calque 1" xmlns="http://www.w3.org/2000/svg" viewBox="0 0 80 80">
  <defs>
    <style>
      .cls-1 {
        fill: #b83a7f;
      }

      .cls-2 {
        fill: #b83b7f;
      }

      .cls-3 {
        fill: #db60a0;
      }
    </style>
  </defs>
  <path class="cls-3" d="M63.01,45.1c-.78,1.25-2.23,1.09-3.46,1.62,1.08,1.22,2.03,2.5,2.4,4.11-1.86,1.57-3.82,2.65-6.35,1.57-1.14-.48-1.73-.19-1.88,1.18-.23,2.14-1.8,3.14-3.68,3.77-1.61-.95-1.77-2.78-2.39-4.26-1.22-2.93-2.75-5.63-4.64-8.17-.51-.68-.79-.78-1.52-.51-1.68,.61-3.39,1.09-5.18,.28-.92-.41-.81,.51-1.02,.96-1.76,3.98-3.93,7.74-6.35,11.35-1.97,2.94-3.35,2.77-5.73,.6-1.68-1.53-3.58-2.72-5.35-4.1-1.97-1.55-2.18-2.13-.97-4.29,.29-.51,.67-.98,.94-1.51,.34-.67,.77-1.17-.52-1.62-2.27-.8-3.14-3.08-2.45-6.55,.8-4.05,1.79-8.07,2.41-12.17,.16-1.07,.66-2.01,1.03-3.01,1.47-4.03,4.73-3.66,7.53-2.19,3.59,1.88,6.51,4.61,8.89,7.88,.73,1,1.14,1.51,2.52,.84,1.12-.55,2.6-.44,3.83,.19,.94,.48,1.54,.27,2.39-.37,2.56-1.92,4.54-4.42,6.85-6.58,.83-.78,1.67-1.52,2.65-2.08,2.76-1.58,5.75-.78,7.04,2.1,2.05,4.57,3.41,9.33,3.78,14.38,.15,2,.64,3.97-.36,5.88-.31,.01-.63,0-.85-.22-2.45-2.33-5.41-1.86-8.3-1.43-1.59,.23-3.15,.58-4.77,.62-2.08,.06-3.68-.88-5.02-2.37-.24-.27-.45-.58-.49-.95-.07-.59-.25-1.29,.27-1.69,.58-.44,1.11,.04,1.6,.39,.23,.16,.46,.33,.67,.35-1.25-.76-2.94-1.36-2.64-3.31,.27-1.8,2.23-1.86,3.26-2.62-1.13,.13-1.98,1.65-3.6,1.14,.5,2.46,.67,4.96,.07,7.19,2.31,.29,2.34,2.58,3.47,3.66-.13-.55-1.22-1.16-.52-1.83,.66-.63,1.49,.07,2.12,.44,2.24,1.3,4.71,1.86,6.35,2.13-1.01-.12-2.84-.62-4.62-1.29-.33-.12-.69-.32-.72-.72-.03-.38,.32-.5,.6-.52,3.02-.24,5.98-1.24,9.05-.75,1.6,.25,2.94,.93,3.63,2.52Z"/>
  <path class="cls-2" d="M63.01,45.1c-2.33-2.74-5.43-2.38-8.47-2.02-1.47,.17-2.9,.7-4.45,.69,2.21,1.44,4.83,1.51,7.32,2.16-1.09,.76-1.91,.65-5.36-.36-1.84-.53-3.48-1.49-5.43-2.33,.26,1.35,1.46,2.1,1.39,3.86-1.65-1.88-2.29-3.98-3.83-5.4-.46,.4-.3,1.18-1.3,1.56,.8-3.49,1.07-6.84,.03-10.35,1.02,1.95,2.02,.92,3.11,.36,.82-.42,1.71-1.06,3.12-.43-1.57,.57-2.83,1.04-3.94,1.8-1.33,.91-1.37,2.11-.06,3.1,.47,.36,1.02,.62,1.52,.95,.48,.32,1.14,.38,1.58,1.18-1.6,.25-2.47-1.11-3.68-1.42-.49,2.19,1.65,4.23,4.44,4.49,2.38,.21,4.63-.49,6.91-.82,2.94-.42,5.4,.2,7.5,2.26-.06,.29-.07,.6-.42,.72Z"/>
  <path class="cls-3" d="M61.9,51.56c-.13,1.83-1.73,2.38-2.92,3.25-1.89,1.39-3.79,2.77-6.01,3.65-.91,.36-1.56,.28-2.19-.39-.09-1.17,.87-1.61,1.61-2.12,.85-.59,1.38-1.22,1.32-2.32-.05-.97,.4-1.83,1.48-1.33,2.15,.99,4.01,.43,5.86-.68,.26-.15,.56-.18,.86-.06Z"/>
  <path class="cls-2" d="M61.9,51.56c-2.15,1.18-4.27,2.51-6.83,1.04-.42-.24-1.03-.1-.94,.39,.44,2.39-1.61,3.09-2.82,4.37-.2,.21-.36,.47-.54,.71-.39-.09-1.2,.24-.72-.72,.87-.7,1.73-1.43,2.62-2.1,.74-.56,.66-1.35,.63-2.11-.04-1.06,.7-1.88,1.47-1.43,2.7,1.57,4.87,.05,7.18-.87,.35,.27-.05,.49-.06,.73Z"/>
  <path class="cls-1" d="M28.4,39.8c1.47-.16,2.61-.09,3.69-.47,.79-.28,1.66-.52,1.75-1.53,.09-1.07,.19-2.14-1.03-2.81-.87-.48-1.6-1.19-2.54-1.9,1.07-.47,1.48,.34,2.03,.64,.92,.5,1.74,2.26,2.73-.48-.74,3.25-.62,5.97,.55,8.62,.1,.23-.01,.81-.08,.82-2.29,.3-2.63,2.79-4.28,3.79-.2,.12-.37,.32-.71,.03-.17-.73,.82-.87,.97-1.65-3.64,.98-7.29,1.43-10.99,1.35,2.81-1.09,5.89-.68,9.16-1.8-4.89,.16-8.88-3.09-13.54-1.56,1.71-1.34,3.6-1.09,5.46-.8,1.88,.29,3.65,1.04,5.54,1.41,2.47,.49,4.61-.22,6.76-1.08,1.44-.58,.34-1.71,.25-2.49-.11-.88-.84-.15-1.25-.02-1.38,.42-2.73,1.03-4.46-.05Z"/>
  <path class="cls-1" d="M26.37,58.61c-1.39-1.2-2.04-2.7-1.87-4.51,.1-1.18-.23-1.58-1.54-1.27-2.33,.55-4.5,.12-6.5-1.61,.92-.44,1.38,.1,1.85,.36,1.44,.81,2.91,.9,4.48,.52,2-.48,2.56-.11,2.39,1.96-.15,1.73,1.06,2.95,1.19,4.56Z"/>
</svg>