<?xml version="1.0" encoding="UTF-8"?>
<svg id="Calque_2" data-name="Calque 2" xmlns="http://www.w3.org/2000/svg" viewBox="0 0 53.28 56">
  <defs>
    <style>
      .cls-1 {
        fill: #fff;
      }
    </style>
  </defs>
  <g id="Calque_1-2" data-name="Calque 1">
    <path class="cls-1" d="M26.64,56c-.35,0-.66-.24-.73-.59-.03-.14-3.05-13.62-15.61-17.26-.4-.12-.63-.53-.51-.93,.12-.4,.53-.62,.93-.51,13.44,3.9,16.63,18.25,16.66,18.39,.09,.4-.17,.8-.58,.89-.05,.01-.1,.02-.16,.02Z"/>
    <path class="cls-1" d="M26.64,56s-.03,0-.05,0c-.41-.03-.73-.38-.7-.79,0-.08,.44-7.69-.96-16.83-1.29-8.38-4.42-19.79-12.07-26.61-.31-.28-.34-.75-.06-1.06,.27-.31,.75-.34,1.06-.06,7.98,7.12,11.24,18.9,12.56,27.53,1.42,9.3,.98,17.04,.97,17.12-.02,.4-.35,.7-.75,.7Z"/>
    <path class="cls-1" d="M27.16,55.26s-.02,0-.02,0c-.41-.01-.74-.36-.73-.77,0-.26,1.01-25.84,19.1-30.17,.4-.09,.81,.15,.9,.55,.1,.4-.15,.81-.55,.9-16.97,4.06-17.94,28.51-17.95,28.76-.01,.41-.35,.73-.75,.73Z"/>
    <path class="cls-1" d="M24.6,31.7l-.74-.27c-.22-.08-21.72-8.34-17.04-30.65l.16-.78,.77,.2c.45,.12,11.09,3.05,16.08,12.13,2.91,5.29,3.25,11.56,1.02,18.62l-.24,.75ZM8.12,1.89c-3.37,18.41,11.87,26.23,15.52,27.83,1.84-6.33,1.46-11.93-1.13-16.65C18.59,5.91,10.63,2.74,8.12,1.89Z"/>
    <path class="cls-1" d="M35.89,36.1c-1.05,0-2.15-.14-3.31-.44l-.56-.15v-.58c0-.32,.06-7.97,5.49-12.59,3.48-2.96,8.32-3.95,14.4-2.96l.87,.14-.28,.84c-.06,.17-5.43,15.73-16.61,15.73Zm-2.34-1.75c10.13,2.13,15.85-10.22,17.21-13.61-5.19-.69-9.31,.24-12.27,2.75-4.08,3.46-4.81,9.05-4.94,10.86Z"/>
    <path class="cls-1" d="M16.62,45.24c-1.1,0-2.36-.17-3.7-.64-3.77-1.34-6.93-4.67-9.39-9.91l-.28-.1,.08-.61c.17-1.17,4.77-1.63,4.81-1.64,3.64-.23,10.17,.89,13.04,11.17l.17,.6-.56,.27c-.1,.05-1.76,.85-4.18,.85Zm-11.52-10.76c2.24,4.6,5.03,7.52,8.3,8.69,2.73,.98,5.1,.44,6.16,.1-1.38-4.49-3.63-7.42-6.7-8.71-3.22-1.35-6.44-.53-7.75-.08Z"/>
    <path class="cls-1" d="M26.64,56C11.95,56,0,44.05,0,29.36c0-6.61,2.44-12.94,6.86-17.84l1.11,1.01C3.8,17.15,1.5,23.13,1.5,29.36c0,13.86,11.28,25.14,25.14,25.14s25.14-11.28,25.14-25.14c0-2.63-.41-5.22-1.2-7.71l1.43-.46c.85,2.63,1.28,5.38,1.28,8.16,0,14.69-11.95,26.64-26.64,26.64Z"/>
    <path class="cls-1" d="M50.08,20.25c-3.79-9.74-12.99-16.03-23.44-16.03-3.36,0-6.63,.65-9.7,1.94l-.58-1.38c3.26-1.37,6.72-2.06,10.28-2.06,11.08,0,20.83,6.67,24.84,16.99l-1.4,.54Z"/>
  </g>
</svg>